{
	"asset":{
		"generator":"Khronos glTF Blender I/O v4.4.56",
		"version":"2.0"
	},
	"scene":0,
	"scenes":[
		{
			"name":"Scene",
			"nodes":[
				0
			]
		}
	],
	"nodes":[
		{
			"mesh":0,
			"name":"\u7403"
		}
	],
	"materials":[
		{
			"doubleSided":true,
			"name":"\u30de\u30c6\u30ea\u30a2\u30eb",
			"pbrMetallicRoughness":{
				"baseColorTexture":{
					"index":0
				},
				"metallicFactor":0,
				"roughnessFactor":0.5
			}
		}
	],
	"meshes":[
		{
			"name":"\u7403",
			"primitives":[
				{
					"attributes":{
						"POSITION":0,
						"NORMAL":1,
						"TEXCOORD_0":2
					},
					"indices":3,
					"material":0
				}
			]
		}
	],
	"textures":[
		{
			"sampler":0,
			"source":0
		}
	],
	"images":[
		{
			"mimeType":"image/png",
			"name":"bullet",
			"uri":"bullet.png"
		}
	],
	"accessors":[
		{
			"bufferView":0,
			"componentType":5126,
			"count":2220,
			"max":[
				0.14937523007392883,
				1.5771863460540771,
				0.14937523007392883
			],
			"min":[
				-0.14937523007392883,
				0.9157748222351074,
				-0.14937523007392883
			],
			"type":"VEC3"
		},
		{
			"bufferView":1,
			"componentType":5126,
			"count":2220,
			"type":"VEC3"
		},
		{
			"bufferView":2,
			"componentType":5126,
			"count":2220,
			"type":"VEC2"
		},
		{
			"bufferView":3,
			"componentType":5123,
			"count":3252,
			"type":"SCALAR"
		}
	],
	"bufferViews":[
		{
			"buffer":0,
			"byteLength":26640,
			"byteOffset":0,
			"target":34962
		},
		{
			"buffer":0,
			"byteLength":26640,
			"byteOffset":26640,
			"target":34962
		},
		{
			"buffer":0,
			"byteLength":17760,
			"byteOffset":53280,
			"target":34962
		},
		{
			"buffer":0,
			"byteLength":6504,
			"byteOffset":71040,
			"target":34963
		}
	],
	"samplers":[
		{
			"magFilter":9729,
			"minFilter":9987
		}
	],
	"buffers":[
		{
			"byteLength":77544,
			"uri":"bullet.bin"
		}
	]
}
