{
	"asset":{
		"generator":"Khronos glTF Blender I/O v5.1.18",
		"version":"2.0"
	},
	"scene":0,
	"scenes":[
		{
			"name":"Scene",
			"nodes":[
				23
			]
		}
	],
	"nodes":[
		{
			"name":"\u30dc\u30fc\u30f3.002",
			"rotation":[
				0.0012916926061734557,
				-9.10248374452749e-08,
				2.1301217734137623e-10,
				0.9999991655349731
			],
			"translation":[
				-2.1352684160744206e-16,
				1.9518595933914185,
				4.6270542952697724e-10
			]
		},
		{
			"children":[
				0
			],
			"name":"\u30dc\u30fc\u30f3.001",
			"rotation":[
				-0.0026890342123806477,
				-1.88464852612924e-08,
				-7.389018286119153e-10,
				0.9999964237213135
			],
			"scale":[
				1,
				0.9999999403953552,
				0.9999998807907104
			],
			"translation":[
				-2.770966642988773e-16,
				1.8043133020401,
				-2.9103830456733704e-10
			]
		},
		{
			"name":"\u30dc\u30fc\u30f3.016",
			"rotation":[
				-7.450580596923828e-08,
				-9.41233793128049e-08,
				5.535929177634229e-14,
				1
			],
			"translation":[
				-1.1571493275294026e-13,
				0.7750341296195984,
				3.5762786865234375e-07
			]
		},
		{
			"children":[
				2
			],
			"name":"\u30dc\u30fc\u30f3.015",
			"rotation":[
				-0.5481496453285217,
				-2.144462456499241e-07,
				-3.822276823939319e-07,
				0.8363803029060364
			],
			"translation":[
				2.559287959509604e-13,
				0.618925929069519,
				-3.0547380447387695e-07
			]
		},
		{
			"children":[
				3
			],
			"name":"\u30dc\u30fc\u30f3.014",
			"rotation":[
				0.7101231813430786,
				2.2899594398495537e-07,
				4.46284303734501e-07,
				0.7040774822235107
			],
			"scale":[
				1,
				0.9999999403953552,
				0.9999999403953552
			],
			"translation":[
				-2.1638084119618428e-13,
				0.3575519323348999,
				6.332993507385254e-08
			]
		},
		{
			"name":"\u30dc\u30fc\u30f3.022",
			"rotation":[
				5.820766785236131e-11,
				-2.843287671278061e-14,
				1.4090910826464295e-15,
				1
			],
			"scale":[
				1,
				0.9999999403953552,
				1
			],
			"translation":[
				-7.618394576216353e-14,
				0.4988774359226227,
				1.7881393432617188e-07
			]
		},
		{
			"children":[
				5
			],
			"name":"\u30dc\u30fc\u30f3.021",
			"rotation":[
				5.6264227168867365e-05,
				-2.422248002176275e-08,
				1.589965832604623e-11,
				1
			],
			"scale":[
				1,
				0.9999999403953552,
				1
			],
			"translation":[
				2.8620430136093444e-14,
				0.4770806133747101,
				-2.989545464515686e-07
			]
		},
		{
			"children":[
				6
			],
			"name":"\u30dc\u30fc\u30f3.020",
			"rotation":[
				-0.22281862795352936,
				-4.7147210580078536e-08,
				-7.925408596065608e-08,
				0.9748599529266357
			],
			"scale":[
				1,
				1,
				0.9999999403953552
			],
			"translation":[
				-1.2006064545322381e-13,
				1.245744228363037,
				4.76837158203125e-07
			]
		},
		{
			"children":[
				7
			],
			"name":"\u30dc\u30fc\u30f3.017",
			"rotation":[
				0.21873287856578827,
				4.919627727417719e-08,
				7.735153673138484e-08,
				0.9757847785949707
			],
			"translation":[
				-1.5899824859499923e-15,
				0.3575519323348999,
				5.401670932769775e-07
			]
		},
		{
			"name":"\u30dc\u30fc\u30f3.028",
			"rotation":[
				-5.171168595552444e-07,
				-3.246615754015636e-10,
				-1.4153451631179759e-13,
				1
			],
			"scale":[
				1,
				0.9999999403953552,
				1
			],
			"translation":[
				4.279176568210835e-13,
				0.4609224796295166,
				-8.940696716308594e-07
			]
		},
		{
			"children":[
				9
			],
			"name":"\u30dc\u30fc\u30f3.027",
			"rotation":[
				4.337634891271591e-07,
				-1.1813969802432212e-09,
				1.2483221921433252e-13,
				1
			],
			"translation":[
				1.4197345556132834e-13,
				0.4019887447357178,
				-7.320195436477661e-07
			]
		},
		{
			"children":[
				10
			],
			"name":"\u30dc\u30fc\u30f3.026",
			"rotation":[
				0.19819167256355286,
				-1.8466964846197698e-08,
				5.642485945145381e-08,
				0.9801632761955261
			],
			"translation":[
				-3.089114521907105e-13,
				1.2126545906066895,
				1.1920928955078125e-07
			]
		},
		{
			"children":[
				11
			],
			"name":"\u30dc\u30fc\u30f3.018",
			"rotation":[
				-0.20458996295928955,
				1.5746022541396343e-10,
				-6.206818881082654e-08,
				0.9788478016853333
			],
			"translation":[
				-1.3276489282953996e-13,
				0.3575516939163208,
				5.420297384262085e-07
			]
		},
		{
			"name":"\u30dc\u30fc\u30f3.025",
			"rotation":[
				-2.3283064365386963e-10,
				2.8449465006019636e-14,
				-5.120320095382876e-15,
				1
			],
			"translation":[
				9.195855882326853e-14,
				0.5007801651954651,
				-7.525086402893066e-07
			]
		},
		{
			"children":[
				13
			],
			"name":"\u30dc\u30fc\u30f3.024",
			"rotation":[
				4.586763679981232e-08,
				3.584933239153543e-08,
				1.4618431722827722e-14,
				1
			],
			"translation":[
				9.277200183196652e-14,
				0.5599991679191589,
				-1.471489667892456e-07
			]
		},
		{
			"children":[
				14
			],
			"name":"\u30dc\u30fc\u30f3.023",
			"rotation":[
				1.0058283805847168e-07,
				-5.062233299213403e-09,
				1.0523994734478945e-14,
				1
			],
			"translation":[
				-5.143816281119942e-14,
				1.0971925258636475,
				3.6694109439849854e-07
			]
		},
		{
			"children":[
				15
			],
			"name":"\u30dc\u30fc\u30f3.019",
			"rotation":[
				2.5099143385887146e-07,
				-2.4908985096772085e-08,
				8.536911683208054e-14,
				1
			],
			"translation":[
				-2.6869477508847245e-14,
				0.3575519323348999,
				-1.7508864402770996e-07
			]
		},
		{
			"children":[
				4,
				8,
				12,
				16
			],
			"name":"\u30dc\u30fc\u30f3.013",
			"rotation":[
				0.7287003993988037,
				1.2423625150859152e-07,
				8.876050827666404e-08,
				0.6848326921463013
			],
			"scale":[
				1,
				0.9999998211860657,
				0.9999998211860657
			],
			"translation":[
				5.111994028084155e-08,
				3.1122076511383057,
				0.8576487302780151
			]
		},
		{
			"children":[
				17
			],
			"name":"\u30dc\u30fc\u30f3.003",
			"rotation":[
				-0.7275084257125854,
				-1.211757734154162e-07,
				-8.512646587632844e-08,
				0.6860987544059753
			],
			"scale":[
				1,
				0.9999998807907104,
				0.9999998807907104
			],
			"translation":[
				-7.518992888163809e-16,
				1.8043134212493896,
				-2.9103830456733704e-10
			]
		},
		{
			"name":"\u30dc\u30fc\u30f3.007",
			"rotation":[
				-0.03126893192529678,
				0.7066031694412231,
				-0.03128569573163986,
				0.7062261700630188
			],
			"scale":[
				1,
				0.9999998211860657,
				0.9999999403953552
			],
			"translation":[
				1.7313664102402981e-06,
				1.8773167133331299,
				-1.550878643989563
			]
		},
		{
			"children":[
				19
			],
			"name":"\u30dc\u30fc\u30f3.004",
			"rotation":[
				0.7302872538566589,
				2.809629791045154e-07,
				5.14785597260925e-07,
				0.6831402778625488
			],
			"scale":[
				1,
				0.9999998807907104,
				0.9999999403953552
			],
			"translation":[
				-2.19246346880482e-15,
				1.8043136596679688,
				-2.9103830456733704e-10
			]
		},
		{
			"children":[
				1,
				18,
				20
			],
			"name":"\u30dc\u30fc\u30f3",
			"rotation":[
				0.0013974723406136036,
				1.4681316429232538e-07,
				2.0515915355456826e-10,
				0.9999990463256836
			],
			"translation":[
				0,
				0.1442277878522873,
				0
			]
		},
		{
			"mesh":0,
			"name":"\u4f53",
			"skin":0
		},
		{
			"children":[
				22,
				21
			],
			"name":"\u30a2\u30fc\u30de\u30c1\u30e5\u30a2"
		}
	],
	"animations":[
		{
			"channels":[
				{
					"sampler":0,
					"target":{
						"node":21,
						"path":"translation"
					}
				},
				{
					"sampler":1,
					"target":{
						"node":21,
						"path":"rotation"
					}
				},
				{
					"sampler":2,
					"target":{
						"node":21,
						"path":"scale"
					}
				},
				{
					"sampler":3,
					"target":{
						"node":1,
						"path":"translation"
					}
				},
				{
					"sampler":4,
					"target":{
						"node":1,
						"path":"rotation"
					}
				},
				{
					"sampler":5,
					"target":{
						"node":1,
						"path":"scale"
					}
				},
				{
					"sampler":6,
					"target":{
						"node":0,
						"path":"translation"
					}
				},
				{
					"sampler":7,
					"target":{
						"node":0,
						"path":"rotation"
					}
				},
				{
					"sampler":8,
					"target":{
						"node":0,
						"path":"scale"
					}
				},
				{
					"sampler":9,
					"target":{
						"node":18,
						"path":"translation"
					}
				},
				{
					"sampler":10,
					"target":{
						"node":18,
						"path":"rotation"
					}
				},
				{
					"sampler":11,
					"target":{
						"node":18,
						"path":"scale"
					}
				},
				{
					"sampler":12,
					"target":{
						"node":17,
						"path":"translation"
					}
				},
				{
					"sampler":13,
					"target":{
						"node":17,
						"path":"rotation"
					}
				},
				{
					"sampler":14,
					"target":{
						"node":17,
						"path":"scale"
					}
				},
				{
					"sampler":15,
					"target":{
						"node":4,
						"path":"translation"
					}
				},
				{
					"sampler":16,
					"target":{
						"node":4,
						"path":"rotation"
					}
				},
				{
					"sampler":17,
					"target":{
						"node":4,
						"path":"scale"
					}
				},
				{
					"sampler":18,
					"target":{
						"node":3,
						"path":"translation"
					}
				},
				{
					"sampler":19,
					"target":{
						"node":3,
						"path":"rotation"
					}
				},
				{
					"sampler":20,
					"target":{
						"node":3,
						"path":"scale"
					}
				},
				{
					"sampler":21,
					"target":{
						"node":2,
						"path":"translation"
					}
				},
				{
					"sampler":22,
					"target":{
						"node":2,
						"path":"rotation"
					}
				},
				{
					"sampler":23,
					"target":{
						"node":2,
						"path":"scale"
					}
				},
				{
					"sampler":24,
					"target":{
						"node":8,
						"path":"translation"
					}
				},
				{
					"sampler":25,
					"target":{
						"node":8,
						"path":"rotation"
					}
				},
				{
					"sampler":26,
					"target":{
						"node":8,
						"path":"scale"
					}
				},
				{
					"sampler":27,
					"target":{
						"node":7,
						"path":"translation"
					}
				},
				{
					"sampler":28,
					"target":{
						"node":7,
						"path":"rotation"
					}
				},
				{
					"sampler":29,
					"target":{
						"node":7,
						"path":"scale"
					}
				},
				{
					"sampler":30,
					"target":{
						"node":6,
						"path":"translation"
					}
				},
				{
					"sampler":31,
					"target":{
						"node":6,
						"path":"rotation"
					}
				},
				{
					"sampler":32,
					"target":{
						"node":6,
						"path":"scale"
					}
				},
				{
					"sampler":33,
					"target":{
						"node":5,
						"path":"translation"
					}
				},
				{
					"sampler":34,
					"target":{
						"node":5,
						"path":"rotation"
					}
				},
				{
					"sampler":35,
					"target":{
						"node":5,
						"path":"scale"
					}
				},
				{
					"sampler":36,
					"target":{
						"node":12,
						"path":"translation"
					}
				},
				{
					"sampler":37,
					"target":{
						"node":12,
						"path":"rotation"
					}
				},
				{
					"sampler":38,
					"target":{
						"node":12,
						"path":"scale"
					}
				},
				{
					"sampler":39,
					"target":{
						"node":11,
						"path":"translation"
					}
				},
				{
					"sampler":40,
					"target":{
						"node":11,
						"path":"rotation"
					}
				},
				{
					"sampler":41,
					"target":{
						"node":11,
						"path":"scale"
					}
				},
				{
					"sampler":42,
					"target":{
						"node":10,
						"path":"translation"
					}
				},
				{
					"sampler":43,
					"target":{
						"node":10,
						"path":"rotation"
					}
				},
				{
					"sampler":44,
					"target":{
						"node":10,
						"path":"scale"
					}
				},
				{
					"sampler":45,
					"target":{
						"node":9,
						"path":"translation"
					}
				},
				{
					"sampler":46,
					"target":{
						"node":9,
						"path":"rotation"
					}
				},
				{
					"sampler":47,
					"target":{
						"node":9,
						"path":"scale"
					}
				},
				{
					"sampler":48,
					"target":{
						"node":16,
						"path":"translation"
					}
				},
				{
					"sampler":49,
					"target":{
						"node":16,
						"path":"rotation"
					}
				},
				{
					"sampler":50,
					"target":{
						"node":16,
						"path":"scale"
					}
				},
				{
					"sampler":51,
					"target":{
						"node":15,
						"path":"translation"
					}
				},
				{
					"sampler":52,
					"target":{
						"node":15,
						"path":"rotation"
					}
				},
				{
					"sampler":53,
					"target":{
						"node":15,
						"path":"scale"
					}
				},
				{
					"sampler":54,
					"target":{
						"node":14,
						"path":"translation"
					}
				},
				{
					"sampler":55,
					"target":{
						"node":14,
						"path":"rotation"
					}
				},
				{
					"sampler":56,
					"target":{
						"node":14,
						"path":"scale"
					}
				},
				{
					"sampler":57,
					"target":{
						"node":13,
						"path":"translation"
					}
				},
				{
					"sampler":58,
					"target":{
						"node":13,
						"path":"rotation"
					}
				},
				{
					"sampler":59,
					"target":{
						"node":13,
						"path":"scale"
					}
				},
				{
					"sampler":60,
					"target":{
						"node":20,
						"path":"translation"
					}
				},
				{
					"sampler":61,
					"target":{
						"node":20,
						"path":"rotation"
					}
				},
				{
					"sampler":62,
					"target":{
						"node":20,
						"path":"scale"
					}
				},
				{
					"sampler":63,
					"target":{
						"node":19,
						"path":"translation"
					}
				},
				{
					"sampler":64,
					"target":{
						"node":19,
						"path":"rotation"
					}
				},
				{
					"sampler":65,
					"target":{
						"node":19,
						"path":"scale"
					}
				}
			],
			"name":"Action",
			"samplers":[
				{
					"input":25,
					"interpolation":"STEP",
					"output":26
				},
				{
					"input":25,
					"interpolation":"STEP",
					"output":27
				},
				{
					"input":25,
					"interpolation":"STEP",
					"output":28
				},
				{
					"input":25,
					"interpolation":"STEP",
					"output":29
				},
				{
					"input":25,
					"interpolation":"STEP",
					"output":30
				},
				{
					"input":25,
					"interpolation":"STEP",
					"output":31
				},
				{
					"input":25,
					"interpolation":"STEP",
					"output":32
				},
				{
					"input":25,
					"interpolation":"STEP",
					"output":33
				},
				{
					"input":25,
					"interpolation":"STEP",
					"output":34
				},
				{
					"input":25,
					"interpolation":"STEP",
					"output":35
				},
				{
					"input":25,
					"interpolation":"STEP",
					"output":36
				},
				{
					"input":25,
					"interpolation":"STEP",
					"output":34
				},
				{
					"input":37,
					"interpolation":"LINEAR",
					"output":38
				},
				{
					"input":37,
					"interpolation":"LINEAR",
					"output":39
				},
				{
					"input":25,
					"interpolation":"STEP",
					"output":40
				},
				{
					"input":25,
					"interpolation":"STEP",
					"output":41
				},
				{
					"input":25,
					"interpolation":"STEP",
					"output":42
				},
				{
					"input":25,
					"interpolation":"STEP",
					"output":43
				},
				{
					"input":25,
					"interpolation":"STEP",
					"output":44
				},
				{
					"input":25,
					"interpolation":"STEP",
					"output":45
				},
				{
					"input":25,
					"interpolation":"STEP",
					"output":46
				},
				{
					"input":25,
					"interpolation":"STEP",
					"output":47
				},
				{
					"input":25,
					"interpolation":"STEP",
					"output":48
				},
				{
					"input":25,
					"interpolation":"STEP",
					"output":49
				},
				{
					"input":25,
					"interpolation":"STEP",
					"output":50
				},
				{
					"input":25,
					"interpolation":"STEP",
					"output":51
				},
				{
					"input":25,
					"interpolation":"STEP",
					"output":52
				},
				{
					"input":25,
					"interpolation":"STEP",
					"output":53
				},
				{
					"input":25,
					"interpolation":"STEP",
					"output":54
				},
				{
					"input":25,
					"interpolation":"STEP",
					"output":55
				},
				{
					"input":25,
					"interpolation":"STEP",
					"output":56
				},
				{
					"input":25,
					"interpolation":"STEP",
					"output":57
				},
				{
					"input":25,
					"interpolation":"STEP",
					"output":58
				},
				{
					"input":25,
					"interpolation":"LINEAR",
					"output":59
				},
				{
					"input":25,
					"interpolation":"STEP",
					"output":60
				},
				{
					"input":25,
					"interpolation":"STEP",
					"output":61
				},
				{
					"input":25,
					"interpolation":"STEP",
					"output":62
				},
				{
					"input":25,
					"interpolation":"STEP",
					"output":63
				},
				{
					"input":25,
					"interpolation":"STEP",
					"output":43
				},
				{
					"input":25,
					"interpolation":"STEP",
					"output":64
				},
				{
					"input":25,
					"interpolation":"STEP",
					"output":65
				},
				{
					"input":25,
					"interpolation":"STEP",
					"output":66
				},
				{
					"input":25,
					"interpolation":"STEP",
					"output":67
				},
				{
					"input":25,
					"interpolation":"STEP",
					"output":68
				},
				{
					"input":25,
					"interpolation":"STEP",
					"output":69
				},
				{
					"input":25,
					"interpolation":"STEP",
					"output":70
				},
				{
					"input":25,
					"interpolation":"STEP",
					"output":71
				},
				{
					"input":25,
					"interpolation":"STEP",
					"output":34
				},
				{
					"input":25,
					"interpolation":"STEP",
					"output":72
				},
				{
					"input":25,
					"interpolation":"STEP",
					"output":73
				},
				{
					"input":25,
					"interpolation":"STEP",
					"output":74
				},
				{
					"input":25,
					"interpolation":"STEP",
					"output":75
				},
				{
					"input":25,
					"interpolation":"STEP",
					"output":76
				},
				{
					"input":25,
					"interpolation":"STEP",
					"output":77
				},
				{
					"input":25,
					"interpolation":"STEP",
					"output":78
				},
				{
					"input":25,
					"interpolation":"LINEAR",
					"output":79
				},
				{
					"input":25,
					"interpolation":"STEP",
					"output":80
				},
				{
					"input":25,
					"interpolation":"LINEAR",
					"output":81
				},
				{
					"input":25,
					"interpolation":"LINEAR",
					"output":82
				},
				{
					"input":25,
					"interpolation":"STEP",
					"output":83
				},
				{
					"input":25,
					"interpolation":"STEP",
					"output":84
				},
				{
					"input":25,
					"interpolation":"STEP",
					"output":85
				},
				{
					"input":25,
					"interpolation":"STEP",
					"output":86
				},
				{
					"input":37,
					"interpolation":"LINEAR",
					"output":87
				},
				{
					"input":37,
					"interpolation":"LINEAR",
					"output":88
				},
				{
					"input":25,
					"interpolation":"STEP",
					"output":89
				}
			]
		},
		{
			"channels":[
				{
					"sampler":0,
					"target":{
						"node":21,
						"path":"translation"
					}
				},
				{
					"sampler":1,
					"target":{
						"node":21,
						"path":"rotation"
					}
				},
				{
					"sampler":2,
					"target":{
						"node":21,
						"path":"scale"
					}
				},
				{
					"sampler":3,
					"target":{
						"node":1,
						"path":"translation"
					}
				},
				{
					"sampler":4,
					"target":{
						"node":1,
						"path":"rotation"
					}
				},
				{
					"sampler":5,
					"target":{
						"node":1,
						"path":"scale"
					}
				},
				{
					"sampler":6,
					"target":{
						"node":0,
						"path":"translation"
					}
				},
				{
					"sampler":7,
					"target":{
						"node":0,
						"path":"rotation"
					}
				},
				{
					"sampler":8,
					"target":{
						"node":0,
						"path":"scale"
					}
				},
				{
					"sampler":9,
					"target":{
						"node":18,
						"path":"translation"
					}
				},
				{
					"sampler":10,
					"target":{
						"node":18,
						"path":"rotation"
					}
				},
				{
					"sampler":11,
					"target":{
						"node":18,
						"path":"scale"
					}
				},
				{
					"sampler":12,
					"target":{
						"node":17,
						"path":"translation"
					}
				},
				{
					"sampler":13,
					"target":{
						"node":17,
						"path":"rotation"
					}
				},
				{
					"sampler":14,
					"target":{
						"node":17,
						"path":"scale"
					}
				},
				{
					"sampler":15,
					"target":{
						"node":4,
						"path":"translation"
					}
				},
				{
					"sampler":16,
					"target":{
						"node":4,
						"path":"rotation"
					}
				},
				{
					"sampler":17,
					"target":{
						"node":4,
						"path":"scale"
					}
				},
				{
					"sampler":18,
					"target":{
						"node":3,
						"path":"translation"
					}
				},
				{
					"sampler":19,
					"target":{
						"node":3,
						"path":"rotation"
					}
				},
				{
					"sampler":20,
					"target":{
						"node":3,
						"path":"scale"
					}
				},
				{
					"sampler":21,
					"target":{
						"node":2,
						"path":"translation"
					}
				},
				{
					"sampler":22,
					"target":{
						"node":2,
						"path":"rotation"
					}
				},
				{
					"sampler":23,
					"target":{
						"node":2,
						"path":"scale"
					}
				},
				{
					"sampler":24,
					"target":{
						"node":8,
						"path":"translation"
					}
				},
				{
					"sampler":25,
					"target":{
						"node":8,
						"path":"rotation"
					}
				},
				{
					"sampler":26,
					"target":{
						"node":8,
						"path":"scale"
					}
				},
				{
					"sampler":27,
					"target":{
						"node":7,
						"path":"translation"
					}
				},
				{
					"sampler":28,
					"target":{
						"node":7,
						"path":"rotation"
					}
				},
				{
					"sampler":29,
					"target":{
						"node":7,
						"path":"scale"
					}
				},
				{
					"sampler":30,
					"target":{
						"node":6,
						"path":"translation"
					}
				},
				{
					"sampler":31,
					"target":{
						"node":6,
						"path":"rotation"
					}
				},
				{
					"sampler":32,
					"target":{
						"node":6,
						"path":"scale"
					}
				},
				{
					"sampler":33,
					"target":{
						"node":5,
						"path":"translation"
					}
				},
				{
					"sampler":34,
					"target":{
						"node":5,
						"path":"rotation"
					}
				},
				{
					"sampler":35,
					"target":{
						"node":5,
						"path":"scale"
					}
				},
				{
					"sampler":36,
					"target":{
						"node":12,
						"path":"translation"
					}
				},
				{
					"sampler":37,
					"target":{
						"node":12,
						"path":"rotation"
					}
				},
				{
					"sampler":38,
					"target":{
						"node":12,
						"path":"scale"
					}
				},
				{
					"sampler":39,
					"target":{
						"node":11,
						"path":"translation"
					}
				},
				{
					"sampler":40,
					"target":{
						"node":11,
						"path":"rotation"
					}
				},
				{
					"sampler":41,
					"target":{
						"node":11,
						"path":"scale"
					}
				},
				{
					"sampler":42,
					"target":{
						"node":10,
						"path":"translation"
					}
				},
				{
					"sampler":43,
					"target":{
						"node":10,
						"path":"rotation"
					}
				},
				{
					"sampler":44,
					"target":{
						"node":10,
						"path":"scale"
					}
				},
				{
					"sampler":45,
					"target":{
						"node":9,
						"path":"translation"
					}
				},
				{
					"sampler":46,
					"target":{
						"node":9,
						"path":"rotation"
					}
				},
				{
					"sampler":47,
					"target":{
						"node":9,
						"path":"scale"
					}
				},
				{
					"sampler":48,
					"target":{
						"node":16,
						"path":"translation"
					}
				},
				{
					"sampler":49,
					"target":{
						"node":16,
						"path":"rotation"
					}
				},
				{
					"sampler":50,
					"target":{
						"node":16,
						"path":"scale"
					}
				},
				{
					"sampler":51,
					"target":{
						"node":15,
						"path":"translation"
					}
				},
				{
					"sampler":52,
					"target":{
						"node":15,
						"path":"rotation"
					}
				},
				{
					"sampler":53,
					"target":{
						"node":15,
						"path":"scale"
					}
				},
				{
					"sampler":54,
					"target":{
						"node":14,
						"path":"translation"
					}
				},
				{
					"sampler":55,
					"target":{
						"node":14,
						"path":"rotation"
					}
				},
				{
					"sampler":56,
					"target":{
						"node":14,
						"path":"scale"
					}
				},
				{
					"sampler":57,
					"target":{
						"node":13,
						"path":"translation"
					}
				},
				{
					"sampler":58,
					"target":{
						"node":13,
						"path":"rotation"
					}
				},
				{
					"sampler":59,
					"target":{
						"node":13,
						"path":"scale"
					}
				},
				{
					"sampler":60,
					"target":{
						"node":20,
						"path":"translation"
					}
				},
				{
					"sampler":61,
					"target":{
						"node":20,
						"path":"rotation"
					}
				},
				{
					"sampler":62,
					"target":{
						"node":20,
						"path":"scale"
					}
				},
				{
					"sampler":63,
					"target":{
						"node":19,
						"path":"translation"
					}
				},
				{
					"sampler":64,
					"target":{
						"node":19,
						"path":"rotation"
					}
				},
				{
					"sampler":65,
					"target":{
						"node":19,
						"path":"scale"
					}
				}
			],
			"name":"Action.001",
			"samplers":[
				{
					"input":25,
					"interpolation":"STEP",
					"output":90
				},
				{
					"input":25,
					"interpolation":"STEP",
					"output":27
				},
				{
					"input":25,
					"interpolation":"STEP",
					"output":91
				},
				{
					"input":25,
					"interpolation":"STEP",
					"output":92
				},
				{
					"input":25,
					"interpolation":"STEP",
					"output":93
				},
				{
					"input":25,
					"interpolation":"STEP",
					"output":31
				},
				{
					"input":25,
					"interpolation":"STEP",
					"output":94
				},
				{
					"input":25,
					"interpolation":"STEP",
					"output":95
				},
				{
					"input":25,
					"interpolation":"STEP",
					"output":96
				},
				{
					"input":25,
					"interpolation":"STEP",
					"output":97
				},
				{
					"input":25,
					"interpolation":"STEP",
					"output":98
				},
				{
					"input":25,
					"interpolation":"STEP",
					"output":34
				},
				{
					"input":37,
					"interpolation":"LINEAR",
					"output":99
				},
				{
					"input":37,
					"interpolation":"LINEAR",
					"output":100
				},
				{
					"input":25,
					"interpolation":"STEP",
					"output":40
				},
				{
					"input":25,
					"interpolation":"STEP",
					"output":101
				},
				{
					"input":25,
					"interpolation":"LINEAR",
					"output":102
				},
				{
					"input":25,
					"interpolation":"STEP",
					"output":103
				},
				{
					"input":25,
					"interpolation":"STEP",
					"output":104
				},
				{
					"input":25,
					"interpolation":"STEP",
					"output":105
				},
				{
					"input":25,
					"interpolation":"STEP",
					"output":106
				},
				{
					"input":25,
					"interpolation":"STEP",
					"output":107
				},
				{
					"input":25,
					"interpolation":"LINEAR",
					"output":108
				},
				{
					"input":25,
					"interpolation":"STEP",
					"output":109
				},
				{
					"input":25,
					"interpolation":"STEP",
					"output":110
				},
				{
					"input":25,
					"interpolation":"STEP",
					"output":111
				},
				{
					"input":25,
					"interpolation":"STEP",
					"output":112
				},
				{
					"input":25,
					"interpolation":"STEP",
					"output":113
				},
				{
					"input":25,
					"interpolation":"STEP",
					"output":114
				},
				{
					"input":25,
					"interpolation":"STEP",
					"output":115
				},
				{
					"input":25,
					"interpolation":"STEP",
					"output":116
				},
				{
					"input":25,
					"interpolation":"STEP",
					"output":117
				},
				{
					"input":25,
					"interpolation":"STEP",
					"output":118
				},
				{
					"input":25,
					"interpolation":"STEP",
					"output":119
				},
				{
					"input":25,
					"interpolation":"STEP",
					"output":120
				},
				{
					"input":25,
					"interpolation":"STEP",
					"output":121
				},
				{
					"input":25,
					"interpolation":"STEP",
					"output":122
				},
				{
					"input":25,
					"interpolation":"STEP",
					"output":123
				},
				{
					"input":25,
					"interpolation":"STEP",
					"output":43
				},
				{
					"input":25,
					"interpolation":"STEP",
					"output":124
				},
				{
					"input":25,
					"interpolation":"STEP",
					"output":125
				},
				{
					"input":25,
					"interpolation":"STEP",
					"output":126
				},
				{
					"input":25,
					"interpolation":"STEP",
					"output":127
				},
				{
					"input":25,
					"interpolation":"STEP",
					"output":128
				},
				{
					"input":25,
					"interpolation":"STEP",
					"output":129
				},
				{
					"input":25,
					"interpolation":"STEP",
					"output":130
				},
				{
					"input":25,
					"interpolation":"STEP",
					"output":131
				},
				{
					"input":25,
					"interpolation":"STEP",
					"output":55
				},
				{
					"input":25,
					"interpolation":"STEP",
					"output":132
				},
				{
					"input":25,
					"interpolation":"LINEAR",
					"output":133
				},
				{
					"input":25,
					"interpolation":"STEP",
					"output":34
				},
				{
					"input":25,
					"interpolation":"LINEAR",
					"output":134
				},
				{
					"input":25,
					"interpolation":"LINEAR",
					"output":135
				},
				{
					"input":25,
					"interpolation":"STEP",
					"output":55
				},
				{
					"input":25,
					"interpolation":"LINEAR",
					"output":136
				},
				{
					"input":25,
					"interpolation":"LINEAR",
					"output":137
				},
				{
					"input":25,
					"interpolation":"STEP",
					"output":138
				},
				{
					"input":25,
					"interpolation":"LINEAR",
					"output":139
				},
				{
					"input":25,
					"interpolation":"LINEAR",
					"output":140
				},
				{
					"input":25,
					"interpolation":"LINEAR",
					"output":141
				},
				{
					"input":25,
					"interpolation":"STEP",
					"output":142
				},
				{
					"input":25,
					"interpolation":"STEP",
					"output":143
				},
				{
					"input":25,
					"interpolation":"STEP",
					"output":86
				},
				{
					"input":37,
					"interpolation":"LINEAR",
					"output":144
				},
				{
					"input":37,
					"interpolation":"LINEAR",
					"output":145
				},
				{
					"input":25,
					"interpolation":"LINEAR",
					"output":146
				}
			]
		},
		{
			"channels":[
				{
					"sampler":0,
					"target":{
						"node":21,
						"path":"translation"
					}
				},
				{
					"sampler":1,
					"target":{
						"node":21,
						"path":"rotation"
					}
				},
				{
					"sampler":2,
					"target":{
						"node":21,
						"path":"scale"
					}
				},
				{
					"sampler":3,
					"target":{
						"node":1,
						"path":"translation"
					}
				},
				{
					"sampler":4,
					"target":{
						"node":1,
						"path":"rotation"
					}
				},
				{
					"sampler":5,
					"target":{
						"node":1,
						"path":"scale"
					}
				},
				{
					"sampler":6,
					"target":{
						"node":0,
						"path":"translation"
					}
				},
				{
					"sampler":7,
					"target":{
						"node":0,
						"path":"rotation"
					}
				},
				{
					"sampler":8,
					"target":{
						"node":0,
						"path":"scale"
					}
				},
				{
					"sampler":9,
					"target":{
						"node":18,
						"path":"translation"
					}
				},
				{
					"sampler":10,
					"target":{
						"node":18,
						"path":"rotation"
					}
				},
				{
					"sampler":11,
					"target":{
						"node":18,
						"path":"scale"
					}
				},
				{
					"sampler":12,
					"target":{
						"node":17,
						"path":"translation"
					}
				},
				{
					"sampler":13,
					"target":{
						"node":17,
						"path":"rotation"
					}
				},
				{
					"sampler":14,
					"target":{
						"node":17,
						"path":"scale"
					}
				},
				{
					"sampler":15,
					"target":{
						"node":4,
						"path":"translation"
					}
				},
				{
					"sampler":16,
					"target":{
						"node":4,
						"path":"rotation"
					}
				},
				{
					"sampler":17,
					"target":{
						"node":4,
						"path":"scale"
					}
				},
				{
					"sampler":18,
					"target":{
						"node":3,
						"path":"translation"
					}
				},
				{
					"sampler":19,
					"target":{
						"node":3,
						"path":"rotation"
					}
				},
				{
					"sampler":20,
					"target":{
						"node":3,
						"path":"scale"
					}
				},
				{
					"sampler":21,
					"target":{
						"node":2,
						"path":"translation"
					}
				},
				{
					"sampler":22,
					"target":{
						"node":2,
						"path":"rotation"
					}
				},
				{
					"sampler":23,
					"target":{
						"node":2,
						"path":"scale"
					}
				},
				{
					"sampler":24,
					"target":{
						"node":8,
						"path":"translation"
					}
				},
				{
					"sampler":25,
					"target":{
						"node":8,
						"path":"rotation"
					}
				},
				{
					"sampler":26,
					"target":{
						"node":8,
						"path":"scale"
					}
				},
				{
					"sampler":27,
					"target":{
						"node":7,
						"path":"translation"
					}
				},
				{
					"sampler":28,
					"target":{
						"node":7,
						"path":"rotation"
					}
				},
				{
					"sampler":29,
					"target":{
						"node":7,
						"path":"scale"
					}
				},
				{
					"sampler":30,
					"target":{
						"node":6,
						"path":"translation"
					}
				},
				{
					"sampler":31,
					"target":{
						"node":6,
						"path":"rotation"
					}
				},
				{
					"sampler":32,
					"target":{
						"node":6,
						"path":"scale"
					}
				},
				{
					"sampler":33,
					"target":{
						"node":5,
						"path":"translation"
					}
				},
				{
					"sampler":34,
					"target":{
						"node":5,
						"path":"rotation"
					}
				},
				{
					"sampler":35,
					"target":{
						"node":5,
						"path":"scale"
					}
				},
				{
					"sampler":36,
					"target":{
						"node":12,
						"path":"translation"
					}
				},
				{
					"sampler":37,
					"target":{
						"node":12,
						"path":"rotation"
					}
				},
				{
					"sampler":38,
					"target":{
						"node":12,
						"path":"scale"
					}
				},
				{
					"sampler":39,
					"target":{
						"node":11,
						"path":"translation"
					}
				},
				{
					"sampler":40,
					"target":{
						"node":11,
						"path":"rotation"
					}
				},
				{
					"sampler":41,
					"target":{
						"node":11,
						"path":"scale"
					}
				},
				{
					"sampler":42,
					"target":{
						"node":10,
						"path":"translation"
					}
				},
				{
					"sampler":43,
					"target":{
						"node":10,
						"path":"rotation"
					}
				},
				{
					"sampler":44,
					"target":{
						"node":10,
						"path":"scale"
					}
				},
				{
					"sampler":45,
					"target":{
						"node":9,
						"path":"translation"
					}
				},
				{
					"sampler":46,
					"target":{
						"node":9,
						"path":"rotation"
					}
				},
				{
					"sampler":47,
					"target":{
						"node":9,
						"path":"scale"
					}
				},
				{
					"sampler":48,
					"target":{
						"node":16,
						"path":"translation"
					}
				},
				{
					"sampler":49,
					"target":{
						"node":16,
						"path":"rotation"
					}
				},
				{
					"sampler":50,
					"target":{
						"node":16,
						"path":"scale"
					}
				},
				{
					"sampler":51,
					"target":{
						"node":15,
						"path":"translation"
					}
				},
				{
					"sampler":52,
					"target":{
						"node":15,
						"path":"rotation"
					}
				},
				{
					"sampler":53,
					"target":{
						"node":15,
						"path":"scale"
					}
				},
				{
					"sampler":54,
					"target":{
						"node":14,
						"path":"translation"
					}
				},
				{
					"sampler":55,
					"target":{
						"node":14,
						"path":"rotation"
					}
				},
				{
					"sampler":56,
					"target":{
						"node":14,
						"path":"scale"
					}
				},
				{
					"sampler":57,
					"target":{
						"node":13,
						"path":"translation"
					}
				},
				{
					"sampler":58,
					"target":{
						"node":13,
						"path":"rotation"
					}
				},
				{
					"sampler":59,
					"target":{
						"node":13,
						"path":"scale"
					}
				},
				{
					"sampler":60,
					"target":{
						"node":20,
						"path":"translation"
					}
				},
				{
					"sampler":61,
					"target":{
						"node":20,
						"path":"rotation"
					}
				},
				{
					"sampler":62,
					"target":{
						"node":20,
						"path":"scale"
					}
				},
				{
					"sampler":63,
					"target":{
						"node":19,
						"path":"translation"
					}
				},
				{
					"sampler":64,
					"target":{
						"node":19,
						"path":"rotation"
					}
				},
				{
					"sampler":65,
					"target":{
						"node":19,
						"path":"scale"
					}
				}
			],
			"name":"\u6a2a\u8599\u304e\u6255\u3044",
			"samplers":[
				{
					"input":147,
					"interpolation":"STEP",
					"output":26
				},
				{
					"input":147,
					"interpolation":"STEP",
					"output":27
				},
				{
					"input":147,
					"interpolation":"STEP",
					"output":28
				},
				{
					"input":147,
					"interpolation":"STEP",
					"output":29
				},
				{
					"input":147,
					"interpolation":"STEP",
					"output":30
				},
				{
					"input":147,
					"interpolation":"STEP",
					"output":31
				},
				{
					"input":147,
					"interpolation":"STEP",
					"output":32
				},
				{
					"input":147,
					"interpolation":"STEP",
					"output":33
				},
				{
					"input":147,
					"interpolation":"STEP",
					"output":34
				},
				{
					"input":147,
					"interpolation":"STEP",
					"output":35
				},
				{
					"input":147,
					"interpolation":"STEP",
					"output":36
				},
				{
					"input":147,
					"interpolation":"STEP",
					"output":34
				},
				{
					"input":148,
					"interpolation":"LINEAR",
					"output":149
				},
				{
					"input":148,
					"interpolation":"LINEAR",
					"output":150
				},
				{
					"input":147,
					"interpolation":"STEP",
					"output":151
				},
				{
					"input":147,
					"interpolation":"STEP",
					"output":152
				},
				{
					"input":147,
					"interpolation":"STEP",
					"output":153
				},
				{
					"input":147,
					"interpolation":"STEP",
					"output":43
				},
				{
					"input":147,
					"interpolation":"STEP",
					"output":154
				},
				{
					"input":147,
					"interpolation":"STEP",
					"output":105
				},
				{
					"input":147,
					"interpolation":"STEP",
					"output":155
				},
				{
					"input":147,
					"interpolation":"STEP",
					"output":156
				},
				{
					"input":147,
					"interpolation":"STEP",
					"output":157
				},
				{
					"input":147,
					"interpolation":"STEP",
					"output":121
				},
				{
					"input":147,
					"interpolation":"STEP",
					"output":158
				},
				{
					"input":147,
					"interpolation":"STEP",
					"output":159
				},
				{
					"input":147,
					"interpolation":"STEP",
					"output":43
				},
				{
					"input":147,
					"interpolation":"STEP",
					"output":160
				},
				{
					"input":147,
					"interpolation":"STEP",
					"output":161
				},
				{
					"input":147,
					"interpolation":"STEP",
					"output":162
				},
				{
					"input":147,
					"interpolation":"STEP",
					"output":163
				},
				{
					"input":147,
					"interpolation":"STEP",
					"output":164
				},
				{
					"input":147,
					"interpolation":"STEP",
					"output":165
				},
				{
					"input":147,
					"interpolation":"STEP",
					"output":166
				},
				{
					"input":147,
					"interpolation":"STEP",
					"output":167
				},
				{
					"input":147,
					"interpolation":"STEP",
					"output":168
				},
				{
					"input":147,
					"interpolation":"STEP",
					"output":169
				},
				{
					"input":147,
					"interpolation":"STEP",
					"output":170
				},
				{
					"input":147,
					"interpolation":"STEP",
					"output":43
				},
				{
					"input":147,
					"interpolation":"STEP",
					"output":171
				},
				{
					"input":147,
					"interpolation":"STEP",
					"output":172
				},
				{
					"input":147,
					"interpolation":"STEP",
					"output":173
				},
				{
					"input":147,
					"interpolation":"STEP",
					"output":174
				},
				{
					"input":147,
					"interpolation":"STEP",
					"output":175
				},
				{
					"input":147,
					"interpolation":"STEP",
					"output":176
				},
				{
					"input":147,
					"interpolation":"STEP",
					"output":177
				},
				{
					"input":147,
					"interpolation":"STEP",
					"output":178
				},
				{
					"input":147,
					"interpolation":"STEP",
					"output":179
				},
				{
					"input":147,
					"interpolation":"STEP",
					"output":180
				},
				{
					"input":147,
					"interpolation":"STEP",
					"output":181
				},
				{
					"input":147,
					"interpolation":"STEP",
					"output":182
				},
				{
					"input":147,
					"interpolation":"STEP",
					"output":183
				},
				{
					"input":147,
					"interpolation":"STEP",
					"output":184
				},
				{
					"input":147,
					"interpolation":"STEP",
					"output":55
				},
				{
					"input":147,
					"interpolation":"STEP",
					"output":185
				},
				{
					"input":147,
					"interpolation":"STEP",
					"output":186
				},
				{
					"input":147,
					"interpolation":"STEP",
					"output":187
				},
				{
					"input":147,
					"interpolation":"STEP",
					"output":188
				},
				{
					"input":147,
					"interpolation":"STEP",
					"output":189
				},
				{
					"input":147,
					"interpolation":"STEP",
					"output":190
				},
				{
					"input":147,
					"interpolation":"STEP",
					"output":84
				},
				{
					"input":147,
					"interpolation":"STEP",
					"output":85
				},
				{
					"input":147,
					"interpolation":"STEP",
					"output":86
				},
				{
					"input":148,
					"interpolation":"LINEAR",
					"output":191
				},
				{
					"input":148,
					"interpolation":"LINEAR",
					"output":192
				},
				{
					"input":147,
					"interpolation":"STEP",
					"output":89
				}
			]
		},
		{
			"channels":[
				{
					"sampler":0,
					"target":{
						"node":21,
						"path":"translation"
					}
				},
				{
					"sampler":1,
					"target":{
						"node":21,
						"path":"rotation"
					}
				},
				{
					"sampler":2,
					"target":{
						"node":21,
						"path":"scale"
					}
				},
				{
					"sampler":3,
					"target":{
						"node":1,
						"path":"translation"
					}
				},
				{
					"sampler":4,
					"target":{
						"node":1,
						"path":"rotation"
					}
				},
				{
					"sampler":5,
					"target":{
						"node":1,
						"path":"scale"
					}
				},
				{
					"sampler":6,
					"target":{
						"node":0,
						"path":"translation"
					}
				},
				{
					"sampler":7,
					"target":{
						"node":0,
						"path":"rotation"
					}
				},
				{
					"sampler":8,
					"target":{
						"node":0,
						"path":"scale"
					}
				},
				{
					"sampler":9,
					"target":{
						"node":18,
						"path":"translation"
					}
				},
				{
					"sampler":10,
					"target":{
						"node":18,
						"path":"rotation"
					}
				},
				{
					"sampler":11,
					"target":{
						"node":18,
						"path":"scale"
					}
				},
				{
					"sampler":12,
					"target":{
						"node":17,
						"path":"translation"
					}
				},
				{
					"sampler":13,
					"target":{
						"node":17,
						"path":"rotation"
					}
				},
				{
					"sampler":14,
					"target":{
						"node":17,
						"path":"scale"
					}
				},
				{
					"sampler":15,
					"target":{
						"node":4,
						"path":"translation"
					}
				},
				{
					"sampler":16,
					"target":{
						"node":4,
						"path":"rotation"
					}
				},
				{
					"sampler":17,
					"target":{
						"node":4,
						"path":"scale"
					}
				},
				{
					"sampler":18,
					"target":{
						"node":3,
						"path":"translation"
					}
				},
				{
					"sampler":19,
					"target":{
						"node":3,
						"path":"rotation"
					}
				},
				{
					"sampler":20,
					"target":{
						"node":3,
						"path":"scale"
					}
				},
				{
					"sampler":21,
					"target":{
						"node":2,
						"path":"translation"
					}
				},
				{
					"sampler":22,
					"target":{
						"node":2,
						"path":"rotation"
					}
				},
				{
					"sampler":23,
					"target":{
						"node":2,
						"path":"scale"
					}
				},
				{
					"sampler":24,
					"target":{
						"node":8,
						"path":"translation"
					}
				},
				{
					"sampler":25,
					"target":{
						"node":8,
						"path":"rotation"
					}
				},
				{
					"sampler":26,
					"target":{
						"node":8,
						"path":"scale"
					}
				},
				{
					"sampler":27,
					"target":{
						"node":7,
						"path":"translation"
					}
				},
				{
					"sampler":28,
					"target":{
						"node":7,
						"path":"rotation"
					}
				},
				{
					"sampler":29,
					"target":{
						"node":7,
						"path":"scale"
					}
				},
				{
					"sampler":30,
					"target":{
						"node":6,
						"path":"translation"
					}
				},
				{
					"sampler":31,
					"target":{
						"node":6,
						"path":"rotation"
					}
				},
				{
					"sampler":32,
					"target":{
						"node":6,
						"path":"scale"
					}
				},
				{
					"sampler":33,
					"target":{
						"node":5,
						"path":"translation"
					}
				},
				{
					"sampler":34,
					"target":{
						"node":5,
						"path":"rotation"
					}
				},
				{
					"sampler":35,
					"target":{
						"node":5,
						"path":"scale"
					}
				},
				{
					"sampler":36,
					"target":{
						"node":12,
						"path":"translation"
					}
				},
				{
					"sampler":37,
					"target":{
						"node":12,
						"path":"rotation"
					}
				},
				{
					"sampler":38,
					"target":{
						"node":12,
						"path":"scale"
					}
				},
				{
					"sampler":39,
					"target":{
						"node":11,
						"path":"translation"
					}
				},
				{
					"sampler":40,
					"target":{
						"node":11,
						"path":"rotation"
					}
				},
				{
					"sampler":41,
					"target":{
						"node":11,
						"path":"scale"
					}
				},
				{
					"sampler":42,
					"target":{
						"node":10,
						"path":"translation"
					}
				},
				{
					"sampler":43,
					"target":{
						"node":10,
						"path":"rotation"
					}
				},
				{
					"sampler":44,
					"target":{
						"node":10,
						"path":"scale"
					}
				},
				{
					"sampler":45,
					"target":{
						"node":9,
						"path":"translation"
					}
				},
				{
					"sampler":46,
					"target":{
						"node":9,
						"path":"rotation"
					}
				},
				{
					"sampler":47,
					"target":{
						"node":9,
						"path":"scale"
					}
				},
				{
					"sampler":48,
					"target":{
						"node":16,
						"path":"translation"
					}
				},
				{
					"sampler":49,
					"target":{
						"node":16,
						"path":"rotation"
					}
				},
				{
					"sampler":50,
					"target":{
						"node":16,
						"path":"scale"
					}
				},
				{
					"sampler":51,
					"target":{
						"node":15,
						"path":"translation"
					}
				},
				{
					"sampler":52,
					"target":{
						"node":15,
						"path":"rotation"
					}
				},
				{
					"sampler":53,
					"target":{
						"node":15,
						"path":"scale"
					}
				},
				{
					"sampler":54,
					"target":{
						"node":14,
						"path":"translation"
					}
				},
				{
					"sampler":55,
					"target":{
						"node":14,
						"path":"rotation"
					}
				},
				{
					"sampler":56,
					"target":{
						"node":14,
						"path":"scale"
					}
				},
				{
					"sampler":57,
					"target":{
						"node":13,
						"path":"translation"
					}
				},
				{
					"sampler":58,
					"target":{
						"node":13,
						"path":"rotation"
					}
				},
				{
					"sampler":59,
					"target":{
						"node":13,
						"path":"scale"
					}
				},
				{
					"sampler":60,
					"target":{
						"node":20,
						"path":"translation"
					}
				},
				{
					"sampler":61,
					"target":{
						"node":20,
						"path":"rotation"
					}
				},
				{
					"sampler":62,
					"target":{
						"node":20,
						"path":"scale"
					}
				},
				{
					"sampler":63,
					"target":{
						"node":19,
						"path":"translation"
					}
				},
				{
					"sampler":64,
					"target":{
						"node":19,
						"path":"rotation"
					}
				},
				{
					"sampler":65,
					"target":{
						"node":19,
						"path":"scale"
					}
				}
			],
			"name":"\u6ce2\u72b6\u653b\u6483",
			"samplers":[
				{
					"input":147,
					"interpolation":"STEP",
					"output":26
				},
				{
					"input":147,
					"interpolation":"STEP",
					"output":27
				},
				{
					"input":147,
					"interpolation":"STEP",
					"output":28
				},
				{
					"input":147,
					"interpolation":"STEP",
					"output":29
				},
				{
					"input":147,
					"interpolation":"STEP",
					"output":30
				},
				{
					"input":147,
					"interpolation":"STEP",
					"output":31
				},
				{
					"input":147,
					"interpolation":"STEP",
					"output":32
				},
				{
					"input":147,
					"interpolation":"STEP",
					"output":33
				},
				{
					"input":147,
					"interpolation":"STEP",
					"output":34
				},
				{
					"input":147,
					"interpolation":"STEP",
					"output":35
				},
				{
					"input":147,
					"interpolation":"STEP",
					"output":36
				},
				{
					"input":147,
					"interpolation":"STEP",
					"output":34
				},
				{
					"input":148,
					"interpolation":"LINEAR",
					"output":149
				},
				{
					"input":148,
					"interpolation":"LINEAR",
					"output":150
				},
				{
					"input":147,
					"interpolation":"STEP",
					"output":151
				},
				{
					"input":147,
					"interpolation":"STEP",
					"output":152
				},
				{
					"input":147,
					"interpolation":"STEP",
					"output":153
				},
				{
					"input":147,
					"interpolation":"STEP",
					"output":43
				},
				{
					"input":147,
					"interpolation":"STEP",
					"output":154
				},
				{
					"input":147,
					"interpolation":"STEP",
					"output":105
				},
				{
					"input":147,
					"interpolation":"STEP",
					"output":155
				},
				{
					"input":147,
					"interpolation":"STEP",
					"output":156
				},
				{
					"input":147,
					"interpolation":"STEP",
					"output":157
				},
				{
					"input":147,
					"interpolation":"STEP",
					"output":121
				},
				{
					"input":147,
					"interpolation":"STEP",
					"output":158
				},
				{
					"input":147,
					"interpolation":"STEP",
					"output":159
				},
				{
					"input":147,
					"interpolation":"STEP",
					"output":43
				},
				{
					"input":147,
					"interpolation":"STEP",
					"output":160
				},
				{
					"input":147,
					"interpolation":"STEP",
					"output":161
				},
				{
					"input":147,
					"interpolation":"STEP",
					"output":162
				},
				{
					"input":147,
					"interpolation":"STEP",
					"output":163
				},
				{
					"input":147,
					"interpolation":"STEP",
					"output":164
				},
				{
					"input":147,
					"interpolation":"STEP",
					"output":165
				},
				{
					"input":147,
					"interpolation":"STEP",
					"output":166
				},
				{
					"input":147,
					"interpolation":"STEP",
					"output":167
				},
				{
					"input":147,
					"interpolation":"STEP",
					"output":168
				},
				{
					"input":147,
					"interpolation":"STEP",
					"output":169
				},
				{
					"input":147,
					"interpolation":"STEP",
					"output":170
				},
				{
					"input":147,
					"interpolation":"STEP",
					"output":43
				},
				{
					"input":147,
					"interpolation":"STEP",
					"output":171
				},
				{
					"input":147,
					"interpolation":"STEP",
					"output":172
				},
				{
					"input":147,
					"interpolation":"STEP",
					"output":173
				},
				{
					"input":147,
					"interpolation":"STEP",
					"output":174
				},
				{
					"input":147,
					"interpolation":"STEP",
					"output":175
				},
				{
					"input":147,
					"interpolation":"STEP",
					"output":176
				},
				{
					"input":147,
					"interpolation":"STEP",
					"output":177
				},
				{
					"input":147,
					"interpolation":"STEP",
					"output":178
				},
				{
					"input":147,
					"interpolation":"STEP",
					"output":179
				},
				{
					"input":147,
					"interpolation":"STEP",
					"output":180
				},
				{
					"input":147,
					"interpolation":"STEP",
					"output":181
				},
				{
					"input":147,
					"interpolation":"STEP",
					"output":182
				},
				{
					"input":147,
					"interpolation":"STEP",
					"output":183
				},
				{
					"input":147,
					"interpolation":"STEP",
					"output":184
				},
				{
					"input":147,
					"interpolation":"STEP",
					"output":55
				},
				{
					"input":147,
					"interpolation":"STEP",
					"output":185
				},
				{
					"input":147,
					"interpolation":"STEP",
					"output":186
				},
				{
					"input":147,
					"interpolation":"STEP",
					"output":187
				},
				{
					"input":147,
					"interpolation":"STEP",
					"output":188
				},
				{
					"input":147,
					"interpolation":"STEP",
					"output":189
				},
				{
					"input":147,
					"interpolation":"STEP",
					"output":190
				},
				{
					"input":147,
					"interpolation":"STEP",
					"output":84
				},
				{
					"input":147,
					"interpolation":"STEP",
					"output":85
				},
				{
					"input":147,
					"interpolation":"STEP",
					"output":86
				},
				{
					"input":148,
					"interpolation":"LINEAR",
					"output":191
				},
				{
					"input":148,
					"interpolation":"LINEAR",
					"output":192
				},
				{
					"input":147,
					"interpolation":"STEP",
					"output":89
				}
			]
		},
		{
			"channels":[
				{
					"sampler":0,
					"target":{
						"node":21,
						"path":"translation"
					}
				},
				{
					"sampler":1,
					"target":{
						"node":21,
						"path":"rotation"
					}
				},
				{
					"sampler":2,
					"target":{
						"node":21,
						"path":"scale"
					}
				},
				{
					"sampler":3,
					"target":{
						"node":1,
						"path":"translation"
					}
				},
				{
					"sampler":4,
					"target":{
						"node":1,
						"path":"rotation"
					}
				},
				{
					"sampler":5,
					"target":{
						"node":1,
						"path":"scale"
					}
				},
				{
					"sampler":6,
					"target":{
						"node":0,
						"path":"translation"
					}
				},
				{
					"sampler":7,
					"target":{
						"node":0,
						"path":"rotation"
					}
				},
				{
					"sampler":8,
					"target":{
						"node":0,
						"path":"scale"
					}
				},
				{
					"sampler":9,
					"target":{
						"node":18,
						"path":"translation"
					}
				},
				{
					"sampler":10,
					"target":{
						"node":18,
						"path":"rotation"
					}
				},
				{
					"sampler":11,
					"target":{
						"node":18,
						"path":"scale"
					}
				},
				{
					"sampler":12,
					"target":{
						"node":17,
						"path":"translation"
					}
				},
				{
					"sampler":13,
					"target":{
						"node":17,
						"path":"rotation"
					}
				},
				{
					"sampler":14,
					"target":{
						"node":17,
						"path":"scale"
					}
				},
				{
					"sampler":15,
					"target":{
						"node":4,
						"path":"translation"
					}
				},
				{
					"sampler":16,
					"target":{
						"node":4,
						"path":"rotation"
					}
				},
				{
					"sampler":17,
					"target":{
						"node":4,
						"path":"scale"
					}
				},
				{
					"sampler":18,
					"target":{
						"node":3,
						"path":"translation"
					}
				},
				{
					"sampler":19,
					"target":{
						"node":3,
						"path":"rotation"
					}
				},
				{
					"sampler":20,
					"target":{
						"node":3,
						"path":"scale"
					}
				},
				{
					"sampler":21,
					"target":{
						"node":2,
						"path":"translation"
					}
				},
				{
					"sampler":22,
					"target":{
						"node":2,
						"path":"rotation"
					}
				},
				{
					"sampler":23,
					"target":{
						"node":2,
						"path":"scale"
					}
				},
				{
					"sampler":24,
					"target":{
						"node":8,
						"path":"translation"
					}
				},
				{
					"sampler":25,
					"target":{
						"node":8,
						"path":"rotation"
					}
				},
				{
					"sampler":26,
					"target":{
						"node":8,
						"path":"scale"
					}
				},
				{
					"sampler":27,
					"target":{
						"node":7,
						"path":"translation"
					}
				},
				{
					"sampler":28,
					"target":{
						"node":7,
						"path":"rotation"
					}
				},
				{
					"sampler":29,
					"target":{
						"node":7,
						"path":"scale"
					}
				},
				{
					"sampler":30,
					"target":{
						"node":6,
						"path":"translation"
					}
				},
				{
					"sampler":31,
					"target":{
						"node":6,
						"path":"rotation"
					}
				},
				{
					"sampler":32,
					"target":{
						"node":6,
						"path":"scale"
					}
				},
				{
					"sampler":33,
					"target":{
						"node":5,
						"path":"translation"
					}
				},
				{
					"sampler":34,
					"target":{
						"node":5,
						"path":"rotation"
					}
				},
				{
					"sampler":35,
					"target":{
						"node":5,
						"path":"scale"
					}
				},
				{
					"sampler":36,
					"target":{
						"node":12,
						"path":"translation"
					}
				},
				{
					"sampler":37,
					"target":{
						"node":12,
						"path":"rotation"
					}
				},
				{
					"sampler":38,
					"target":{
						"node":12,
						"path":"scale"
					}
				},
				{
					"sampler":39,
					"target":{
						"node":11,
						"path":"translation"
					}
				},
				{
					"sampler":40,
					"target":{
						"node":11,
						"path":"rotation"
					}
				},
				{
					"sampler":41,
					"target":{
						"node":11,
						"path":"scale"
					}
				},
				{
					"sampler":42,
					"target":{
						"node":10,
						"path":"translation"
					}
				},
				{
					"sampler":43,
					"target":{
						"node":10,
						"path":"rotation"
					}
				},
				{
					"sampler":44,
					"target":{
						"node":10,
						"path":"scale"
					}
				},
				{
					"sampler":45,
					"target":{
						"node":9,
						"path":"translation"
					}
				},
				{
					"sampler":46,
					"target":{
						"node":9,
						"path":"rotation"
					}
				},
				{
					"sampler":47,
					"target":{
						"node":9,
						"path":"scale"
					}
				},
				{
					"sampler":48,
					"target":{
						"node":16,
						"path":"translation"
					}
				},
				{
					"sampler":49,
					"target":{
						"node":16,
						"path":"rotation"
					}
				},
				{
					"sampler":50,
					"target":{
						"node":16,
						"path":"scale"
					}
				},
				{
					"sampler":51,
					"target":{
						"node":15,
						"path":"translation"
					}
				},
				{
					"sampler":52,
					"target":{
						"node":15,
						"path":"rotation"
					}
				},
				{
					"sampler":53,
					"target":{
						"node":15,
						"path":"scale"
					}
				},
				{
					"sampler":54,
					"target":{
						"node":14,
						"path":"translation"
					}
				},
				{
					"sampler":55,
					"target":{
						"node":14,
						"path":"rotation"
					}
				},
				{
					"sampler":56,
					"target":{
						"node":14,
						"path":"scale"
					}
				},
				{
					"sampler":57,
					"target":{
						"node":13,
						"path":"translation"
					}
				},
				{
					"sampler":58,
					"target":{
						"node":13,
						"path":"rotation"
					}
				},
				{
					"sampler":59,
					"target":{
						"node":13,
						"path":"scale"
					}
				},
				{
					"sampler":60,
					"target":{
						"node":20,
						"path":"translation"
					}
				},
				{
					"sampler":61,
					"target":{
						"node":20,
						"path":"rotation"
					}
				},
				{
					"sampler":62,
					"target":{
						"node":20,
						"path":"scale"
					}
				},
				{
					"sampler":63,
					"target":{
						"node":19,
						"path":"translation"
					}
				},
				{
					"sampler":64,
					"target":{
						"node":19,
						"path":"rotation"
					}
				},
				{
					"sampler":65,
					"target":{
						"node":19,
						"path":"scale"
					}
				}
			],
			"name":"\u7e26\u632f\u308a\u4e0b\u308d\u3057",
			"samplers":[
				{
					"input":193,
					"interpolation":"STEP",
					"output":26
				},
				{
					"input":193,
					"interpolation":"STEP",
					"output":27
				},
				{
					"input":193,
					"interpolation":"STEP",
					"output":28
				},
				{
					"input":193,
					"interpolation":"STEP",
					"output":29
				},
				{
					"input":193,
					"interpolation":"STEP",
					"output":30
				},
				{
					"input":193,
					"interpolation":"STEP",
					"output":31
				},
				{
					"input":193,
					"interpolation":"STEP",
					"output":32
				},
				{
					"input":193,
					"interpolation":"STEP",
					"output":33
				},
				{
					"input":193,
					"interpolation":"STEP",
					"output":34
				},
				{
					"input":193,
					"interpolation":"STEP",
					"output":35
				},
				{
					"input":193,
					"interpolation":"STEP",
					"output":36
				},
				{
					"input":193,
					"interpolation":"STEP",
					"output":34
				},
				{
					"input":193,
					"interpolation":"STEP",
					"output":194
				},
				{
					"input":193,
					"interpolation":"STEP",
					"output":195
				},
				{
					"input":193,
					"interpolation":"STEP",
					"output":151
				},
				{
					"input":193,
					"interpolation":"STEP",
					"output":152
				},
				{
					"input":193,
					"interpolation":"STEP",
					"output":153
				},
				{
					"input":193,
					"interpolation":"STEP",
					"output":43
				},
				{
					"input":193,
					"interpolation":"STEP",
					"output":154
				},
				{
					"input":193,
					"interpolation":"STEP",
					"output":105
				},
				{
					"input":193,
					"interpolation":"STEP",
					"output":155
				},
				{
					"input":193,
					"interpolation":"STEP",
					"output":156
				},
				{
					"input":193,
					"interpolation":"STEP",
					"output":157
				},
				{
					"input":193,
					"interpolation":"STEP",
					"output":121
				},
				{
					"input":193,
					"interpolation":"STEP",
					"output":158
				},
				{
					"input":193,
					"interpolation":"STEP",
					"output":159
				},
				{
					"input":193,
					"interpolation":"STEP",
					"output":43
				},
				{
					"input":193,
					"interpolation":"STEP",
					"output":160
				},
				{
					"input":193,
					"interpolation":"STEP",
					"output":161
				},
				{
					"input":193,
					"interpolation":"STEP",
					"output":162
				},
				{
					"input":193,
					"interpolation":"STEP",
					"output":163
				},
				{
					"input":193,
					"interpolation":"STEP",
					"output":164
				},
				{
					"input":193,
					"interpolation":"STEP",
					"output":165
				},
				{
					"input":193,
					"interpolation":"STEP",
					"output":166
				},
				{
					"input":193,
					"interpolation":"STEP",
					"output":167
				},
				{
					"input":193,
					"interpolation":"STEP",
					"output":168
				},
				{
					"input":193,
					"interpolation":"STEP",
					"output":169
				},
				{
					"input":193,
					"interpolation":"STEP",
					"output":170
				},
				{
					"input":193,
					"interpolation":"STEP",
					"output":43
				},
				{
					"input":193,
					"interpolation":"STEP",
					"output":171
				},
				{
					"input":193,
					"interpolation":"STEP",
					"output":172
				},
				{
					"input":193,
					"interpolation":"STEP",
					"output":173
				},
				{
					"input":193,
					"interpolation":"STEP",
					"output":174
				},
				{
					"input":193,
					"interpolation":"STEP",
					"output":175
				},
				{
					"input":193,
					"interpolation":"STEP",
					"output":176
				},
				{
					"input":193,
					"interpolation":"STEP",
					"output":177
				},
				{
					"input":193,
					"interpolation":"STEP",
					"output":178
				},
				{
					"input":193,
					"interpolation":"STEP",
					"output":179
				},
				{
					"input":193,
					"interpolation":"STEP",
					"output":180
				},
				{
					"input":193,
					"interpolation":"STEP",
					"output":181
				},
				{
					"input":193,
					"interpolation":"STEP",
					"output":182
				},
				{
					"input":193,
					"interpolation":"STEP",
					"output":183
				},
				{
					"input":193,
					"interpolation":"STEP",
					"output":184
				},
				{
					"input":193,
					"interpolation":"STEP",
					"output":55
				},
				{
					"input":193,
					"interpolation":"STEP",
					"output":185
				},
				{
					"input":193,
					"interpolation":"STEP",
					"output":186
				},
				{
					"input":193,
					"interpolation":"STEP",
					"output":187
				},
				{
					"input":193,
					"interpolation":"STEP",
					"output":188
				},
				{
					"input":193,
					"interpolation":"STEP",
					"output":189
				},
				{
					"input":193,
					"interpolation":"STEP",
					"output":190
				},
				{
					"input":193,
					"interpolation":"STEP",
					"output":84
				},
				{
					"input":193,
					"interpolation":"STEP",
					"output":85
				},
				{
					"input":193,
					"interpolation":"STEP",
					"output":86
				},
				{
					"input":196,
					"interpolation":"LINEAR",
					"output":197
				},
				{
					"input":196,
					"interpolation":"LINEAR",
					"output":198
				},
				{
					"input":193,
					"interpolation":"STEP",
					"output":89
				}
			]
		}
	],
	"materials":[
		{
			"doubleSided":true,
			"name":"\u30de\u30c6\u30ea\u30a2\u30eb",
			"pbrMetallicRoughness":{
				"baseColorTexture":{
					"index":0
				},
				"metallicFactor":0,
				"roughnessFactor":0.5
			}
		},
		{
			"doubleSided":true,
			"name":"Material.001",
			"pbrMetallicRoughness":{
				"baseColorFactor":[
					0.800000011920929,
					0.800000011920929,
					0.800000011920929,
					1
				],
				"metallicFactor":0,
				"roughnessFactor":0.5
			}
		},
		{
			"doubleSided":true,
			"name":"DefaultMaterial",
			"pbrMetallicRoughness":{
				"metallicFactor":0,
				"roughnessFactor":0.5
			}
		}
	],
	"meshes":[
		{
			"name":"\u7403",
			"primitives":[
				{
					"attributes":{
						"POSITION":0,
						"NORMAL":1,
						"TEXCOORD_0":2,
						"TEXCOORD_1":3,
						"COLOR_0":4,
						"JOINTS_0":5,
						"WEIGHTS_0":6
					},
					"indices":7,
					"material":0
				},
				{
					"attributes":{
						"POSITION":8,
						"NORMAL":9,
						"TEXCOORD_0":10,
						"TEXCOORD_1":11,
						"COLOR_0":12,
						"JOINTS_0":13,
						"WEIGHTS_0":14
					},
					"indices":15,
					"material":1
				},
				{
					"attributes":{
						"POSITION":16,
						"NORMAL":17,
						"TEXCOORD_0":18,
						"TEXCOORD_1":19,
						"COLOR_0":20,
						"JOINTS_0":21,
						"WEIGHTS_0":22
					},
					"indices":23,
					"material":2
				}
			]
		}
	],
	"textures":[
		{
			"sampler":0,
			"source":0
		}
	],
	"images":[
		{
			"mimeType":"image/png",
			"name":"bossBody",
			"uri":"bossBody.png"
		}
	],
	"skins":[
		{
			"inverseBindMatrices":24,
			"joints":[
				21,
				1,
				0,
				18,
				17,
				4,
				3,
				2,
				8,
				7,
				6,
				5,
				12,
				11,
				10,
				9,
				16,
				15,
				14,
				13,
				20,
				19
			],
			"name":"\u30a2\u30fc\u30de\u30c1\u30e5\u30a2"
		}
	],
	"accessors":[
		{
			"bufferView":0,
			"componentType":5126,
			"count":2162,
			"max":[
				0.7999997735023499,
				5.556777477264404,
				0.7999995350837708
			],
			"min":[
				-0.7999992370605469,
				3.956777572631836,
				-0.7999998331069946
			],
			"type":"VEC3"
		},
		{
			"bufferView":1,
			"componentType":5126,
			"count":2162,
			"type":"VEC3"
		},
		{
			"bufferView":2,
			"componentType":5126,
			"count":2162,
			"type":"VEC2"
		},
		{
			"bufferView":3,
			"componentType":5126,
			"count":2162,
			"type":"VEC2"
		},
		{
			"bufferView":4,
			"componentType":5126,
			"count":2162,
			"type":"VEC3"
		},
		{
			"bufferView":5,
			"componentType":5121,
			"count":2162,
			"type":"VEC4"
		},
		{
			"bufferView":6,
			"componentType":5126,
			"count":2162,
			"type":"VEC4"
		},
		{
			"bufferView":7,
			"componentType":5123,
			"count":2880,
			"type":"SCALAR"
		},
		{
			"bufferView":8,
			"componentType":5126,
			"count":36,
			"max":[
				0.7419063448905945,
				3.9999992847442627,
				1.0000001192092896
			],
			"min":[
				-0.7419063448905945,
				-5.170046506464132e-07,
				-1
			],
			"type":"VEC3"
		},
		{
			"bufferView":9,
			"componentType":5126,
			"count":36,
			"type":"VEC3"
		},
		{
			"bufferView":10,
			"componentType":5126,
			"count":36,
			"type":"VEC2"
		},
		{
			"bufferView":11,
			"componentType":5126,
			"count":36,
			"type":"VEC2"
		},
		{
			"bufferView":12,
			"componentType":5126,
			"count":36,
			"type":"VEC3"
		},
		{
			"bufferView":13,
			"componentType":5121,
			"count":36,
			"type":"VEC4"
		},
		{
			"bufferView":14,
			"componentType":5126,
			"count":36,
			"type":"VEC4"
		},
		{
			"bufferView":15,
			"componentType":5123,
			"count":60,
			"type":"SCALAR"
		},
		{
			"bufferView":16,
			"componentType":5126,
			"count":568,
			"max":[
				1.2170542478561401,
				12.724727630615234,
				4.004528522491455
			],
			"min":[
				-0.19360560178756714,
				2.036104917526245,
				-3.782564401626587
			],
			"type":"VEC3"
		},
		{
			"bufferView":17,
			"componentType":5126,
			"count":568,
			"type":"VEC3"
		},
		{
			"bufferView":18,
			"componentType":5126,
			"count":568,
			"type":"VEC2"
		},
		{
			"bufferView":19,
			"componentType":5126,
			"count":568,
			"type":"VEC2"
		},
		{
			"bufferView":20,
			"componentType":5126,
			"count":568,
			"type":"VEC3"
		},
		{
			"bufferView":21,
			"componentType":5121,
			"count":568,
			"type":"VEC4"
		},
		{
			"bufferView":22,
			"componentType":5126,
			"count":568,
			"type":"VEC4"
		},
		{
			"bufferView":23,
			"componentType":5123,
			"count":1008,
			"type":"SCALAR"
		},
		{
			"bufferView":24,
			"componentType":5126,
			"count":22,
			"type":"MAT4"
		},
		{
			"bufferView":25,
			"componentType":5126,
			"count":2,
			"max":[
				10.416666666666666
			],
			"min":[
				0.041666666666666664
			],
			"type":"SCALAR"
		},
		{
			"bufferView":26,
			"componentType":5126,
			"count":2,
			"type":"VEC3"
		},
		{
			"bufferView":27,
			"componentType":5126,
			"count":2,
			"type":"VEC4"
		},
		{
			"bufferView":28,
			"componentType":5126,
			"count":2,
			"type":"VEC3"
		},
		{
			"bufferView":29,
			"componentType":5126,
			"count":2,
			"type":"VEC3"
		},
		{
			"bufferView":30,
			"componentType":5126,
			"count":2,
			"type":"VEC4"
		},
		{
			"bufferView":31,
			"componentType":5126,
			"count":2,
			"type":"VEC3"
		},
		{
			"bufferView":32,
			"componentType":5126,
			"count":2,
			"type":"VEC3"
		},
		{
			"bufferView":33,
			"componentType":5126,
			"count":2,
			"type":"VEC4"
		},
		{
			"bufferView":34,
			"componentType":5126,
			"count":2,
			"type":"VEC3"
		},
		{
			"bufferView":35,
			"componentType":5126,
			"count":2,
			"type":"VEC3"
		},
		{
			"bufferView":36,
			"componentType":5126,
			"count":2,
			"type":"VEC4"
		},
		{
			"bufferView":37,
			"componentType":5126,
			"count":250,
			"max":[
				10.416666666666666
			],
			"min":[
				0.041666666666666664
			],
			"type":"SCALAR"
		},
		{
			"bufferView":38,
			"componentType":5126,
			"count":250,
			"type":"VEC3"
		},
		{
			"bufferView":39,
			"componentType":5126,
			"count":250,
			"type":"VEC4"
		},
		{
			"bufferView":40,
			"componentType":5126,
			"count":2,
			"type":"VEC3"
		},
		{
			"bufferView":41,
			"componentType":5126,
			"count":2,
			"type":"VEC3"
		},
		{
			"bufferView":42,
			"componentType":5126,
			"count":2,
			"type":"VEC4"
		},
		{
			"bufferView":43,
			"componentType":5126,
			"count":2,
			"type":"VEC3"
		},
		{
			"bufferView":44,
			"componentType":5126,
			"count":2,
			"type":"VEC3"
		},
		{
			"bufferView":45,
			"componentType":5126,
			"count":2,
			"type":"VEC4"
		},
		{
			"bufferView":46,
			"componentType":5126,
			"count":2,
			"type":"VEC3"
		},
		{
			"bufferView":47,
			"componentType":5126,
			"count":2,
			"type":"VEC3"
		},
		{
			"bufferView":48,
			"componentType":5126,
			"count":2,
			"type":"VEC4"
		},
		{
			"bufferView":49,
			"componentType":5126,
			"count":2,
			"type":"VEC3"
		},
		{
			"bufferView":50,
			"componentType":5126,
			"count":2,
			"type":"VEC3"
		},
		{
			"bufferView":51,
			"componentType":5126,
			"count":2,
			"type":"VEC4"
		},
		{
			"bufferView":52,
			"componentType":5126,
			"count":2,
			"type":"VEC3"
		},
		{
			"bufferView":53,
			"componentType":5126,
			"count":2,
			"type":"VEC3"
		},
		{
			"bufferView":54,
			"componentType":5126,
			"count":2,
			"type":"VEC4"
		},
		{
			"bufferView":55,
			"componentType":5126,
			"count":2,
			"type":"VEC3"
		},
		{
			"bufferView":56,
			"componentType":5126,
			"count":2,
			"type":"VEC3"
		},
		{
			"bufferView":57,
			"componentType":5126,
			"count":2,
			"type":"VEC4"
		},
		{
			"bufferView":58,
			"componentType":5126,
			"count":2,
			"type":"VEC3"
		},
		{
			"bufferView":59,
			"componentType":5126,
			"count":2,
			"type":"VEC3"
		},
		{
			"bufferView":60,
			"componentType":5126,
			"count":2,
			"type":"VEC4"
		},
		{
			"bufferView":61,
			"componentType":5126,
			"count":2,
			"type":"VEC3"
		},
		{
			"bufferView":62,
			"componentType":5126,
			"count":2,
			"type":"VEC3"
		},
		{
			"bufferView":63,
			"componentType":5126,
			"count":2,
			"type":"VEC4"
		},
		{
			"bufferView":64,
			"componentType":5126,
			"count":2,
			"type":"VEC3"
		},
		{
			"bufferView":65,
			"componentType":5126,
			"count":2,
			"type":"VEC4"
		},
		{
			"bufferView":66,
			"componentType":5126,
			"count":2,
			"type":"VEC3"
		},
		{
			"bufferView":67,
			"componentType":5126,
			"count":2,
			"type":"VEC3"
		},
		{
			"bufferView":68,
			"componentType":5126,
			"count":2,
			"type":"VEC4"
		},
		{
			"bufferView":69,
			"componentType":5126,
			"count":2,
			"type":"VEC3"
		},
		{
			"bufferView":70,
			"componentType":5126,
			"count":2,
			"type":"VEC3"
		},
		{
			"bufferView":71,
			"componentType":5126,
			"count":2,
			"type":"VEC4"
		},
		{
			"bufferView":72,
			"componentType":5126,
			"count":2,
			"type":"VEC3"
		},
		{
			"bufferView":73,
			"componentType":5126,
			"count":2,
			"type":"VEC4"
		},
		{
			"bufferView":74,
			"componentType":5126,
			"count":2,
			"type":"VEC3"
		},
		{
			"bufferView":75,
			"componentType":5126,
			"count":2,
			"type":"VEC3"
		},
		{
			"bufferView":76,
			"componentType":5126,
			"count":2,
			"type":"VEC4"
		},
		{
			"bufferView":77,
			"componentType":5126,
			"count":2,
			"type":"VEC3"
		},
		{
			"bufferView":78,
			"componentType":5126,
			"count":2,
			"type":"VEC3"
		},
		{
			"bufferView":79,
			"componentType":5126,
			"count":2,
			"type":"VEC4"
		},
		{
			"bufferView":80,
			"componentType":5126,
			"count":2,
			"type":"VEC3"
		},
		{
			"bufferView":81,
			"componentType":5126,
			"count":2,
			"type":"VEC3"
		},
		{
			"bufferView":82,
			"componentType":5126,
			"count":2,
			"type":"VEC4"
		},
		{
			"bufferView":83,
			"componentType":5126,
			"count":2,
			"type":"VEC3"
		},
		{
			"bufferView":84,
			"componentType":5126,
			"count":2,
			"type":"VEC3"
		},
		{
			"bufferView":85,
			"componentType":5126,
			"count":2,
			"type":"VEC4"
		},
		{
			"bufferView":86,
			"componentType":5126,
			"count":2,
			"type":"VEC3"
		},
		{
			"bufferView":87,
			"componentType":5126,
			"count":250,
			"type":"VEC3"
		},
		{
			"bufferView":88,
			"componentType":5126,
			"count":250,
			"type":"VEC4"
		},
		{
			"bufferView":89,
			"componentType":5126,
			"count":2,
			"type":"VEC3"
		},
		{
			"bufferView":90,
			"componentType":5126,
			"count":2,
			"type":"VEC3"
		},
		{
			"bufferView":91,
			"componentType":5126,
			"count":2,
			"type":"VEC3"
		},
		{
			"bufferView":92,
			"componentType":5126,
			"count":2,
			"type":"VEC3"
		},
		{
			"bufferView":93,
			"componentType":5126,
			"count":2,
			"type":"VEC4"
		},
		{
			"bufferView":94,
			"componentType":5126,
			"count":2,
			"type":"VEC3"
		},
		{
			"bufferView":95,
			"componentType":5126,
			"count":2,
			"type":"VEC4"
		},
		{
			"bufferView":96,
			"componentType":5126,
			"count":2,
			"type":"VEC3"
		},
		{
			"bufferView":97,
			"componentType":5126,
			"count":2,
			"type":"VEC3"
		},
		{
			"bufferView":98,
			"componentType":5126,
			"count":2,
			"type":"VEC4"
		},
		{
			"bufferView":99,
			"componentType":5126,
			"count":250,
			"type":"VEC3"
		},
		{
			"bufferView":100,
			"componentType":5126,
			"count":250,
			"type":"VEC4"
		},
		{
			"bufferView":101,
			"componentType":5126,
			"count":2,
			"type":"VEC3"
		},
		{
			"bufferView":102,
			"componentType":5126,
			"count":2,
			"type":"VEC4"
		},
		{
			"bufferView":103,
			"componentType":5126,
			"count":2,
			"type":"VEC3"
		},
		{
			"bufferView":104,
			"componentType":5126,
			"count":2,
			"type":"VEC3"
		},
		{
			"bufferView":105,
			"componentType":5126,
			"count":2,
			"type":"VEC4"
		},
		{
			"bufferView":106,
			"componentType":5126,
			"count":2,
			"type":"VEC3"
		},
		{
			"bufferView":107,
			"componentType":5126,
			"count":2,
			"type":"VEC3"
		},
		{
			"bufferView":108,
			"componentType":5126,
			"count":2,
			"type":"VEC4"
		},
		{
			"bufferView":109,
			"componentType":5126,
			"count":2,
			"type":"VEC3"
		},
		{
			"bufferView":110,
			"componentType":5126,
			"count":2,
			"type":"VEC3"
		},
		{
			"bufferView":111,
			"componentType":5126,
			"count":2,
			"type":"VEC4"
		},
		{
			"bufferView":112,
			"componentType":5126,
			"count":2,
			"type":"VEC3"
		},
		{
			"bufferView":113,
			"componentType":5126,
			"count":2,
			"type":"VEC3"
		},
		{
			"bufferView":114,
			"componentType":5126,
			"count":2,
			"type":"VEC4"
		},
		{
			"bufferView":115,
			"componentType":5126,
			"count":2,
			"type":"VEC3"
		},
		{
			"bufferView":116,
			"componentType":5126,
			"count":2,
			"type":"VEC3"
		},
		{
			"bufferView":117,
			"componentType":5126,
			"count":2,
			"type":"VEC4"
		},
		{
			"bufferView":118,
			"componentType":5126,
			"count":2,
			"type":"VEC3"
		},
		{
			"bufferView":119,
			"componentType":5126,
			"count":2,
			"type":"VEC3"
		},
		{
			"bufferView":120,
			"componentType":5126,
			"count":2,
			"type":"VEC4"
		},
		{
			"bufferView":121,
			"componentType":5126,
			"count":2,
			"type":"VEC3"
		},
		{
			"bufferView":122,
			"componentType":5126,
			"count":2,
			"type":"VEC3"
		},
		{
			"bufferView":123,
			"componentType":5126,
			"count":2,
			"type":"VEC4"
		},
		{
			"bufferView":124,
			"componentType":5126,
			"count":2,
			"type":"VEC3"
		},
		{
			"bufferView":125,
			"componentType":5126,
			"count":2,
			"type":"VEC4"
		},
		{
			"bufferView":126,
			"componentType":5126,
			"count":2,
			"type":"VEC3"
		},
		{
			"bufferView":127,
			"componentType":5126,
			"count":2,
			"type":"VEC3"
		},
		{
			"bufferView":128,
			"componentType":5126,
			"count":2,
			"type":"VEC4"
		},
		{
			"bufferView":129,
			"componentType":5126,
			"count":2,
			"type":"VEC3"
		},
		{
			"bufferView":130,
			"componentType":5126,
			"count":2,
			"type":"VEC3"
		},
		{
			"bufferView":131,
			"componentType":5126,
			"count":2,
			"type":"VEC4"
		},
		{
			"bufferView":132,
			"componentType":5126,
			"count":2,
			"type":"VEC3"
		},
		{
			"bufferView":133,
			"componentType":5126,
			"count":2,
			"type":"VEC4"
		},
		{
			"bufferView":134,
			"componentType":5126,
			"count":2,
			"type":"VEC3"
		},
		{
			"bufferView":135,
			"componentType":5126,
			"count":2,
			"type":"VEC4"
		},
		{
			"bufferView":136,
			"componentType":5126,
			"count":2,
			"type":"VEC3"
		},
		{
			"bufferView":137,
			"componentType":5126,
			"count":2,
			"type":"VEC4"
		},
		{
			"bufferView":138,
			"componentType":5126,
			"count":2,
			"type":"VEC3"
		},
		{
			"bufferView":139,
			"componentType":5126,
			"count":2,
			"type":"VEC3"
		},
		{
			"bufferView":140,
			"componentType":5126,
			"count":2,
			"type":"VEC4"
		},
		{
			"bufferView":141,
			"componentType":5126,
			"count":2,
			"type":"VEC3"
		},
		{
			"bufferView":142,
			"componentType":5126,
			"count":2,
			"type":"VEC3"
		},
		{
			"bufferView":143,
			"componentType":5126,
			"count":2,
			"type":"VEC4"
		},
		{
			"bufferView":144,
			"componentType":5126,
			"count":250,
			"type":"VEC3"
		},
		{
			"bufferView":145,
			"componentType":5126,
			"count":250,
			"type":"VEC4"
		},
		{
			"bufferView":146,
			"componentType":5126,
			"count":2,
			"type":"VEC3"
		},
		{
			"bufferView":147,
			"componentType":5126,
			"count":2,
			"max":[
				2.5
			],
			"min":[
				0.041666666666666664
			],
			"type":"SCALAR"
		},
		{
			"bufferView":148,
			"componentType":5126,
			"count":60,
			"max":[
				2.5
			],
			"min":[
				0.041666666666666664
			],
			"type":"SCALAR"
		},
		{
			"bufferView":149,
			"componentType":5126,
			"count":60,
			"type":"VEC3"
		},
		{
			"bufferView":150,
			"componentType":5126,
			"count":60,
			"type":"VEC4"
		},
		{
			"bufferView":151,
			"componentType":5126,
			"count":2,
			"type":"VEC3"
		},
		{
			"bufferView":152,
			"componentType":5126,
			"count":2,
			"type":"VEC3"
		},
		{
			"bufferView":153,
			"componentType":5126,
			"count":2,
			"type":"VEC4"
		},
		{
			"bufferView":154,
			"componentType":5126,
			"count":2,
			"type":"VEC3"
		},
		{
			"bufferView":155,
			"componentType":5126,
			"count":2,
			"type":"VEC3"
		},
		{
			"bufferView":156,
			"componentType":5126,
			"count":2,
			"type":"VEC3"
		},
		{
			"bufferView":157,
			"componentType":5126,
			"count":2,
			"type":"VEC4"
		},
		{
			"bufferView":158,
			"componentType":5126,
			"count":2,
			"type":"VEC3"
		},
		{
			"bufferView":159,
			"componentType":5126,
			"count":2,
			"type":"VEC4"
		},
		{
			"bufferView":160,
			"componentType":5126,
			"count":2,
			"type":"VEC3"
		},
		{
			"bufferView":161,
			"componentType":5126,
			"count":2,
			"type":"VEC4"
		},
		{
			"bufferView":162,
			"componentType":5126,
			"count":2,
			"type":"VEC3"
		},
		{
			"bufferView":163,
			"componentType":5126,
			"count":2,
			"type":"VEC3"
		},
		{
			"bufferView":164,
			"componentType":5126,
			"count":2,
			"type":"VEC4"
		},
		{
			"bufferView":165,
			"componentType":5126,
			"count":2,
			"type":"VEC3"
		},
		{
			"bufferView":166,
			"componentType":5126,
			"count":2,
			"type":"VEC3"
		},
		{
			"bufferView":167,
			"componentType":5126,
			"count":2,
			"type":"VEC4"
		},
		{
			"bufferView":168,
			"componentType":5126,
			"count":2,
			"type":"VEC3"
		},
		{
			"bufferView":169,
			"componentType":5126,
			"count":2,
			"type":"VEC3"
		},
		{
			"bufferView":170,
			"componentType":5126,
			"count":2,
			"type":"VEC4"
		},
		{
			"bufferView":171,
			"componentType":5126,
			"count":2,
			"type":"VEC3"
		},
		{
			"bufferView":172,
			"componentType":5126,
			"count":2,
			"type":"VEC4"
		},
		{
			"bufferView":173,
			"componentType":5126,
			"count":2,
			"type":"VEC3"
		},
		{
			"bufferView":174,
			"componentType":5126,
			"count":2,
			"type":"VEC3"
		},
		{
			"bufferView":175,
			"componentType":5126,
			"count":2,
			"type":"VEC4"
		},
		{
			"bufferView":176,
			"componentType":5126,
			"count":2,
			"type":"VEC3"
		},
		{
			"bufferView":177,
			"componentType":5126,
			"count":2,
			"type":"VEC3"
		},
		{
			"bufferView":178,
			"componentType":5126,
			"count":2,
			"type":"VEC4"
		},
		{
			"bufferView":179,
			"componentType":5126,
			"count":2,
			"type":"VEC3"
		},
		{
			"bufferView":180,
			"componentType":5126,
			"count":2,
			"type":"VEC3"
		},
		{
			"bufferView":181,
			"componentType":5126,
			"count":2,
			"type":"VEC4"
		},
		{
			"bufferView":182,
			"componentType":5126,
			"count":2,
			"type":"VEC3"
		},
		{
			"bufferView":183,
			"componentType":5126,
			"count":2,
			"type":"VEC3"
		},
		{
			"bufferView":184,
			"componentType":5126,
			"count":2,
			"type":"VEC4"
		},
		{
			"bufferView":185,
			"componentType":5126,
			"count":2,
			"type":"VEC3"
		},
		{
			"bufferView":186,
			"componentType":5126,
			"count":2,
			"type":"VEC4"
		},
		{
			"bufferView":187,
			"componentType":5126,
			"count":2,
			"type":"VEC3"
		},
		{
			"bufferView":188,
			"componentType":5126,
			"count":2,
			"type":"VEC3"
		},
		{
			"bufferView":189,
			"componentType":5126,
			"count":2,
			"type":"VEC4"
		},
		{
			"bufferView":190,
			"componentType":5126,
			"count":2,
			"type":"VEC3"
		},
		{
			"bufferView":191,
			"componentType":5126,
			"count":60,
			"type":"VEC3"
		},
		{
			"bufferView":192,
			"componentType":5126,
			"count":60,
			"type":"VEC4"
		},
		{
			"bufferView":193,
			"componentType":5126,
			"count":2,
			"max":[
				2.0833333333333335
			],
			"min":[
				0.041666666666666664
			],
			"type":"SCALAR"
		},
		{
			"bufferView":194,
			"componentType":5126,
			"count":2,
			"type":"VEC3"
		},
		{
			"bufferView":195,
			"componentType":5126,
			"count":2,
			"type":"VEC4"
		},
		{
			"bufferView":196,
			"componentType":5126,
			"count":50,
			"max":[
				2.0833333333333335
			],
			"min":[
				0.041666666666666664
			],
			"type":"SCALAR"
		},
		{
			"bufferView":197,
			"componentType":5126,
			"count":50,
			"type":"VEC3"
		},
		{
			"bufferView":198,
			"componentType":5126,
			"count":50,
			"type":"VEC4"
		}
	],
	"bufferViews":[
		{
			"buffer":0,
			"byteLength":25944,
			"byteOffset":0,
			"target":34962
		},
		{
			"buffer":0,
			"byteLength":25944,
			"byteOffset":25944,
			"target":34962
		},
		{
			"buffer":0,
			"byteLength":17296,
			"byteOffset":51888,
			"target":34962
		},
		{
			"buffer":0,
			"byteLength":17296,
			"byteOffset":69184,
			"target":34962
		},
		{
			"buffer":0,
			"byteLength":25944,
			"byteOffset":86480,
			"target":34962
		},
		{
			"buffer":0,
			"byteLength":8648,
			"byteOffset":112424,
			"target":34962
		},
		{
			"buffer":0,
			"byteLength":34592,
			"byteOffset":121072,
			"target":34962
		},
		{
			"buffer":0,
			"byteLength":5760,
			"byteOffset":155664,
			"target":34963
		},
		{
			"buffer":0,
			"byteLength":432,
			"byteOffset":161424,
			"target":34962
		},
		{
			"buffer":0,
			"byteLength":432,
			"byteOffset":161856,
			"target":34962
		},
		{
			"buffer":0,
			"byteLength":288,
			"byteOffset":162288,
			"target":34962
		},
		{
			"buffer":0,
			"byteLength":288,
			"byteOffset":162576,
			"target":34962
		},
		{
			"buffer":0,
			"byteLength":432,
			"byteOffset":162864,
			"target":34962
		},
		{
			"buffer":0,
			"byteLength":144,
			"byteOffset":163296,
			"target":34962
		},
		{
			"buffer":0,
			"byteLength":576,
			"byteOffset":163440,
			"target":34962
		},
		{
			"buffer":0,
			"byteLength":120,
			"byteOffset":164016,
			"target":34963
		},
		{
			"buffer":0,
			"byteLength":6816,
			"byteOffset":164136,
			"target":34962
		},
		{
			"buffer":0,
			"byteLength":6816,
			"byteOffset":170952,
			"target":34962
		},
		{
			"buffer":0,
			"byteLength":4544,
			"byteOffset":177768,
			"target":34962
		},
		{
			"buffer":0,
			"byteLength":4544,
			"byteOffset":182312,
			"target":34962
		},
		{
			"buffer":0,
			"byteLength":6816,
			"byteOffset":186856,
			"target":34962
		},
		{
			"buffer":0,
			"byteLength":2272,
			"byteOffset":193672,
			"target":34962
		},
		{
			"buffer":0,
			"byteLength":9088,
			"byteOffset":195944,
			"target":34962
		},
		{
			"buffer":0,
			"byteLength":2016,
			"byteOffset":205032,
			"target":34963
		},
		{
			"buffer":0,
			"byteLength":1408,
			"byteOffset":207048
		},
		{
			"buffer":0,
			"byteLength":8,
			"byteOffset":208456
		},
		{
			"buffer":0,
			"byteLength":24,
			"byteOffset":208464
		},
		{
			"buffer":0,
			"byteLength":32,
			"byteOffset":208488
		},
		{
			"buffer":0,
			"byteLength":24,
			"byteOffset":208520
		},
		{
			"buffer":0,
			"byteLength":24,
			"byteOffset":208544
		},
		{
			"buffer":0,
			"byteLength":32,
			"byteOffset":208568
		},
		{
			"buffer":0,
			"byteLength":24,
			"byteOffset":208600
		},
		{
			"buffer":0,
			"byteLength":24,
			"byteOffset":208624
		},
		{
			"buffer":0,
			"byteLength":32,
			"byteOffset":208648
		},
		{
			"buffer":0,
			"byteLength":24,
			"byteOffset":208680
		},
		{
			"buffer":0,
			"byteLength":24,
			"byteOffset":208704
		},
		{
			"buffer":0,
			"byteLength":32,
			"byteOffset":208728
		},
		{
			"buffer":0,
			"byteLength":1000,
			"byteOffset":208760
		},
		{
			"buffer":0,
			"byteLength":3000,
			"byteOffset":209760
		},
		{
			"buffer":0,
			"byteLength":4000,
			"byteOffset":212760
		},
		{
			"buffer":0,
			"byteLength":24,
			"byteOffset":216760
		},
		{
			"buffer":0,
			"byteLength":24,
			"byteOffset":216784
		},
		{
			"buffer":0,
			"byteLength":32,
			"byteOffset":216808
		},
		{
			"buffer":0,
			"byteLength":24,
			"byteOffset":216840
		},
		{
			"buffer":0,
			"byteLength":24,
			"byteOffset":216864
		},
		{
			"buffer":0,
			"byteLength":32,
			"byteOffset":216888
		},
		{
			"buffer":0,
			"byteLength":24,
			"byteOffset":216920
		},
		{
			"buffer":0,
			"byteLength":24,
			"byteOffset":216944
		},
		{
			"buffer":0,
			"byteLength":32,
			"byteOffset":216968
		},
		{
			"buffer":0,
			"byteLength":24,
			"byteOffset":217000
		},
		{
			"buffer":0,
			"byteLength":24,
			"byteOffset":217024
		},
		{
			"buffer":0,
			"byteLength":32,
			"byteOffset":217048
		},
		{
			"buffer":0,
			"byteLength":24,
			"byteOffset":217080
		},
		{
			"buffer":0,
			"byteLength":24,
			"byteOffset":217104
		},
		{
			"buffer":0,
			"byteLength":32,
			"byteOffset":217128
		},
		{
			"buffer":0,
			"byteLength":24,
			"byteOffset":217160
		},
		{
			"buffer":0,
			"byteLength":24,
			"byteOffset":217184
		},
		{
			"buffer":0,
			"byteLength":32,
			"byteOffset":217208
		},
		{
			"buffer":0,
			"byteLength":24,
			"byteOffset":217240
		},
		{
			"buffer":0,
			"byteLength":24,
			"byteOffset":217264
		},
		{
			"buffer":0,
			"byteLength":32,
			"byteOffset":217288
		},
		{
			"buffer":0,
			"byteLength":24,
			"byteOffset":217320
		},
		{
			"buffer":0,
			"byteLength":24,
			"byteOffset":217344
		},
		{
			"buffer":0,
			"byteLength":32,
			"byteOffset":217368
		},
		{
			"buffer":0,
			"byteLength":24,
			"byteOffset":217400
		},
		{
			"buffer":0,
			"byteLength":32,
			"byteOffset":217424
		},
		{
			"buffer":0,
			"byteLength":24,
			"byteOffset":217456
		},
		{
			"buffer":0,
			"byteLength":24,
			"byteOffset":217480
		},
		{
			"buffer":0,
			"byteLength":32,
			"byteOffset":217504
		},
		{
			"buffer":0,
			"byteLength":24,
			"byteOffset":217536
		},
		{
			"buffer":0,
			"byteLength":24,
			"byteOffset":217560
		},
		{
			"buffer":0,
			"byteLength":32,
			"byteOffset":217584
		},
		{
			"buffer":0,
			"byteLength":24,
			"byteOffset":217616
		},
		{
			"buffer":0,
			"byteLength":32,
			"byteOffset":217640
		},
		{
			"buffer":0,
			"byteLength":24,
			"byteOffset":217672
		},
		{
			"buffer":0,
			"byteLength":24,
			"byteOffset":217696
		},
		{
			"buffer":0,
			"byteLength":32,
			"byteOffset":217720
		},
		{
			"buffer":0,
			"byteLength":24,
			"byteOffset":217752
		},
		{
			"buffer":0,
			"byteLength":24,
			"byteOffset":217776
		},
		{
			"buffer":0,
			"byteLength":32,
			"byteOffset":217800
		},
		{
			"buffer":0,
			"byteLength":24,
			"byteOffset":217832
		},
		{
			"buffer":0,
			"byteLength":24,
			"byteOffset":217856
		},
		{
			"buffer":0,
			"byteLength":32,
			"byteOffset":217880
		},
		{
			"buffer":0,
			"byteLength":24,
			"byteOffset":217912
		},
		{
			"buffer":0,
			"byteLength":24,
			"byteOffset":217936
		},
		{
			"buffer":0,
			"byteLength":32,
			"byteOffset":217960
		},
		{
			"buffer":0,
			"byteLength":24,
			"byteOffset":217992
		},
		{
			"buffer":0,
			"byteLength":3000,
			"byteOffset":218016
		},
		{
			"buffer":0,
			"byteLength":4000,
			"byteOffset":221016
		},
		{
			"buffer":0,
			"byteLength":24,
			"byteOffset":225016
		},
		{
			"buffer":0,
			"byteLength":24,
			"byteOffset":225040
		},
		{
			"buffer":0,
			"byteLength":24,
			"byteOffset":225064
		},
		{
			"buffer":0,
			"byteLength":24,
			"byteOffset":225088
		},
		{
			"buffer":0,
			"byteLength":32,
			"byteOffset":225112
		},
		{
			"buffer":0,
			"byteLength":24,
			"byteOffset":225144
		},
		{
			"buffer":0,
			"byteLength":32,
			"byteOffset":225168
		},
		{
			"buffer":0,
			"byteLength":24,
			"byteOffset":225200
		},
		{
			"buffer":0,
			"byteLength":24,
			"byteOffset":225224
		},
		{
			"buffer":0,
			"byteLength":32,
			"byteOffset":225248
		},
		{
			"buffer":0,
			"byteLength":3000,
			"byteOffset":225280
		},
		{
			"buffer":0,
			"byteLength":4000,
			"byteOffset":228280
		},
		{
			"buffer":0,
			"byteLength":24,
			"byteOffset":232280
		},
		{
			"buffer":0,
			"byteLength":32,
			"byteOffset":232304
		},
		{
			"buffer":0,
			"byteLength":24,
			"byteOffset":232336
		},
		{
			"buffer":0,
			"byteLength":24,
			"byteOffset":232360
		},
		{
			"buffer":0,
			"byteLength":32,
			"byteOffset":232384
		},
		{
			"buffer":0,
			"byteLength":24,
			"byteOffset":232416
		},
		{
			"buffer":0,
			"byteLength":24,
			"byteOffset":232440
		},
		{
			"buffer":0,
			"byteLength":32,
			"byteOffset":232464
		},
		{
			"buffer":0,
			"byteLength":24,
			"byteOffset":232496
		},
		{
			"buffer":0,
			"byteLength":24,
			"byteOffset":232520
		},
		{
			"buffer":0,
			"byteLength":32,
			"byteOffset":232544
		},
		{
			"buffer":0,
			"byteLength":24,
			"byteOffset":232576
		},
		{
			"buffer":0,
			"byteLength":24,
			"byteOffset":232600
		},
		{
			"buffer":0,
			"byteLength":32,
			"byteOffset":232624
		},
		{
			"buffer":0,
			"byteLength":24,
			"byteOffset":232656
		},
		{
			"buffer":0,
			"byteLength":24,
			"byteOffset":232680
		},
		{
			"buffer":0,
			"byteLength":32,
			"byteOffset":232704
		},
		{
			"buffer":0,
			"byteLength":24,
			"byteOffset":232736
		},
		{
			"buffer":0,
			"byteLength":24,
			"byteOffset":232760
		},
		{
			"buffer":0,
			"byteLength":32,
			"byteOffset":232784
		},
		{
			"buffer":0,
			"byteLength":24,
			"byteOffset":232816
		},
		{
			"buffer":0,
			"byteLength":24,
			"byteOffset":232840
		},
		{
			"buffer":0,
			"byteLength":32,
			"byteOffset":232864
		},
		{
			"buffer":0,
			"byteLength":24,
			"byteOffset":232896
		},
		{
			"buffer":0,
			"byteLength":32,
			"byteOffset":232920
		},
		{
			"buffer":0,
			"byteLength":24,
			"byteOffset":232952
		},
		{
			"buffer":0,
			"byteLength":24,
			"byteOffset":232976
		},
		{
			"buffer":0,
			"byteLength":32,
			"byteOffset":233000
		},
		{
			"buffer":0,
			"byteLength":24,
			"byteOffset":233032
		},
		{
			"buffer":0,
			"byteLength":24,
			"byteOffset":233056
		},
		{
			"buffer":0,
			"byteLength":32,
			"byteOffset":233080
		},
		{
			"buffer":0,
			"byteLength":24,
			"byteOffset":233112
		},
		{
			"buffer":0,
			"byteLength":32,
			"byteOffset":233136
		},
		{
			"buffer":0,
			"byteLength":24,
			"byteOffset":233168
		},
		{
			"buffer":0,
			"byteLength":32,
			"byteOffset":233192
		},
		{
			"buffer":0,
			"byteLength":24,
			"byteOffset":233224
		},
		{
			"buffer":0,
			"byteLength":32,
			"byteOffset":233248
		},
		{
			"buffer":0,
			"byteLength":24,
			"byteOffset":233280
		},
		{
			"buffer":0,
			"byteLength":24,
			"byteOffset":233304
		},
		{
			"buffer":0,
			"byteLength":32,
			"byteOffset":233328
		},
		{
			"buffer":0,
			"byteLength":24,
			"byteOffset":233360
		},
		{
			"buffer":0,
			"byteLength":24,
			"byteOffset":233384
		},
		{
			"buffer":0,
			"byteLength":32,
			"byteOffset":233408
		},
		{
			"buffer":0,
			"byteLength":3000,
			"byteOffset":233440
		},
		{
			"buffer":0,
			"byteLength":4000,
			"byteOffset":236440
		},
		{
			"buffer":0,
			"byteLength":24,
			"byteOffset":240440
		},
		{
			"buffer":0,
			"byteLength":8,
			"byteOffset":240464
		},
		{
			"buffer":0,
			"byteLength":240,
			"byteOffset":240472
		},
		{
			"buffer":0,
			"byteLength":720,
			"byteOffset":240712
		},
		{
			"buffer":0,
			"byteLength":960,
			"byteOffset":241432
		},
		{
			"buffer":0,
			"byteLength":24,
			"byteOffset":242392
		},
		{
			"buffer":0,
			"byteLength":24,
			"byteOffset":242416
		},
		{
			"buffer":0,
			"byteLength":32,
			"byteOffset":242440
		},
		{
			"buffer":0,
			"byteLength":24,
			"byteOffset":242472
		},
		{
			"buffer":0,
			"byteLength":24,
			"byteOffset":242496
		},
		{
			"buffer":0,
			"byteLength":24,
			"byteOffset":242520
		},
		{
			"buffer":0,
			"byteLength":32,
			"byteOffset":242544
		},
		{
			"buffer":0,
			"byteLength":24,
			"byteOffset":242576
		},
		{
			"buffer":0,
			"byteLength":32,
			"byteOffset":242600
		},
		{
			"buffer":0,
			"byteLength":24,
			"byteOffset":242632
		},
		{
			"buffer":0,
			"byteLength":32,
			"byteOffset":242656
		},
		{
			"buffer":0,
			"byteLength":24,
			"byteOffset":242688
		},
		{
			"buffer":0,
			"byteLength":24,
			"byteOffset":242712
		},
		{
			"buffer":0,
			"byteLength":32,
			"byteOffset":242736
		},
		{
			"buffer":0,
			"byteLength":24,
			"byteOffset":242768
		},
		{
			"buffer":0,
			"byteLength":24,
			"byteOffset":242792
		},
		{
			"buffer":0,
			"byteLength":32,
			"byteOffset":242816
		},
		{
			"buffer":0,
			"byteLength":24,
			"byteOffset":242848
		},
		{
			"buffer":0,
			"byteLength":24,
			"byteOffset":242872
		},
		{
			"buffer":0,
			"byteLength":32,
			"byteOffset":242896
		},
		{
			"buffer":0,
			"byteLength":24,
			"byteOffset":242928
		},
		{
			"buffer":0,
			"byteLength":32,
			"byteOffset":242952
		},
		{
			"buffer":0,
			"byteLength":24,
			"byteOffset":242984
		},
		{
			"buffer":0,
			"byteLength":24,
			"byteOffset":243008
		},
		{
			"buffer":0,
			"byteLength":32,
			"byteOffset":243032
		},
		{
			"buffer":0,
			"byteLength":24,
			"byteOffset":243064
		},
		{
			"buffer":0,
			"byteLength":24,
			"byteOffset":243088
		},
		{
			"buffer":0,
			"byteLength":32,
			"byteOffset":243112
		},
		{
			"buffer":0,
			"byteLength":24,
			"byteOffset":243144
		},
		{
			"buffer":0,
			"byteLength":24,
			"byteOffset":243168
		},
		{
			"buffer":0,
			"byteLength":32,
			"byteOffset":243192
		},
		{
			"buffer":0,
			"byteLength":24,
			"byteOffset":243224
		},
		{
			"buffer":0,
			"byteLength":24,
			"byteOffset":243248
		},
		{
			"buffer":0,
			"byteLength":32,
			"byteOffset":243272
		},
		{
			"buffer":0,
			"byteLength":24,
			"byteOffset":243304
		},
		{
			"buffer":0,
			"byteLength":32,
			"byteOffset":243328
		},
		{
			"buffer":0,
			"byteLength":24,
			"byteOffset":243360
		},
		{
			"buffer":0,
			"byteLength":24,
			"byteOffset":243384
		},
		{
			"buffer":0,
			"byteLength":32,
			"byteOffset":243408
		},
		{
			"buffer":0,
			"byteLength":24,
			"byteOffset":243440
		},
		{
			"buffer":0,
			"byteLength":720,
			"byteOffset":243464
		},
		{
			"buffer":0,
			"byteLength":960,
			"byteOffset":244184
		},
		{
			"buffer":0,
			"byteLength":8,
			"byteOffset":245144
		},
		{
			"buffer":0,
			"byteLength":24,
			"byteOffset":245152
		},
		{
			"buffer":0,
			"byteLength":32,
			"byteOffset":245176
		},
		{
			"buffer":0,
			"byteLength":200,
			"byteOffset":245208
		},
		{
			"buffer":0,
			"byteLength":600,
			"byteOffset":245408
		},
		{
			"buffer":0,
			"byteLength":800,
			"byteOffset":246008
		}
	],
	"samplers":[
		{
			"magFilter":9729,
			"minFilter":9987
		}
	],
	"buffers":[
		{
			"byteLength":246808,
			"uri":"boss.bin"
		}
	]
}
