{
	"asset":{
		"generator":"Khronos glTF Blender I/O v4.4.56",
		"version":"2.0"
	},
	"scene":0,
	"scenes":[
		{
			"name":"Scene",
			"nodes":[
				23
			]
		}
	],
	"nodes":[
		{
			"name":"\u30dc\u30fc\u30f3.002",
			"rotation":[
				0.0012917221756651998,
				-1.192091971802256e-07,
				1.539864763477894e-10,
				0.9999991655349731
			],
			"translation":[
				-1.0567760397467982e-16,
				1.951859951019287,
				4.656628416199737e-10
			]
		},
		{
			"children":[
				0
			],
			"name":"\u30dc\u30fc\u30f3.001",
			"rotation":[
				-0.0026890719309449196,
				3.659425193425214e-13,
				-6.41126207678866e-10,
				0.9999964237213135
			],
			"scale":[
				1,
				0.9999999403953552,
				0.9999999403953552
			],
			"translation":[
				-7.632783294297951e-17,
				1.8043136596679688,
				4.0745362639427185e-10
			]
		},
		{
			"name":"\u30dc\u30fc\u30f3.016",
			"rotation":[
				-1.9371509552001953e-07,
				2.2648549702353193e-13,
				-1.6107610511790875e-14,
				1
			],
			"translation":[
				-3.920741024053022e-14,
				0.7750340700149536,
				2.384185791015625e-07
			]
		},
		{
			"children":[
				2
			],
			"name":"\u30dc\u30fc\u30f3.015",
			"rotation":[
				-0.5481496453285217,
				-2.976741484417289e-07,
				-3.276794870998856e-07,
				0.8363803029060364
			],
			"scale":[
				1,
				0.9999999403953552,
				0.9999999403953552
			],
			"translation":[
				1.9765703559559283e-14,
				0.6189255714416504,
				-8.568167686462402e-08
			]
		},
		{
			"children":[
				3
			],
			"name":"\u30dc\u30fc\u30f3.014",
			"rotation":[
				0.7101231217384338,
				2.517971893212234e-07,
				4.232848311858106e-07,
				0.7040774822235107
			],
			"translation":[
				1.4880722251208595e-14,
				0.3575515151023865,
				-2.1606683731079102e-07
			]
		},
		{
			"name":"\u30dc\u30fc\u30f3.022",
			"rotation":[
				5.704351213609016e-09,
				-2.845366628943802e-14,
				1.3626264550500844e-15,
				1
			],
			"scale":[
				1,
				0.9999999403953552,
				1
			],
			"translation":[
				9.626446097503114e-14,
				0.49887821078300476,
				1.6111880540847778e-07
			]
		},
		{
			"children":[
				5
			],
			"name":"\u30dc\u30fc\u30f3.021",
			"rotation":[
				5.626620622933842e-05,
				-7.138793679459243e-15,
				1.3767091633365425e-11,
				1
			],
			"scale":[
				1,
				0.9999999403953552,
				1
			],
			"translation":[
				7.324693016832681e-14,
				0.47708141803741455,
				-6.146728992462158e-08
			]
		},
		{
			"children":[
				6
			],
			"name":"\u30dc\u30fc\u30f3.020",
			"rotation":[
				-0.22281843423843384,
				1.418684503207146e-09,
				-5.4195155030356545e-08,
				0.9748599529266357
			],
			"scale":[
				1,
				1.0000001192092896,
				1
			],
			"translation":[
				1.4224361163765742e-13,
				1.245744228363037,
				-1.1920928955078125e-07
			]
		},
		{
			"children":[
				7
			],
			"name":"\u30dc\u30fc\u30f3.017",
			"rotation":[
				0.21873287856578827,
				1.6222657661657536e-09,
				5.2519467885758786e-08,
				0.9757847785949707
			],
			"scale":[
				1,
				0.9999999403953552,
				1
			],
			"translation":[
				1.4880722251208595e-14,
				0.3575515151023865,
				-2.1606683731079102e-07
			]
		},
		{
			"name":"\u30dc\u30fc\u30f3.028",
			"rotation":[
				-9.289942681789398e-08,
				-2.850389195507841e-14,
				-2.259943195580781e-14,
				1
			],
			"translation":[
				-2.1693188017408646e-14,
				0.4609212577342987,
				2.5704503059387207e-07
			]
		},
		{
			"children":[
				9
			],
			"name":"\u30dc\u30fc\u30f3.027",
			"rotation":[
				2.3329630494117737e-07,
				2.8340394267467595e-14,
				5.709637678017604e-14,
				1
			],
			"translation":[
				-1.4150756033528417e-14,
				0.4019884467124939,
				4.842877388000488e-08
			]
		},
		{
			"children":[
				10
			],
			"name":"\u30dc\u30fc\u30f3.026",
			"rotation":[
				0.19819165766239166,
				1.2241994085115948e-09,
				4.813671949932541e-08,
				0.9801632761955261
			],
			"translation":[
				-1.5230695936223337e-14,
				1.2126528024673462,
				0
			]
		},
		{
			"children":[
				11
			],
			"name":"\u30dc\u30fc\u30f3.018",
			"rotation":[
				-0.2045900970697403,
				1.5590200241888397e-09,
				-4.9109399213875804e-08,
				0.9788477420806885
			],
			"scale":[
				1,
				1.0000001192092896,
				1
			],
			"translation":[
				1.4880722251208595e-14,
				0.3575515151023865,
				-2.1606683731079102e-07
			]
		},
		{
			"name":"\u30dc\u30fc\u30f3.025",
			"rotation":[
				1.273583620786667e-07,
				2.851343293419628e-14,
				3.043554720316005e-14,
				1
			],
			"translation":[
				7.213539254856752e-15,
				0.5007805824279785,
				-9.685754776000977e-08
			]
		},
		{
			"children":[
				13
			],
			"name":"\u30dc\u30fc\u30f3.024",
			"rotation":[
				-1.257285475730896e-08,
				-1.4119998573147718e-14,
				-2.920772254765458e-15,
				1
			],
			"translation":[
				2.418723756708336e-14,
				0.5599982738494873,
				-2.775341272354126e-07
			]
		},
		{
			"children":[
				14
			],
			"name":"\u30dc\u30fc\u30f3.023",
			"rotation":[
				-2.1047890186309814e-07,
				9.107298248878237e-17,
				-5.013313576123293e-14,
				1
			],
			"translation":[
				-4.1490489294032304e-14,
				1.0971925258636475,
				7.636845111846924e-08
			]
		},
		{
			"children":[
				15
			],
			"name":"\u30dc\u30fc\u30f3.019",
			"rotation":[
				2.9313378036022186e-07,
				9.063930161978817e-17,
				6.988212905480878e-14,
				1
			],
			"translation":[
				1.4880722251208595e-14,
				0.3575515151023865,
				-2.1606683731079102e-07
			]
		},
		{
			"children":[
				4,
				8,
				12,
				16
			],
			"name":"\u30dc\u30fc\u30f3.013",
			"rotation":[
				0.7287003993988037,
				8.16475633769187e-08,
				8.68775984486092e-08,
				0.6848326921463013
			],
			"scale":[
				1,
				1,
				0.9999999403953552
			],
			"translation":[
				7.269561336361793e-14,
				3.1122093200683594,
				0.8576492071151733
			]
		},
		{
			"children":[
				17
			],
			"name":"\u30dc\u30fc\u30f3.003",
			"rotation":[
				-0.7275084853172302,
				-8.17894232341132e-08,
				-8.67258336256782e-08,
				0.6860986948013306
			],
			"scale":[
				1,
				0.9999999403953552,
				0.9999999403953552
			],
			"translation":[
				-7.632783294297951e-17,
				1.8043136596679688,
				4.0745362639427185e-10
			]
		},
		{
			"name":"\u30dc\u30fc\u30f3.007",
			"rotation":[
				-0.03126896917819977,
				0.7066032290458679,
				-0.03128572553396225,
				0.706226110458374
			],
			"scale":[
				0.9999998807907104,
				0.9999998807907104,
				1
			],
			"translation":[
				1.4794591152167413e-06,
				1.877316951751709,
				-1.5508793592453003
			]
		},
		{
			"children":[
				19
			],
			"name":"\u30dc\u30fc\u30f3.004",
			"rotation":[
				0.7302873134613037,
				2.4440359425170755e-07,
				4.353853739758051e-07,
				0.683140218257904
			],
			"translation":[
				-7.632783294297951e-17,
				1.8043136596679688,
				4.0745362639427185e-10
			]
		},
		{
			"children":[
				1,
				18,
				20
			],
			"name":"\u30dc\u30fc\u30f3",
			"rotation":[
				0.0013973325258120894,
				1.1920928955078125e-07,
				1.6657746015891206e-10,
				0.9999990463256836
			],
			"scale":[
				1,
				0.9999999403953552,
				0.9999999403953552
			],
			"translation":[
				0,
				0.1442277878522873,
				0
			]
		},
		{
			"mesh":0,
			"name":"\u4f53",
			"skin":0
		},
		{
			"children":[
				22,
				21
			],
			"name":"\u30a2\u30fc\u30de\u30c1\u30e5\u30a2"
		}
	],
	"animations":[
		{
			"channels":[
				{
					"sampler":0,
					"target":{
						"node":21,
						"path":"translation"
					}
				},
				{
					"sampler":1,
					"target":{
						"node":21,
						"path":"rotation"
					}
				},
				{
					"sampler":2,
					"target":{
						"node":21,
						"path":"scale"
					}
				},
				{
					"sampler":3,
					"target":{
						"node":1,
						"path":"translation"
					}
				},
				{
					"sampler":4,
					"target":{
						"node":1,
						"path":"rotation"
					}
				},
				{
					"sampler":5,
					"target":{
						"node":1,
						"path":"scale"
					}
				},
				{
					"sampler":6,
					"target":{
						"node":0,
						"path":"translation"
					}
				},
				{
					"sampler":7,
					"target":{
						"node":0,
						"path":"rotation"
					}
				},
				{
					"sampler":8,
					"target":{
						"node":0,
						"path":"scale"
					}
				},
				{
					"sampler":9,
					"target":{
						"node":18,
						"path":"translation"
					}
				},
				{
					"sampler":10,
					"target":{
						"node":18,
						"path":"rotation"
					}
				},
				{
					"sampler":11,
					"target":{
						"node":18,
						"path":"scale"
					}
				},
				{
					"sampler":12,
					"target":{
						"node":17,
						"path":"translation"
					}
				},
				{
					"sampler":13,
					"target":{
						"node":17,
						"path":"rotation"
					}
				},
				{
					"sampler":14,
					"target":{
						"node":17,
						"path":"scale"
					}
				},
				{
					"sampler":15,
					"target":{
						"node":4,
						"path":"translation"
					}
				},
				{
					"sampler":16,
					"target":{
						"node":4,
						"path":"rotation"
					}
				},
				{
					"sampler":17,
					"target":{
						"node":4,
						"path":"scale"
					}
				},
				{
					"sampler":18,
					"target":{
						"node":3,
						"path":"translation"
					}
				},
				{
					"sampler":19,
					"target":{
						"node":3,
						"path":"rotation"
					}
				},
				{
					"sampler":20,
					"target":{
						"node":3,
						"path":"scale"
					}
				},
				{
					"sampler":21,
					"target":{
						"node":2,
						"path":"translation"
					}
				},
				{
					"sampler":22,
					"target":{
						"node":2,
						"path":"rotation"
					}
				},
				{
					"sampler":23,
					"target":{
						"node":2,
						"path":"scale"
					}
				},
				{
					"sampler":24,
					"target":{
						"node":8,
						"path":"translation"
					}
				},
				{
					"sampler":25,
					"target":{
						"node":8,
						"path":"rotation"
					}
				},
				{
					"sampler":26,
					"target":{
						"node":8,
						"path":"scale"
					}
				},
				{
					"sampler":27,
					"target":{
						"node":7,
						"path":"translation"
					}
				},
				{
					"sampler":28,
					"target":{
						"node":7,
						"path":"rotation"
					}
				},
				{
					"sampler":29,
					"target":{
						"node":7,
						"path":"scale"
					}
				},
				{
					"sampler":30,
					"target":{
						"node":6,
						"path":"translation"
					}
				},
				{
					"sampler":31,
					"target":{
						"node":6,
						"path":"rotation"
					}
				},
				{
					"sampler":32,
					"target":{
						"node":6,
						"path":"scale"
					}
				},
				{
					"sampler":33,
					"target":{
						"node":5,
						"path":"translation"
					}
				},
				{
					"sampler":34,
					"target":{
						"node":5,
						"path":"rotation"
					}
				},
				{
					"sampler":35,
					"target":{
						"node":5,
						"path":"scale"
					}
				},
				{
					"sampler":36,
					"target":{
						"node":12,
						"path":"translation"
					}
				},
				{
					"sampler":37,
					"target":{
						"node":12,
						"path":"rotation"
					}
				},
				{
					"sampler":38,
					"target":{
						"node":12,
						"path":"scale"
					}
				},
				{
					"sampler":39,
					"target":{
						"node":11,
						"path":"translation"
					}
				},
				{
					"sampler":40,
					"target":{
						"node":11,
						"path":"rotation"
					}
				},
				{
					"sampler":41,
					"target":{
						"node":11,
						"path":"scale"
					}
				},
				{
					"sampler":42,
					"target":{
						"node":10,
						"path":"translation"
					}
				},
				{
					"sampler":43,
					"target":{
						"node":10,
						"path":"rotation"
					}
				},
				{
					"sampler":44,
					"target":{
						"node":10,
						"path":"scale"
					}
				},
				{
					"sampler":45,
					"target":{
						"node":9,
						"path":"translation"
					}
				},
				{
					"sampler":46,
					"target":{
						"node":9,
						"path":"rotation"
					}
				},
				{
					"sampler":47,
					"target":{
						"node":9,
						"path":"scale"
					}
				},
				{
					"sampler":48,
					"target":{
						"node":16,
						"path":"translation"
					}
				},
				{
					"sampler":49,
					"target":{
						"node":16,
						"path":"rotation"
					}
				},
				{
					"sampler":50,
					"target":{
						"node":16,
						"path":"scale"
					}
				},
				{
					"sampler":51,
					"target":{
						"node":15,
						"path":"translation"
					}
				},
				{
					"sampler":52,
					"target":{
						"node":15,
						"path":"rotation"
					}
				},
				{
					"sampler":53,
					"target":{
						"node":15,
						"path":"scale"
					}
				},
				{
					"sampler":54,
					"target":{
						"node":14,
						"path":"translation"
					}
				},
				{
					"sampler":55,
					"target":{
						"node":14,
						"path":"rotation"
					}
				},
				{
					"sampler":56,
					"target":{
						"node":14,
						"path":"scale"
					}
				},
				{
					"sampler":57,
					"target":{
						"node":13,
						"path":"translation"
					}
				},
				{
					"sampler":58,
					"target":{
						"node":13,
						"path":"rotation"
					}
				},
				{
					"sampler":59,
					"target":{
						"node":13,
						"path":"scale"
					}
				},
				{
					"sampler":60,
					"target":{
						"node":20,
						"path":"translation"
					}
				},
				{
					"sampler":61,
					"target":{
						"node":20,
						"path":"rotation"
					}
				},
				{
					"sampler":62,
					"target":{
						"node":20,
						"path":"scale"
					}
				},
				{
					"sampler":63,
					"target":{
						"node":19,
						"path":"translation"
					}
				},
				{
					"sampler":64,
					"target":{
						"node":19,
						"path":"rotation"
					}
				},
				{
					"sampler":65,
					"target":{
						"node":19,
						"path":"scale"
					}
				}
			],
			"name":"\u6a2a\u8599\u304e\u6255\u3044",
			"samplers":[
				{
					"input":25,
					"interpolation":"STEP",
					"output":26
				},
				{
					"input":25,
					"interpolation":"STEP",
					"output":27
				},
				{
					"input":25,
					"interpolation":"STEP",
					"output":28
				},
				{
					"input":25,
					"interpolation":"STEP",
					"output":29
				},
				{
					"input":25,
					"interpolation":"STEP",
					"output":30
				},
				{
					"input":25,
					"interpolation":"STEP",
					"output":31
				},
				{
					"input":25,
					"interpolation":"STEP",
					"output":32
				},
				{
					"input":25,
					"interpolation":"STEP",
					"output":33
				},
				{
					"input":25,
					"interpolation":"STEP",
					"output":34
				},
				{
					"input":25,
					"interpolation":"STEP",
					"output":35
				},
				{
					"input":25,
					"interpolation":"STEP",
					"output":36
				},
				{
					"input":25,
					"interpolation":"STEP",
					"output":37
				},
				{
					"input":38,
					"interpolation":"LINEAR",
					"output":39
				},
				{
					"input":38,
					"interpolation":"LINEAR",
					"output":40
				},
				{
					"input":25,
					"interpolation":"STEP",
					"output":41
				},
				{
					"input":25,
					"interpolation":"STEP",
					"output":42
				},
				{
					"input":25,
					"interpolation":"STEP",
					"output":43
				},
				{
					"input":25,
					"interpolation":"STEP",
					"output":44
				},
				{
					"input":25,
					"interpolation":"STEP",
					"output":45
				},
				{
					"input":25,
					"interpolation":"STEP",
					"output":46
				},
				{
					"input":25,
					"interpolation":"STEP",
					"output":47
				},
				{
					"input":25,
					"interpolation":"STEP",
					"output":48
				},
				{
					"input":25,
					"interpolation":"STEP",
					"output":49
				},
				{
					"input":25,
					"interpolation":"STEP",
					"output":50
				},
				{
					"input":25,
					"interpolation":"STEP",
					"output":51
				},
				{
					"input":25,
					"interpolation":"STEP",
					"output":52
				},
				{
					"input":25,
					"interpolation":"STEP",
					"output":53
				},
				{
					"input":25,
					"interpolation":"STEP",
					"output":54
				},
				{
					"input":25,
					"interpolation":"STEP",
					"output":55
				},
				{
					"input":25,
					"interpolation":"STEP",
					"output":56
				},
				{
					"input":25,
					"interpolation":"STEP",
					"output":57
				},
				{
					"input":25,
					"interpolation":"STEP",
					"output":58
				},
				{
					"input":25,
					"interpolation":"STEP",
					"output":59
				},
				{
					"input":25,
					"interpolation":"STEP",
					"output":60
				},
				{
					"input":25,
					"interpolation":"STEP",
					"output":61
				},
				{
					"input":25,
					"interpolation":"STEP",
					"output":62
				},
				{
					"input":25,
					"interpolation":"STEP",
					"output":63
				},
				{
					"input":25,
					"interpolation":"STEP",
					"output":64
				},
				{
					"input":25,
					"interpolation":"STEP",
					"output":65
				},
				{
					"input":25,
					"interpolation":"STEP",
					"output":66
				},
				{
					"input":25,
					"interpolation":"STEP",
					"output":67
				},
				{
					"input":25,
					"interpolation":"STEP",
					"output":68
				},
				{
					"input":25,
					"interpolation":"STEP",
					"output":69
				},
				{
					"input":25,
					"interpolation":"STEP",
					"output":70
				},
				{
					"input":25,
					"interpolation":"STEP",
					"output":71
				},
				{
					"input":25,
					"interpolation":"STEP",
					"output":72
				},
				{
					"input":25,
					"interpolation":"STEP",
					"output":73
				},
				{
					"input":25,
					"interpolation":"STEP",
					"output":74
				},
				{
					"input":25,
					"interpolation":"STEP",
					"output":75
				},
				{
					"input":25,
					"interpolation":"STEP",
					"output":76
				},
				{
					"input":25,
					"interpolation":"STEP",
					"output":77
				},
				{
					"input":25,
					"interpolation":"STEP",
					"output":78
				},
				{
					"input":25,
					"interpolation":"STEP",
					"output":79
				},
				{
					"input":25,
					"interpolation":"STEP",
					"output":80
				},
				{
					"input":25,
					"interpolation":"STEP",
					"output":81
				},
				{
					"input":25,
					"interpolation":"STEP",
					"output":82
				},
				{
					"input":25,
					"interpolation":"STEP",
					"output":83
				},
				{
					"input":25,
					"interpolation":"STEP",
					"output":84
				},
				{
					"input":25,
					"interpolation":"STEP",
					"output":85
				},
				{
					"input":25,
					"interpolation":"STEP",
					"output":86
				},
				{
					"input":25,
					"interpolation":"STEP",
					"output":87
				},
				{
					"input":25,
					"interpolation":"STEP",
					"output":88
				},
				{
					"input":25,
					"interpolation":"STEP",
					"output":89
				},
				{
					"input":38,
					"interpolation":"LINEAR",
					"output":90
				},
				{
					"input":38,
					"interpolation":"LINEAR",
					"output":91
				},
				{
					"input":25,
					"interpolation":"STEP",
					"output":92
				}
			]
		},
		{
			"channels":[
				{
					"sampler":0,
					"target":{
						"node":21,
						"path":"translation"
					}
				},
				{
					"sampler":1,
					"target":{
						"node":21,
						"path":"rotation"
					}
				},
				{
					"sampler":2,
					"target":{
						"node":21,
						"path":"scale"
					}
				},
				{
					"sampler":3,
					"target":{
						"node":1,
						"path":"translation"
					}
				},
				{
					"sampler":4,
					"target":{
						"node":1,
						"path":"rotation"
					}
				},
				{
					"sampler":5,
					"target":{
						"node":1,
						"path":"scale"
					}
				},
				{
					"sampler":6,
					"target":{
						"node":0,
						"path":"translation"
					}
				},
				{
					"sampler":7,
					"target":{
						"node":0,
						"path":"rotation"
					}
				},
				{
					"sampler":8,
					"target":{
						"node":0,
						"path":"scale"
					}
				},
				{
					"sampler":9,
					"target":{
						"node":18,
						"path":"translation"
					}
				},
				{
					"sampler":10,
					"target":{
						"node":18,
						"path":"rotation"
					}
				},
				{
					"sampler":11,
					"target":{
						"node":18,
						"path":"scale"
					}
				},
				{
					"sampler":12,
					"target":{
						"node":17,
						"path":"translation"
					}
				},
				{
					"sampler":13,
					"target":{
						"node":17,
						"path":"rotation"
					}
				},
				{
					"sampler":14,
					"target":{
						"node":17,
						"path":"scale"
					}
				},
				{
					"sampler":15,
					"target":{
						"node":4,
						"path":"translation"
					}
				},
				{
					"sampler":16,
					"target":{
						"node":4,
						"path":"rotation"
					}
				},
				{
					"sampler":17,
					"target":{
						"node":4,
						"path":"scale"
					}
				},
				{
					"sampler":18,
					"target":{
						"node":3,
						"path":"translation"
					}
				},
				{
					"sampler":19,
					"target":{
						"node":3,
						"path":"rotation"
					}
				},
				{
					"sampler":20,
					"target":{
						"node":3,
						"path":"scale"
					}
				},
				{
					"sampler":21,
					"target":{
						"node":2,
						"path":"translation"
					}
				},
				{
					"sampler":22,
					"target":{
						"node":2,
						"path":"rotation"
					}
				},
				{
					"sampler":23,
					"target":{
						"node":2,
						"path":"scale"
					}
				},
				{
					"sampler":24,
					"target":{
						"node":8,
						"path":"translation"
					}
				},
				{
					"sampler":25,
					"target":{
						"node":8,
						"path":"rotation"
					}
				},
				{
					"sampler":26,
					"target":{
						"node":8,
						"path":"scale"
					}
				},
				{
					"sampler":27,
					"target":{
						"node":7,
						"path":"translation"
					}
				},
				{
					"sampler":28,
					"target":{
						"node":7,
						"path":"rotation"
					}
				},
				{
					"sampler":29,
					"target":{
						"node":7,
						"path":"scale"
					}
				},
				{
					"sampler":30,
					"target":{
						"node":6,
						"path":"translation"
					}
				},
				{
					"sampler":31,
					"target":{
						"node":6,
						"path":"rotation"
					}
				},
				{
					"sampler":32,
					"target":{
						"node":6,
						"path":"scale"
					}
				},
				{
					"sampler":33,
					"target":{
						"node":5,
						"path":"translation"
					}
				},
				{
					"sampler":34,
					"target":{
						"node":5,
						"path":"rotation"
					}
				},
				{
					"sampler":35,
					"target":{
						"node":5,
						"path":"scale"
					}
				},
				{
					"sampler":36,
					"target":{
						"node":12,
						"path":"translation"
					}
				},
				{
					"sampler":37,
					"target":{
						"node":12,
						"path":"rotation"
					}
				},
				{
					"sampler":38,
					"target":{
						"node":12,
						"path":"scale"
					}
				},
				{
					"sampler":39,
					"target":{
						"node":11,
						"path":"translation"
					}
				},
				{
					"sampler":40,
					"target":{
						"node":11,
						"path":"rotation"
					}
				},
				{
					"sampler":41,
					"target":{
						"node":11,
						"path":"scale"
					}
				},
				{
					"sampler":42,
					"target":{
						"node":10,
						"path":"translation"
					}
				},
				{
					"sampler":43,
					"target":{
						"node":10,
						"path":"rotation"
					}
				},
				{
					"sampler":44,
					"target":{
						"node":10,
						"path":"scale"
					}
				},
				{
					"sampler":45,
					"target":{
						"node":9,
						"path":"translation"
					}
				},
				{
					"sampler":46,
					"target":{
						"node":9,
						"path":"rotation"
					}
				},
				{
					"sampler":47,
					"target":{
						"node":9,
						"path":"scale"
					}
				},
				{
					"sampler":48,
					"target":{
						"node":16,
						"path":"translation"
					}
				},
				{
					"sampler":49,
					"target":{
						"node":16,
						"path":"rotation"
					}
				},
				{
					"sampler":50,
					"target":{
						"node":16,
						"path":"scale"
					}
				},
				{
					"sampler":51,
					"target":{
						"node":15,
						"path":"translation"
					}
				},
				{
					"sampler":52,
					"target":{
						"node":15,
						"path":"rotation"
					}
				},
				{
					"sampler":53,
					"target":{
						"node":15,
						"path":"scale"
					}
				},
				{
					"sampler":54,
					"target":{
						"node":14,
						"path":"translation"
					}
				},
				{
					"sampler":55,
					"target":{
						"node":14,
						"path":"rotation"
					}
				},
				{
					"sampler":56,
					"target":{
						"node":14,
						"path":"scale"
					}
				},
				{
					"sampler":57,
					"target":{
						"node":13,
						"path":"translation"
					}
				},
				{
					"sampler":58,
					"target":{
						"node":13,
						"path":"rotation"
					}
				},
				{
					"sampler":59,
					"target":{
						"node":13,
						"path":"scale"
					}
				},
				{
					"sampler":60,
					"target":{
						"node":20,
						"path":"translation"
					}
				},
				{
					"sampler":61,
					"target":{
						"node":20,
						"path":"rotation"
					}
				},
				{
					"sampler":62,
					"target":{
						"node":20,
						"path":"scale"
					}
				},
				{
					"sampler":63,
					"target":{
						"node":19,
						"path":"translation"
					}
				},
				{
					"sampler":64,
					"target":{
						"node":19,
						"path":"rotation"
					}
				},
				{
					"sampler":65,
					"target":{
						"node":19,
						"path":"scale"
					}
				}
			],
			"name":"\u6ce2\u72b6\u653b\u6483",
			"samplers":[
				{
					"input":25,
					"interpolation":"STEP",
					"output":93
				},
				{
					"input":25,
					"interpolation":"STEP",
					"output":94
				},
				{
					"input":25,
					"interpolation":"STEP",
					"output":95
				},
				{
					"input":25,
					"interpolation":"STEP",
					"output":96
				},
				{
					"input":25,
					"interpolation":"STEP",
					"output":97
				},
				{
					"input":25,
					"interpolation":"STEP",
					"output":98
				},
				{
					"input":25,
					"interpolation":"STEP",
					"output":99
				},
				{
					"input":25,
					"interpolation":"STEP",
					"output":100
				},
				{
					"input":25,
					"interpolation":"STEP",
					"output":101
				},
				{
					"input":25,
					"interpolation":"STEP",
					"output":102
				},
				{
					"input":25,
					"interpolation":"STEP",
					"output":103
				},
				{
					"input":25,
					"interpolation":"STEP",
					"output":104
				},
				{
					"input":38,
					"interpolation":"LINEAR",
					"output":105
				},
				{
					"input":38,
					"interpolation":"LINEAR",
					"output":106
				},
				{
					"input":25,
					"interpolation":"STEP",
					"output":107
				},
				{
					"input":25,
					"interpolation":"STEP",
					"output":108
				},
				{
					"input":25,
					"interpolation":"STEP",
					"output":109
				},
				{
					"input":25,
					"interpolation":"STEP",
					"output":110
				},
				{
					"input":25,
					"interpolation":"STEP",
					"output":111
				},
				{
					"input":25,
					"interpolation":"STEP",
					"output":112
				},
				{
					"input":25,
					"interpolation":"STEP",
					"output":113
				},
				{
					"input":25,
					"interpolation":"STEP",
					"output":114
				},
				{
					"input":25,
					"interpolation":"STEP",
					"output":115
				},
				{
					"input":25,
					"interpolation":"STEP",
					"output":116
				},
				{
					"input":25,
					"interpolation":"STEP",
					"output":117
				},
				{
					"input":25,
					"interpolation":"STEP",
					"output":118
				},
				{
					"input":25,
					"interpolation":"STEP",
					"output":119
				},
				{
					"input":25,
					"interpolation":"STEP",
					"output":120
				},
				{
					"input":25,
					"interpolation":"STEP",
					"output":121
				},
				{
					"input":25,
					"interpolation":"STEP",
					"output":122
				},
				{
					"input":25,
					"interpolation":"STEP",
					"output":123
				},
				{
					"input":25,
					"interpolation":"STEP",
					"output":124
				},
				{
					"input":25,
					"interpolation":"STEP",
					"output":125
				},
				{
					"input":25,
					"interpolation":"STEP",
					"output":126
				},
				{
					"input":25,
					"interpolation":"STEP",
					"output":127
				},
				{
					"input":25,
					"interpolation":"STEP",
					"output":128
				},
				{
					"input":25,
					"interpolation":"STEP",
					"output":129
				},
				{
					"input":25,
					"interpolation":"STEP",
					"output":130
				},
				{
					"input":25,
					"interpolation":"STEP",
					"output":131
				},
				{
					"input":25,
					"interpolation":"STEP",
					"output":132
				},
				{
					"input":25,
					"interpolation":"STEP",
					"output":133
				},
				{
					"input":25,
					"interpolation":"STEP",
					"output":134
				},
				{
					"input":25,
					"interpolation":"STEP",
					"output":135
				},
				{
					"input":25,
					"interpolation":"STEP",
					"output":136
				},
				{
					"input":25,
					"interpolation":"STEP",
					"output":137
				},
				{
					"input":25,
					"interpolation":"STEP",
					"output":138
				},
				{
					"input":25,
					"interpolation":"STEP",
					"output":139
				},
				{
					"input":25,
					"interpolation":"STEP",
					"output":140
				},
				{
					"input":25,
					"interpolation":"STEP",
					"output":141
				},
				{
					"input":25,
					"interpolation":"STEP",
					"output":142
				},
				{
					"input":25,
					"interpolation":"STEP",
					"output":143
				},
				{
					"input":25,
					"interpolation":"STEP",
					"output":144
				},
				{
					"input":25,
					"interpolation":"STEP",
					"output":145
				},
				{
					"input":25,
					"interpolation":"STEP",
					"output":146
				},
				{
					"input":25,
					"interpolation":"STEP",
					"output":147
				},
				{
					"input":25,
					"interpolation":"STEP",
					"output":148
				},
				{
					"input":25,
					"interpolation":"STEP",
					"output":149
				},
				{
					"input":25,
					"interpolation":"STEP",
					"output":150
				},
				{
					"input":25,
					"interpolation":"STEP",
					"output":151
				},
				{
					"input":25,
					"interpolation":"STEP",
					"output":152
				},
				{
					"input":25,
					"interpolation":"STEP",
					"output":153
				},
				{
					"input":25,
					"interpolation":"STEP",
					"output":154
				},
				{
					"input":25,
					"interpolation":"STEP",
					"output":155
				},
				{
					"input":38,
					"interpolation":"LINEAR",
					"output":156
				},
				{
					"input":38,
					"interpolation":"LINEAR",
					"output":157
				},
				{
					"input":25,
					"interpolation":"STEP",
					"output":158
				}
			]
		},
		{
			"channels":[
				{
					"sampler":0,
					"target":{
						"node":21,
						"path":"translation"
					}
				},
				{
					"sampler":1,
					"target":{
						"node":21,
						"path":"rotation"
					}
				},
				{
					"sampler":2,
					"target":{
						"node":21,
						"path":"scale"
					}
				},
				{
					"sampler":3,
					"target":{
						"node":1,
						"path":"translation"
					}
				},
				{
					"sampler":4,
					"target":{
						"node":1,
						"path":"rotation"
					}
				},
				{
					"sampler":5,
					"target":{
						"node":1,
						"path":"scale"
					}
				},
				{
					"sampler":6,
					"target":{
						"node":0,
						"path":"translation"
					}
				},
				{
					"sampler":7,
					"target":{
						"node":0,
						"path":"rotation"
					}
				},
				{
					"sampler":8,
					"target":{
						"node":0,
						"path":"scale"
					}
				},
				{
					"sampler":9,
					"target":{
						"node":18,
						"path":"translation"
					}
				},
				{
					"sampler":10,
					"target":{
						"node":18,
						"path":"rotation"
					}
				},
				{
					"sampler":11,
					"target":{
						"node":18,
						"path":"scale"
					}
				},
				{
					"sampler":12,
					"target":{
						"node":17,
						"path":"translation"
					}
				},
				{
					"sampler":13,
					"target":{
						"node":17,
						"path":"rotation"
					}
				},
				{
					"sampler":14,
					"target":{
						"node":17,
						"path":"scale"
					}
				},
				{
					"sampler":15,
					"target":{
						"node":4,
						"path":"translation"
					}
				},
				{
					"sampler":16,
					"target":{
						"node":4,
						"path":"rotation"
					}
				},
				{
					"sampler":17,
					"target":{
						"node":4,
						"path":"scale"
					}
				},
				{
					"sampler":18,
					"target":{
						"node":3,
						"path":"translation"
					}
				},
				{
					"sampler":19,
					"target":{
						"node":3,
						"path":"rotation"
					}
				},
				{
					"sampler":20,
					"target":{
						"node":3,
						"path":"scale"
					}
				},
				{
					"sampler":21,
					"target":{
						"node":2,
						"path":"translation"
					}
				},
				{
					"sampler":22,
					"target":{
						"node":2,
						"path":"rotation"
					}
				},
				{
					"sampler":23,
					"target":{
						"node":2,
						"path":"scale"
					}
				},
				{
					"sampler":24,
					"target":{
						"node":8,
						"path":"translation"
					}
				},
				{
					"sampler":25,
					"target":{
						"node":8,
						"path":"rotation"
					}
				},
				{
					"sampler":26,
					"target":{
						"node":8,
						"path":"scale"
					}
				},
				{
					"sampler":27,
					"target":{
						"node":7,
						"path":"translation"
					}
				},
				{
					"sampler":28,
					"target":{
						"node":7,
						"path":"rotation"
					}
				},
				{
					"sampler":29,
					"target":{
						"node":7,
						"path":"scale"
					}
				},
				{
					"sampler":30,
					"target":{
						"node":6,
						"path":"translation"
					}
				},
				{
					"sampler":31,
					"target":{
						"node":6,
						"path":"rotation"
					}
				},
				{
					"sampler":32,
					"target":{
						"node":6,
						"path":"scale"
					}
				},
				{
					"sampler":33,
					"target":{
						"node":5,
						"path":"translation"
					}
				},
				{
					"sampler":34,
					"target":{
						"node":5,
						"path":"rotation"
					}
				},
				{
					"sampler":35,
					"target":{
						"node":5,
						"path":"scale"
					}
				},
				{
					"sampler":36,
					"target":{
						"node":12,
						"path":"translation"
					}
				},
				{
					"sampler":37,
					"target":{
						"node":12,
						"path":"rotation"
					}
				},
				{
					"sampler":38,
					"target":{
						"node":12,
						"path":"scale"
					}
				},
				{
					"sampler":39,
					"target":{
						"node":11,
						"path":"translation"
					}
				},
				{
					"sampler":40,
					"target":{
						"node":11,
						"path":"rotation"
					}
				},
				{
					"sampler":41,
					"target":{
						"node":11,
						"path":"scale"
					}
				},
				{
					"sampler":42,
					"target":{
						"node":10,
						"path":"translation"
					}
				},
				{
					"sampler":43,
					"target":{
						"node":10,
						"path":"rotation"
					}
				},
				{
					"sampler":44,
					"target":{
						"node":10,
						"path":"scale"
					}
				},
				{
					"sampler":45,
					"target":{
						"node":9,
						"path":"translation"
					}
				},
				{
					"sampler":46,
					"target":{
						"node":9,
						"path":"rotation"
					}
				},
				{
					"sampler":47,
					"target":{
						"node":9,
						"path":"scale"
					}
				},
				{
					"sampler":48,
					"target":{
						"node":16,
						"path":"translation"
					}
				},
				{
					"sampler":49,
					"target":{
						"node":16,
						"path":"rotation"
					}
				},
				{
					"sampler":50,
					"target":{
						"node":16,
						"path":"scale"
					}
				},
				{
					"sampler":51,
					"target":{
						"node":15,
						"path":"translation"
					}
				},
				{
					"sampler":52,
					"target":{
						"node":15,
						"path":"rotation"
					}
				},
				{
					"sampler":53,
					"target":{
						"node":15,
						"path":"scale"
					}
				},
				{
					"sampler":54,
					"target":{
						"node":14,
						"path":"translation"
					}
				},
				{
					"sampler":55,
					"target":{
						"node":14,
						"path":"rotation"
					}
				},
				{
					"sampler":56,
					"target":{
						"node":14,
						"path":"scale"
					}
				},
				{
					"sampler":57,
					"target":{
						"node":13,
						"path":"translation"
					}
				},
				{
					"sampler":58,
					"target":{
						"node":13,
						"path":"rotation"
					}
				},
				{
					"sampler":59,
					"target":{
						"node":13,
						"path":"scale"
					}
				},
				{
					"sampler":60,
					"target":{
						"node":20,
						"path":"translation"
					}
				},
				{
					"sampler":61,
					"target":{
						"node":20,
						"path":"rotation"
					}
				},
				{
					"sampler":62,
					"target":{
						"node":20,
						"path":"scale"
					}
				},
				{
					"sampler":63,
					"target":{
						"node":19,
						"path":"translation"
					}
				},
				{
					"sampler":64,
					"target":{
						"node":19,
						"path":"rotation"
					}
				},
				{
					"sampler":65,
					"target":{
						"node":19,
						"path":"scale"
					}
				}
			],
			"name":"\u7e26\u632f\u308a\u4e0b\u308d\u3057",
			"samplers":[
				{
					"input":159,
					"interpolation":"STEP",
					"output":160
				},
				{
					"input":159,
					"interpolation":"STEP",
					"output":161
				},
				{
					"input":159,
					"interpolation":"STEP",
					"output":162
				},
				{
					"input":159,
					"interpolation":"STEP",
					"output":163
				},
				{
					"input":159,
					"interpolation":"STEP",
					"output":164
				},
				{
					"input":159,
					"interpolation":"STEP",
					"output":165
				},
				{
					"input":159,
					"interpolation":"STEP",
					"output":166
				},
				{
					"input":159,
					"interpolation":"STEP",
					"output":167
				},
				{
					"input":159,
					"interpolation":"STEP",
					"output":168
				},
				{
					"input":159,
					"interpolation":"STEP",
					"output":169
				},
				{
					"input":159,
					"interpolation":"STEP",
					"output":170
				},
				{
					"input":159,
					"interpolation":"STEP",
					"output":171
				},
				{
					"input":159,
					"interpolation":"STEP",
					"output":172
				},
				{
					"input":159,
					"interpolation":"STEP",
					"output":173
				},
				{
					"input":159,
					"interpolation":"STEP",
					"output":174
				},
				{
					"input":159,
					"interpolation":"STEP",
					"output":175
				},
				{
					"input":159,
					"interpolation":"STEP",
					"output":176
				},
				{
					"input":159,
					"interpolation":"STEP",
					"output":177
				},
				{
					"input":159,
					"interpolation":"STEP",
					"output":178
				},
				{
					"input":159,
					"interpolation":"STEP",
					"output":179
				},
				{
					"input":159,
					"interpolation":"STEP",
					"output":180
				},
				{
					"input":159,
					"interpolation":"STEP",
					"output":181
				},
				{
					"input":159,
					"interpolation":"STEP",
					"output":182
				},
				{
					"input":159,
					"interpolation":"STEP",
					"output":183
				},
				{
					"input":159,
					"interpolation":"STEP",
					"output":184
				},
				{
					"input":159,
					"interpolation":"STEP",
					"output":185
				},
				{
					"input":159,
					"interpolation":"STEP",
					"output":186
				},
				{
					"input":159,
					"interpolation":"STEP",
					"output":187
				},
				{
					"input":159,
					"interpolation":"STEP",
					"output":188
				},
				{
					"input":159,
					"interpolation":"STEP",
					"output":189
				},
				{
					"input":159,
					"interpolation":"STEP",
					"output":190
				},
				{
					"input":159,
					"interpolation":"STEP",
					"output":191
				},
				{
					"input":159,
					"interpolation":"STEP",
					"output":192
				},
				{
					"input":159,
					"interpolation":"STEP",
					"output":193
				},
				{
					"input":159,
					"interpolation":"STEP",
					"output":194
				},
				{
					"input":159,
					"interpolation":"STEP",
					"output":195
				},
				{
					"input":159,
					"interpolation":"STEP",
					"output":196
				},
				{
					"input":159,
					"interpolation":"STEP",
					"output":197
				},
				{
					"input":159,
					"interpolation":"STEP",
					"output":198
				},
				{
					"input":159,
					"interpolation":"STEP",
					"output":199
				},
				{
					"input":159,
					"interpolation":"STEP",
					"output":200
				},
				{
					"input":159,
					"interpolation":"STEP",
					"output":201
				},
				{
					"input":159,
					"interpolation":"STEP",
					"output":202
				},
				{
					"input":159,
					"interpolation":"STEP",
					"output":203
				},
				{
					"input":159,
					"interpolation":"STEP",
					"output":204
				},
				{
					"input":159,
					"interpolation":"STEP",
					"output":205
				},
				{
					"input":159,
					"interpolation":"STEP",
					"output":206
				},
				{
					"input":159,
					"interpolation":"STEP",
					"output":207
				},
				{
					"input":159,
					"interpolation":"STEP",
					"output":208
				},
				{
					"input":159,
					"interpolation":"STEP",
					"output":209
				},
				{
					"input":159,
					"interpolation":"STEP",
					"output":210
				},
				{
					"input":159,
					"interpolation":"STEP",
					"output":211
				},
				{
					"input":159,
					"interpolation":"STEP",
					"output":212
				},
				{
					"input":159,
					"interpolation":"STEP",
					"output":213
				},
				{
					"input":159,
					"interpolation":"STEP",
					"output":214
				},
				{
					"input":159,
					"interpolation":"STEP",
					"output":215
				},
				{
					"input":159,
					"interpolation":"STEP",
					"output":216
				},
				{
					"input":159,
					"interpolation":"STEP",
					"output":217
				},
				{
					"input":159,
					"interpolation":"STEP",
					"output":218
				},
				{
					"input":159,
					"interpolation":"STEP",
					"output":219
				},
				{
					"input":159,
					"interpolation":"STEP",
					"output":220
				},
				{
					"input":159,
					"interpolation":"STEP",
					"output":221
				},
				{
					"input":159,
					"interpolation":"STEP",
					"output":222
				},
				{
					"input":223,
					"interpolation":"LINEAR",
					"output":224
				},
				{
					"input":223,
					"interpolation":"LINEAR",
					"output":225
				},
				{
					"input":159,
					"interpolation":"STEP",
					"output":226
				}
			]
		}
	],
	"materials":[
		{
			"doubleSided":true,
			"name":"\u30de\u30c6\u30ea\u30a2\u30eb",
			"pbrMetallicRoughness":{
				"baseColorTexture":{
					"index":0
				},
				"metallicFactor":0,
				"roughnessFactor":0.5
			}
		},
		{
			"doubleSided":true,
			"name":"Material",
			"pbrMetallicRoughness":{
				"baseColorFactor":[
					0.800000011920929,
					0.800000011920929,
					0.800000011920929,
					1
				],
				"metallicFactor":0,
				"roughnessFactor":0.5
			}
		}
	],
	"meshes":[
		{
			"name":"\u7403",
			"primitives":[
				{
					"attributes":{
						"POSITION":0,
						"NORMAL":1,
						"TEXCOORD_0":2,
						"TEXCOORD_1":3,
						"COLOR_0":4,
						"JOINTS_0":5,
						"WEIGHTS_0":6
					},
					"indices":7,
					"material":0
				},
				{
					"attributes":{
						"POSITION":8,
						"NORMAL":9,
						"TEXCOORD_0":10,
						"TEXCOORD_1":11,
						"COLOR_0":12,
						"JOINTS_0":13,
						"WEIGHTS_0":14
					},
					"indices":15,
					"material":1
				},
				{
					"attributes":{
						"POSITION":16,
						"NORMAL":17,
						"TEXCOORD_0":18,
						"TEXCOORD_1":19,
						"COLOR_0":20,
						"JOINTS_0":21,
						"WEIGHTS_0":22
					},
					"indices":23
				}
			]
		}
	],
	"textures":[
		{
			"sampler":0,
			"source":0
		}
	],
	"images":[
		{
			"mimeType":"image/png",
			"name":"bossBody",
			"uri":"bossBody.png"
		}
	],
	"skins":[
		{
			"inverseBindMatrices":24,
			"joints":[
				21,
				1,
				0,
				18,
				17,
				4,
				3,
				2,
				8,
				7,
				6,
				5,
				12,
				11,
				10,
				9,
				16,
				15,
				14,
				13,
				20,
				19
			],
			"name":"\u30a2\u30fc\u30de\u30c1\u30e5\u30a2"
		}
	],
	"accessors":[
		{
			"bufferView":0,
			"componentType":5126,
			"count":2096,
			"max":[
				0.7999997735023499,
				5.556778907775879,
				0.799999475479126
			],
			"min":[
				-0.7999992370605469,
				3.9567787647247314,
				-0.800000011920929
			],
			"type":"VEC3"
		},
		{
			"bufferView":1,
			"componentType":5126,
			"count":2096,
			"type":"VEC3"
		},
		{
			"bufferView":2,
			"componentType":5126,
			"count":2096,
			"type":"VEC2"
		},
		{
			"bufferView":3,
			"componentType":5126,
			"count":2096,
			"type":"VEC2"
		},
		{
			"bufferView":4,
			"componentType":5123,
			"count":2096,
			"normalized":true,
			"type":"VEC4"
		},
		{
			"bufferView":5,
			"componentType":5121,
			"count":2096,
			"type":"VEC4"
		},
		{
			"bufferView":6,
			"componentType":5126,
			"count":2096,
			"type":"VEC4"
		},
		{
			"bufferView":7,
			"componentType":5123,
			"count":2880,
			"type":"SCALAR"
		},
		{
			"bufferView":8,
			"componentType":5126,
			"count":36,
			"max":[
				0.7419063448905945,
				3.999999523162842,
				1
			],
			"min":[
				-0.7419063448905945,
				-4.76837158203125e-07,
				-1
			],
			"type":"VEC3"
		},
		{
			"bufferView":9,
			"componentType":5126,
			"count":36,
			"type":"VEC3"
		},
		{
			"bufferView":10,
			"componentType":5126,
			"count":36,
			"type":"VEC2"
		},
		{
			"bufferView":11,
			"componentType":5126,
			"count":36,
			"type":"VEC2"
		},
		{
			"bufferView":12,
			"componentType":5123,
			"count":36,
			"normalized":true,
			"type":"VEC4"
		},
		{
			"bufferView":13,
			"componentType":5121,
			"count":36,
			"type":"VEC4"
		},
		{
			"bufferView":14,
			"componentType":5126,
			"count":36,
			"type":"VEC4"
		},
		{
			"bufferView":15,
			"componentType":5123,
			"count":60,
			"type":"SCALAR"
		},
		{
			"bufferView":16,
			"componentType":5126,
			"count":568,
			"max":[
				1.2170544862747192,
				12.72472858428955,
				4.004527568817139
			],
			"min":[
				-0.19360560178756714,
				2.0361061096191406,
				-3.782564163208008
			],
			"type":"VEC3"
		},
		{
			"bufferView":17,
			"componentType":5126,
			"count":568,
			"type":"VEC3"
		},
		{
			"bufferView":18,
			"componentType":5126,
			"count":568,
			"type":"VEC2"
		},
		{
			"bufferView":19,
			"componentType":5126,
			"count":568,
			"type":"VEC2"
		},
		{
			"bufferView":20,
			"componentType":5123,
			"count":568,
			"normalized":true,
			"type":"VEC4"
		},
		{
			"bufferView":21,
			"componentType":5121,
			"count":568,
			"type":"VEC4"
		},
		{
			"bufferView":22,
			"componentType":5126,
			"count":568,
			"type":"VEC4"
		},
		{
			"bufferView":23,
			"componentType":5123,
			"count":1008,
			"type":"SCALAR"
		},
		{
			"bufferView":24,
			"componentType":5126,
			"count":22,
			"type":"MAT4"
		},
		{
			"bufferView":25,
			"componentType":5126,
			"count":2,
			"max":[
				2.5
			],
			"min":[
				0.041666666666666664
			],
			"type":"SCALAR"
		},
		{
			"bufferView":26,
			"componentType":5126,
			"count":2,
			"type":"VEC3"
		},
		{
			"bufferView":27,
			"componentType":5126,
			"count":2,
			"type":"VEC4"
		},
		{
			"bufferView":28,
			"componentType":5126,
			"count":2,
			"type":"VEC3"
		},
		{
			"bufferView":29,
			"componentType":5126,
			"count":2,
			"type":"VEC3"
		},
		{
			"bufferView":30,
			"componentType":5126,
			"count":2,
			"type":"VEC4"
		},
		{
			"bufferView":31,
			"componentType":5126,
			"count":2,
			"type":"VEC3"
		},
		{
			"bufferView":32,
			"componentType":5126,
			"count":2,
			"type":"VEC3"
		},
		{
			"bufferView":33,
			"componentType":5126,
			"count":2,
			"type":"VEC4"
		},
		{
			"bufferView":34,
			"componentType":5126,
			"count":2,
			"type":"VEC3"
		},
		{
			"bufferView":35,
			"componentType":5126,
			"count":2,
			"type":"VEC3"
		},
		{
			"bufferView":36,
			"componentType":5126,
			"count":2,
			"type":"VEC4"
		},
		{
			"bufferView":37,
			"componentType":5126,
			"count":2,
			"type":"VEC3"
		},
		{
			"bufferView":38,
			"componentType":5126,
			"count":60,
			"max":[
				2.5
			],
			"min":[
				0.041666666666666664
			],
			"type":"SCALAR"
		},
		{
			"bufferView":39,
			"componentType":5126,
			"count":60,
			"type":"VEC3"
		},
		{
			"bufferView":40,
			"componentType":5126,
			"count":60,
			"type":"VEC4"
		},
		{
			"bufferView":41,
			"componentType":5126,
			"count":2,
			"type":"VEC3"
		},
		{
			"bufferView":42,
			"componentType":5126,
			"count":2,
			"type":"VEC3"
		},
		{
			"bufferView":43,
			"componentType":5126,
			"count":2,
			"type":"VEC4"
		},
		{
			"bufferView":44,
			"componentType":5126,
			"count":2,
			"type":"VEC3"
		},
		{
			"bufferView":45,
			"componentType":5126,
			"count":2,
			"type":"VEC3"
		},
		{
			"bufferView":46,
			"componentType":5126,
			"count":2,
			"type":"VEC4"
		},
		{
			"bufferView":47,
			"componentType":5126,
			"count":2,
			"type":"VEC3"
		},
		{
			"bufferView":48,
			"componentType":5126,
			"count":2,
			"type":"VEC3"
		},
		{
			"bufferView":49,
			"componentType":5126,
			"count":2,
			"type":"VEC4"
		},
		{
			"bufferView":50,
			"componentType":5126,
			"count":2,
			"type":"VEC3"
		},
		{
			"bufferView":51,
			"componentType":5126,
			"count":2,
			"type":"VEC3"
		},
		{
			"bufferView":52,
			"componentType":5126,
			"count":2,
			"type":"VEC4"
		},
		{
			"bufferView":53,
			"componentType":5126,
			"count":2,
			"type":"VEC3"
		},
		{
			"bufferView":54,
			"componentType":5126,
			"count":2,
			"type":"VEC3"
		},
		{
			"bufferView":55,
			"componentType":5126,
			"count":2,
			"type":"VEC4"
		},
		{
			"bufferView":56,
			"componentType":5126,
			"count":2,
			"type":"VEC3"
		},
		{
			"bufferView":57,
			"componentType":5126,
			"count":2,
			"type":"VEC3"
		},
		{
			"bufferView":58,
			"componentType":5126,
			"count":2,
			"type":"VEC4"
		},
		{
			"bufferView":59,
			"componentType":5126,
			"count":2,
			"type":"VEC3"
		},
		{
			"bufferView":60,
			"componentType":5126,
			"count":2,
			"type":"VEC3"
		},
		{
			"bufferView":61,
			"componentType":5126,
			"count":2,
			"type":"VEC4"
		},
		{
			"bufferView":62,
			"componentType":5126,
			"count":2,
			"type":"VEC3"
		},
		{
			"bufferView":63,
			"componentType":5126,
			"count":2,
			"type":"VEC3"
		},
		{
			"bufferView":64,
			"componentType":5126,
			"count":2,
			"type":"VEC4"
		},
		{
			"bufferView":65,
			"componentType":5126,
			"count":2,
			"type":"VEC3"
		},
		{
			"bufferView":66,
			"componentType":5126,
			"count":2,
			"type":"VEC3"
		},
		{
			"bufferView":67,
			"componentType":5126,
			"count":2,
			"type":"VEC4"
		},
		{
			"bufferView":68,
			"componentType":5126,
			"count":2,
			"type":"VEC3"
		},
		{
			"bufferView":69,
			"componentType":5126,
			"count":2,
			"type":"VEC3"
		},
		{
			"bufferView":70,
			"componentType":5126,
			"count":2,
			"type":"VEC4"
		},
		{
			"bufferView":71,
			"componentType":5126,
			"count":2,
			"type":"VEC3"
		},
		{
			"bufferView":72,
			"componentType":5126,
			"count":2,
			"type":"VEC3"
		},
		{
			"bufferView":73,
			"componentType":5126,
			"count":2,
			"type":"VEC4"
		},
		{
			"bufferView":74,
			"componentType":5126,
			"count":2,
			"type":"VEC3"
		},
		{
			"bufferView":75,
			"componentType":5126,
			"count":2,
			"type":"VEC3"
		},
		{
			"bufferView":76,
			"componentType":5126,
			"count":2,
			"type":"VEC4"
		},
		{
			"bufferView":77,
			"componentType":5126,
			"count":2,
			"type":"VEC3"
		},
		{
			"bufferView":78,
			"componentType":5126,
			"count":2,
			"type":"VEC3"
		},
		{
			"bufferView":79,
			"componentType":5126,
			"count":2,
			"type":"VEC4"
		},
		{
			"bufferView":80,
			"componentType":5126,
			"count":2,
			"type":"VEC3"
		},
		{
			"bufferView":81,
			"componentType":5126,
			"count":2,
			"type":"VEC3"
		},
		{
			"bufferView":82,
			"componentType":5126,
			"count":2,
			"type":"VEC4"
		},
		{
			"bufferView":83,
			"componentType":5126,
			"count":2,
			"type":"VEC3"
		},
		{
			"bufferView":84,
			"componentType":5126,
			"count":2,
			"type":"VEC3"
		},
		{
			"bufferView":85,
			"componentType":5126,
			"count":2,
			"type":"VEC4"
		},
		{
			"bufferView":86,
			"componentType":5126,
			"count":2,
			"type":"VEC3"
		},
		{
			"bufferView":87,
			"componentType":5126,
			"count":2,
			"type":"VEC3"
		},
		{
			"bufferView":88,
			"componentType":5126,
			"count":2,
			"type":"VEC4"
		},
		{
			"bufferView":89,
			"componentType":5126,
			"count":2,
			"type":"VEC3"
		},
		{
			"bufferView":90,
			"componentType":5126,
			"count":60,
			"type":"VEC3"
		},
		{
			"bufferView":91,
			"componentType":5126,
			"count":60,
			"type":"VEC4"
		},
		{
			"bufferView":92,
			"componentType":5126,
			"count":2,
			"type":"VEC3"
		},
		{
			"bufferView":93,
			"componentType":5126,
			"count":2,
			"type":"VEC3"
		},
		{
			"bufferView":94,
			"componentType":5126,
			"count":2,
			"type":"VEC4"
		},
		{
			"bufferView":95,
			"componentType":5126,
			"count":2,
			"type":"VEC3"
		},
		{
			"bufferView":96,
			"componentType":5126,
			"count":2,
			"type":"VEC3"
		},
		{
			"bufferView":97,
			"componentType":5126,
			"count":2,
			"type":"VEC4"
		},
		{
			"bufferView":98,
			"componentType":5126,
			"count":2,
			"type":"VEC3"
		},
		{
			"bufferView":99,
			"componentType":5126,
			"count":2,
			"type":"VEC3"
		},
		{
			"bufferView":100,
			"componentType":5126,
			"count":2,
			"type":"VEC4"
		},
		{
			"bufferView":101,
			"componentType":5126,
			"count":2,
			"type":"VEC3"
		},
		{
			"bufferView":102,
			"componentType":5126,
			"count":2,
			"type":"VEC3"
		},
		{
			"bufferView":103,
			"componentType":5126,
			"count":2,
			"type":"VEC4"
		},
		{
			"bufferView":104,
			"componentType":5126,
			"count":2,
			"type":"VEC3"
		},
		{
			"bufferView":105,
			"componentType":5126,
			"count":60,
			"type":"VEC3"
		},
		{
			"bufferView":106,
			"componentType":5126,
			"count":60,
			"type":"VEC4"
		},
		{
			"bufferView":107,
			"componentType":5126,
			"count":2,
			"type":"VEC3"
		},
		{
			"bufferView":108,
			"componentType":5126,
			"count":2,
			"type":"VEC3"
		},
		{
			"bufferView":109,
			"componentType":5126,
			"count":2,
			"type":"VEC4"
		},
		{
			"bufferView":110,
			"componentType":5126,
			"count":2,
			"type":"VEC3"
		},
		{
			"bufferView":111,
			"componentType":5126,
			"count":2,
			"type":"VEC3"
		},
		{
			"bufferView":112,
			"componentType":5126,
			"count":2,
			"type":"VEC4"
		},
		{
			"bufferView":113,
			"componentType":5126,
			"count":2,
			"type":"VEC3"
		},
		{
			"bufferView":114,
			"componentType":5126,
			"count":2,
			"type":"VEC3"
		},
		{
			"bufferView":115,
			"componentType":5126,
			"count":2,
			"type":"VEC4"
		},
		{
			"bufferView":116,
			"componentType":5126,
			"count":2,
			"type":"VEC3"
		},
		{
			"bufferView":117,
			"componentType":5126,
			"count":2,
			"type":"VEC3"
		},
		{
			"bufferView":118,
			"componentType":5126,
			"count":2,
			"type":"VEC4"
		},
		{
			"bufferView":119,
			"componentType":5126,
			"count":2,
			"type":"VEC3"
		},
		{
			"bufferView":120,
			"componentType":5126,
			"count":2,
			"type":"VEC3"
		},
		{
			"bufferView":121,
			"componentType":5126,
			"count":2,
			"type":"VEC4"
		},
		{
			"bufferView":122,
			"componentType":5126,
			"count":2,
			"type":"VEC3"
		},
		{
			"bufferView":123,
			"componentType":5126,
			"count":2,
			"type":"VEC3"
		},
		{
			"bufferView":124,
			"componentType":5126,
			"count":2,
			"type":"VEC4"
		},
		{
			"bufferView":125,
			"componentType":5126,
			"count":2,
			"type":"VEC3"
		},
		{
			"bufferView":126,
			"componentType":5126,
			"count":2,
			"type":"VEC3"
		},
		{
			"bufferView":127,
			"componentType":5126,
			"count":2,
			"type":"VEC4"
		},
		{
			"bufferView":128,
			"componentType":5126,
			"count":2,
			"type":"VEC3"
		},
		{
			"bufferView":129,
			"componentType":5126,
			"count":2,
			"type":"VEC3"
		},
		{
			"bufferView":130,
			"componentType":5126,
			"count":2,
			"type":"VEC4"
		},
		{
			"bufferView":131,
			"componentType":5126,
			"count":2,
			"type":"VEC3"
		},
		{
			"bufferView":132,
			"componentType":5126,
			"count":2,
			"type":"VEC3"
		},
		{
			"bufferView":133,
			"componentType":5126,
			"count":2,
			"type":"VEC4"
		},
		{
			"bufferView":134,
			"componentType":5126,
			"count":2,
			"type":"VEC3"
		},
		{
			"bufferView":135,
			"componentType":5126,
			"count":2,
			"type":"VEC3"
		},
		{
			"bufferView":136,
			"componentType":5126,
			"count":2,
			"type":"VEC4"
		},
		{
			"bufferView":137,
			"componentType":5126,
			"count":2,
			"type":"VEC3"
		},
		{
			"bufferView":138,
			"componentType":5126,
			"count":2,
			"type":"VEC3"
		},
		{
			"bufferView":139,
			"componentType":5126,
			"count":2,
			"type":"VEC4"
		},
		{
			"bufferView":140,
			"componentType":5126,
			"count":2,
			"type":"VEC3"
		},
		{
			"bufferView":141,
			"componentType":5126,
			"count":2,
			"type":"VEC3"
		},
		{
			"bufferView":142,
			"componentType":5126,
			"count":2,
			"type":"VEC4"
		},
		{
			"bufferView":143,
			"componentType":5126,
			"count":2,
			"type":"VEC3"
		},
		{
			"bufferView":144,
			"componentType":5126,
			"count":2,
			"type":"VEC3"
		},
		{
			"bufferView":145,
			"componentType":5126,
			"count":2,
			"type":"VEC4"
		},
		{
			"bufferView":146,
			"componentType":5126,
			"count":2,
			"type":"VEC3"
		},
		{
			"bufferView":147,
			"componentType":5126,
			"count":2,
			"type":"VEC3"
		},
		{
			"bufferView":148,
			"componentType":5126,
			"count":2,
			"type":"VEC4"
		},
		{
			"bufferView":149,
			"componentType":5126,
			"count":2,
			"type":"VEC3"
		},
		{
			"bufferView":150,
			"componentType":5126,
			"count":2,
			"type":"VEC3"
		},
		{
			"bufferView":151,
			"componentType":5126,
			"count":2,
			"type":"VEC4"
		},
		{
			"bufferView":152,
			"componentType":5126,
			"count":2,
			"type":"VEC3"
		},
		{
			"bufferView":153,
			"componentType":5126,
			"count":2,
			"type":"VEC3"
		},
		{
			"bufferView":154,
			"componentType":5126,
			"count":2,
			"type":"VEC4"
		},
		{
			"bufferView":155,
			"componentType":5126,
			"count":2,
			"type":"VEC3"
		},
		{
			"bufferView":156,
			"componentType":5126,
			"count":60,
			"type":"VEC3"
		},
		{
			"bufferView":157,
			"componentType":5126,
			"count":60,
			"type":"VEC4"
		},
		{
			"bufferView":158,
			"componentType":5126,
			"count":2,
			"type":"VEC3"
		},
		{
			"bufferView":159,
			"componentType":5126,
			"count":2,
			"max":[
				2.0833333333333335
			],
			"min":[
				0.041666666666666664
			],
			"type":"SCALAR"
		},
		{
			"bufferView":160,
			"componentType":5126,
			"count":2,
			"type":"VEC3"
		},
		{
			"bufferView":161,
			"componentType":5126,
			"count":2,
			"type":"VEC4"
		},
		{
			"bufferView":162,
			"componentType":5126,
			"count":2,
			"type":"VEC3"
		},
		{
			"bufferView":163,
			"componentType":5126,
			"count":2,
			"type":"VEC3"
		},
		{
			"bufferView":164,
			"componentType":5126,
			"count":2,
			"type":"VEC4"
		},
		{
			"bufferView":165,
			"componentType":5126,
			"count":2,
			"type":"VEC3"
		},
		{
			"bufferView":166,
			"componentType":5126,
			"count":2,
			"type":"VEC3"
		},
		{
			"bufferView":167,
			"componentType":5126,
			"count":2,
			"type":"VEC4"
		},
		{
			"bufferView":168,
			"componentType":5126,
			"count":2,
			"type":"VEC3"
		},
		{
			"bufferView":169,
			"componentType":5126,
			"count":2,
			"type":"VEC3"
		},
		{
			"bufferView":170,
			"componentType":5126,
			"count":2,
			"type":"VEC4"
		},
		{
			"bufferView":171,
			"componentType":5126,
			"count":2,
			"type":"VEC3"
		},
		{
			"bufferView":172,
			"componentType":5126,
			"count":2,
			"type":"VEC3"
		},
		{
			"bufferView":173,
			"componentType":5126,
			"count":2,
			"type":"VEC4"
		},
		{
			"bufferView":174,
			"componentType":5126,
			"count":2,
			"type":"VEC3"
		},
		{
			"bufferView":175,
			"componentType":5126,
			"count":2,
			"type":"VEC3"
		},
		{
			"bufferView":176,
			"componentType":5126,
			"count":2,
			"type":"VEC4"
		},
		{
			"bufferView":177,
			"componentType":5126,
			"count":2,
			"type":"VEC3"
		},
		{
			"bufferView":178,
			"componentType":5126,
			"count":2,
			"type":"VEC3"
		},
		{
			"bufferView":179,
			"componentType":5126,
			"count":2,
			"type":"VEC4"
		},
		{
			"bufferView":180,
			"componentType":5126,
			"count":2,
			"type":"VEC3"
		},
		{
			"bufferView":181,
			"componentType":5126,
			"count":2,
			"type":"VEC3"
		},
		{
			"bufferView":182,
			"componentType":5126,
			"count":2,
			"type":"VEC4"
		},
		{
			"bufferView":183,
			"componentType":5126,
			"count":2,
			"type":"VEC3"
		},
		{
			"bufferView":184,
			"componentType":5126,
			"count":2,
			"type":"VEC3"
		},
		{
			"bufferView":185,
			"componentType":5126,
			"count":2,
			"type":"VEC4"
		},
		{
			"bufferView":186,
			"componentType":5126,
			"count":2,
			"type":"VEC3"
		},
		{
			"bufferView":187,
			"componentType":5126,
			"count":2,
			"type":"VEC3"
		},
		{
			"bufferView":188,
			"componentType":5126,
			"count":2,
			"type":"VEC4"
		},
		{
			"bufferView":189,
			"componentType":5126,
			"count":2,
			"type":"VEC3"
		},
		{
			"bufferView":190,
			"componentType":5126,
			"count":2,
			"type":"VEC3"
		},
		{
			"bufferView":191,
			"componentType":5126,
			"count":2,
			"type":"VEC4"
		},
		{
			"bufferView":192,
			"componentType":5126,
			"count":2,
			"type":"VEC3"
		},
		{
			"bufferView":193,
			"componentType":5126,
			"count":2,
			"type":"VEC3"
		},
		{
			"bufferView":194,
			"componentType":5126,
			"count":2,
			"type":"VEC4"
		},
		{
			"bufferView":195,
			"componentType":5126,
			"count":2,
			"type":"VEC3"
		},
		{
			"bufferView":196,
			"componentType":5126,
			"count":2,
			"type":"VEC3"
		},
		{
			"bufferView":197,
			"componentType":5126,
			"count":2,
			"type":"VEC4"
		},
		{
			"bufferView":198,
			"componentType":5126,
			"count":2,
			"type":"VEC3"
		},
		{
			"bufferView":199,
			"componentType":5126,
			"count":2,
			"type":"VEC3"
		},
		{
			"bufferView":200,
			"componentType":5126,
			"count":2,
			"type":"VEC4"
		},
		{
			"bufferView":201,
			"componentType":5126,
			"count":2,
			"type":"VEC3"
		},
		{
			"bufferView":202,
			"componentType":5126,
			"count":2,
			"type":"VEC3"
		},
		{
			"bufferView":203,
			"componentType":5126,
			"count":2,
			"type":"VEC4"
		},
		{
			"bufferView":204,
			"componentType":5126,
			"count":2,
			"type":"VEC3"
		},
		{
			"bufferView":205,
			"componentType":5126,
			"count":2,
			"type":"VEC3"
		},
		{
			"bufferView":206,
			"componentType":5126,
			"count":2,
			"type":"VEC4"
		},
		{
			"bufferView":207,
			"componentType":5126,
			"count":2,
			"type":"VEC3"
		},
		{
			"bufferView":208,
			"componentType":5126,
			"count":2,
			"type":"VEC3"
		},
		{
			"bufferView":209,
			"componentType":5126,
			"count":2,
			"type":"VEC4"
		},
		{
			"bufferView":210,
			"componentType":5126,
			"count":2,
			"type":"VEC3"
		},
		{
			"bufferView":211,
			"componentType":5126,
			"count":2,
			"type":"VEC3"
		},
		{
			"bufferView":212,
			"componentType":5126,
			"count":2,
			"type":"VEC4"
		},
		{
			"bufferView":213,
			"componentType":5126,
			"count":2,
			"type":"VEC3"
		},
		{
			"bufferView":214,
			"componentType":5126,
			"count":2,
			"type":"VEC3"
		},
		{
			"bufferView":215,
			"componentType":5126,
			"count":2,
			"type":"VEC4"
		},
		{
			"bufferView":216,
			"componentType":5126,
			"count":2,
			"type":"VEC3"
		},
		{
			"bufferView":217,
			"componentType":5126,
			"count":2,
			"type":"VEC3"
		},
		{
			"bufferView":218,
			"componentType":5126,
			"count":2,
			"type":"VEC4"
		},
		{
			"bufferView":219,
			"componentType":5126,
			"count":2,
			"type":"VEC3"
		},
		{
			"bufferView":220,
			"componentType":5126,
			"count":2,
			"type":"VEC3"
		},
		{
			"bufferView":221,
			"componentType":5126,
			"count":2,
			"type":"VEC4"
		},
		{
			"bufferView":222,
			"componentType":5126,
			"count":2,
			"type":"VEC3"
		},
		{
			"bufferView":223,
			"componentType":5126,
			"count":50,
			"max":[
				2.0833333333333335
			],
			"min":[
				0.041666666666666664
			],
			"type":"SCALAR"
		},
		{
			"bufferView":224,
			"componentType":5126,
			"count":50,
			"type":"VEC3"
		},
		{
			"bufferView":225,
			"componentType":5126,
			"count":50,
			"type":"VEC4"
		},
		{
			"bufferView":226,
			"componentType":5126,
			"count":2,
			"type":"VEC3"
		}
	],
	"bufferViews":[
		{
			"buffer":0,
			"byteLength":25152,
			"byteOffset":0,
			"target":34962
		},
		{
			"buffer":0,
			"byteLength":25152,
			"byteOffset":25152,
			"target":34962
		},
		{
			"buffer":0,
			"byteLength":16768,
			"byteOffset":50304,
			"target":34962
		},
		{
			"buffer":0,
			"byteLength":16768,
			"byteOffset":67072,
			"target":34962
		},
		{
			"buffer":0,
			"byteLength":16768,
			"byteOffset":83840,
			"target":34962
		},
		{
			"buffer":0,
			"byteLength":8384,
			"byteOffset":100608,
			"target":34962
		},
		{
			"buffer":0,
			"byteLength":33536,
			"byteOffset":108992,
			"target":34962
		},
		{
			"buffer":0,
			"byteLength":5760,
			"byteOffset":142528,
			"target":34963
		},
		{
			"buffer":0,
			"byteLength":432,
			"byteOffset":148288,
			"target":34962
		},
		{
			"buffer":0,
			"byteLength":432,
			"byteOffset":148720,
			"target":34962
		},
		{
			"buffer":0,
			"byteLength":288,
			"byteOffset":149152,
			"target":34962
		},
		{
			"buffer":0,
			"byteLength":288,
			"byteOffset":149440,
			"target":34962
		},
		{
			"buffer":0,
			"byteLength":288,
			"byteOffset":149728,
			"target":34962
		},
		{
			"buffer":0,
			"byteLength":144,
			"byteOffset":150016,
			"target":34962
		},
		{
			"buffer":0,
			"byteLength":576,
			"byteOffset":150160,
			"target":34962
		},
		{
			"buffer":0,
			"byteLength":120,
			"byteOffset":150736,
			"target":34963
		},
		{
			"buffer":0,
			"byteLength":6816,
			"byteOffset":150856,
			"target":34962
		},
		{
			"buffer":0,
			"byteLength":6816,
			"byteOffset":157672,
			"target":34962
		},
		{
			"buffer":0,
			"byteLength":4544,
			"byteOffset":164488,
			"target":34962
		},
		{
			"buffer":0,
			"byteLength":4544,
			"byteOffset":169032,
			"target":34962
		},
		{
			"buffer":0,
			"byteLength":4544,
			"byteOffset":173576,
			"target":34962
		},
		{
			"buffer":0,
			"byteLength":2272,
			"byteOffset":178120,
			"target":34962
		},
		{
			"buffer":0,
			"byteLength":9088,
			"byteOffset":180392,
			"target":34962
		},
		{
			"buffer":0,
			"byteLength":2016,
			"byteOffset":189480,
			"target":34963
		},
		{
			"buffer":0,
			"byteLength":1408,
			"byteOffset":191496
		},
		{
			"buffer":0,
			"byteLength":8,
			"byteOffset":192904
		},
		{
			"buffer":0,
			"byteLength":24,
			"byteOffset":192912
		},
		{
			"buffer":0,
			"byteLength":32,
			"byteOffset":192936
		},
		{
			"buffer":0,
			"byteLength":24,
			"byteOffset":192968
		},
		{
			"buffer":0,
			"byteLength":24,
			"byteOffset":192992
		},
		{
			"buffer":0,
			"byteLength":32,
			"byteOffset":193016
		},
		{
			"buffer":0,
			"byteLength":24,
			"byteOffset":193048
		},
		{
			"buffer":0,
			"byteLength":24,
			"byteOffset":193072
		},
		{
			"buffer":0,
			"byteLength":32,
			"byteOffset":193096
		},
		{
			"buffer":0,
			"byteLength":24,
			"byteOffset":193128
		},
		{
			"buffer":0,
			"byteLength":24,
			"byteOffset":193152
		},
		{
			"buffer":0,
			"byteLength":32,
			"byteOffset":193176
		},
		{
			"buffer":0,
			"byteLength":24,
			"byteOffset":193208
		},
		{
			"buffer":0,
			"byteLength":240,
			"byteOffset":193232
		},
		{
			"buffer":0,
			"byteLength":720,
			"byteOffset":193472
		},
		{
			"buffer":0,
			"byteLength":960,
			"byteOffset":194192
		},
		{
			"buffer":0,
			"byteLength":24,
			"byteOffset":195152
		},
		{
			"buffer":0,
			"byteLength":24,
			"byteOffset":195176
		},
		{
			"buffer":0,
			"byteLength":32,
			"byteOffset":195200
		},
		{
			"buffer":0,
			"byteLength":24,
			"byteOffset":195232
		},
		{
			"buffer":0,
			"byteLength":24,
			"byteOffset":195256
		},
		{
			"buffer":0,
			"byteLength":32,
			"byteOffset":195280
		},
		{
			"buffer":0,
			"byteLength":24,
			"byteOffset":195312
		},
		{
			"buffer":0,
			"byteLength":24,
			"byteOffset":195336
		},
		{
			"buffer":0,
			"byteLength":32,
			"byteOffset":195360
		},
		{
			"buffer":0,
			"byteLength":24,
			"byteOffset":195392
		},
		{
			"buffer":0,
			"byteLength":24,
			"byteOffset":195416
		},
		{
			"buffer":0,
			"byteLength":32,
			"byteOffset":195440
		},
		{
			"buffer":0,
			"byteLength":24,
			"byteOffset":195472
		},
		{
			"buffer":0,
			"byteLength":24,
			"byteOffset":195496
		},
		{
			"buffer":0,
			"byteLength":32,
			"byteOffset":195520
		},
		{
			"buffer":0,
			"byteLength":24,
			"byteOffset":195552
		},
		{
			"buffer":0,
			"byteLength":24,
			"byteOffset":195576
		},
		{
			"buffer":0,
			"byteLength":32,
			"byteOffset":195600
		},
		{
			"buffer":0,
			"byteLength":24,
			"byteOffset":195632
		},
		{
			"buffer":0,
			"byteLength":24,
			"byteOffset":195656
		},
		{
			"buffer":0,
			"byteLength":32,
			"byteOffset":195680
		},
		{
			"buffer":0,
			"byteLength":24,
			"byteOffset":195712
		},
		{
			"buffer":0,
			"byteLength":24,
			"byteOffset":195736
		},
		{
			"buffer":0,
			"byteLength":32,
			"byteOffset":195760
		},
		{
			"buffer":0,
			"byteLength":24,
			"byteOffset":195792
		},
		{
			"buffer":0,
			"byteLength":24,
			"byteOffset":195816
		},
		{
			"buffer":0,
			"byteLength":32,
			"byteOffset":195840
		},
		{
			"buffer":0,
			"byteLength":24,
			"byteOffset":195872
		},
		{
			"buffer":0,
			"byteLength":24,
			"byteOffset":195896
		},
		{
			"buffer":0,
			"byteLength":32,
			"byteOffset":195920
		},
		{
			"buffer":0,
			"byteLength":24,
			"byteOffset":195952
		},
		{
			"buffer":0,
			"byteLength":24,
			"byteOffset":195976
		},
		{
			"buffer":0,
			"byteLength":32,
			"byteOffset":196000
		},
		{
			"buffer":0,
			"byteLength":24,
			"byteOffset":196032
		},
		{
			"buffer":0,
			"byteLength":24,
			"byteOffset":196056
		},
		{
			"buffer":0,
			"byteLength":32,
			"byteOffset":196080
		},
		{
			"buffer":0,
			"byteLength":24,
			"byteOffset":196112
		},
		{
			"buffer":0,
			"byteLength":24,
			"byteOffset":196136
		},
		{
			"buffer":0,
			"byteLength":32,
			"byteOffset":196160
		},
		{
			"buffer":0,
			"byteLength":24,
			"byteOffset":196192
		},
		{
			"buffer":0,
			"byteLength":24,
			"byteOffset":196216
		},
		{
			"buffer":0,
			"byteLength":32,
			"byteOffset":196240
		},
		{
			"buffer":0,
			"byteLength":24,
			"byteOffset":196272
		},
		{
			"buffer":0,
			"byteLength":24,
			"byteOffset":196296
		},
		{
			"buffer":0,
			"byteLength":32,
			"byteOffset":196320
		},
		{
			"buffer":0,
			"byteLength":24,
			"byteOffset":196352
		},
		{
			"buffer":0,
			"byteLength":24,
			"byteOffset":196376
		},
		{
			"buffer":0,
			"byteLength":32,
			"byteOffset":196400
		},
		{
			"buffer":0,
			"byteLength":24,
			"byteOffset":196432
		},
		{
			"buffer":0,
			"byteLength":720,
			"byteOffset":196456
		},
		{
			"buffer":0,
			"byteLength":960,
			"byteOffset":197176
		},
		{
			"buffer":0,
			"byteLength":24,
			"byteOffset":198136
		},
		{
			"buffer":0,
			"byteLength":24,
			"byteOffset":198160
		},
		{
			"buffer":0,
			"byteLength":32,
			"byteOffset":198184
		},
		{
			"buffer":0,
			"byteLength":24,
			"byteOffset":198216
		},
		{
			"buffer":0,
			"byteLength":24,
			"byteOffset":198240
		},
		{
			"buffer":0,
			"byteLength":32,
			"byteOffset":198264
		},
		{
			"buffer":0,
			"byteLength":24,
			"byteOffset":198296
		},
		{
			"buffer":0,
			"byteLength":24,
			"byteOffset":198320
		},
		{
			"buffer":0,
			"byteLength":32,
			"byteOffset":198344
		},
		{
			"buffer":0,
			"byteLength":24,
			"byteOffset":198376
		},
		{
			"buffer":0,
			"byteLength":24,
			"byteOffset":198400
		},
		{
			"buffer":0,
			"byteLength":32,
			"byteOffset":198424
		},
		{
			"buffer":0,
			"byteLength":24,
			"byteOffset":198456
		},
		{
			"buffer":0,
			"byteLength":720,
			"byteOffset":198480
		},
		{
			"buffer":0,
			"byteLength":960,
			"byteOffset":199200
		},
		{
			"buffer":0,
			"byteLength":24,
			"byteOffset":200160
		},
		{
			"buffer":0,
			"byteLength":24,
			"byteOffset":200184
		},
		{
			"buffer":0,
			"byteLength":32,
			"byteOffset":200208
		},
		{
			"buffer":0,
			"byteLength":24,
			"byteOffset":200240
		},
		{
			"buffer":0,
			"byteLength":24,
			"byteOffset":200264
		},
		{
			"buffer":0,
			"byteLength":32,
			"byteOffset":200288
		},
		{
			"buffer":0,
			"byteLength":24,
			"byteOffset":200320
		},
		{
			"buffer":0,
			"byteLength":24,
			"byteOffset":200344
		},
		{
			"buffer":0,
			"byteLength":32,
			"byteOffset":200368
		},
		{
			"buffer":0,
			"byteLength":24,
			"byteOffset":200400
		},
		{
			"buffer":0,
			"byteLength":24,
			"byteOffset":200424
		},
		{
			"buffer":0,
			"byteLength":32,
			"byteOffset":200448
		},
		{
			"buffer":0,
			"byteLength":24,
			"byteOffset":200480
		},
		{
			"buffer":0,
			"byteLength":24,
			"byteOffset":200504
		},
		{
			"buffer":0,
			"byteLength":32,
			"byteOffset":200528
		},
		{
			"buffer":0,
			"byteLength":24,
			"byteOffset":200560
		},
		{
			"buffer":0,
			"byteLength":24,
			"byteOffset":200584
		},
		{
			"buffer":0,
			"byteLength":32,
			"byteOffset":200608
		},
		{
			"buffer":0,
			"byteLength":24,
			"byteOffset":200640
		},
		{
			"buffer":0,
			"byteLength":24,
			"byteOffset":200664
		},
		{
			"buffer":0,
			"byteLength":32,
			"byteOffset":200688
		},
		{
			"buffer":0,
			"byteLength":24,
			"byteOffset":200720
		},
		{
			"buffer":0,
			"byteLength":24,
			"byteOffset":200744
		},
		{
			"buffer":0,
			"byteLength":32,
			"byteOffset":200768
		},
		{
			"buffer":0,
			"byteLength":24,
			"byteOffset":200800
		},
		{
			"buffer":0,
			"byteLength":24,
			"byteOffset":200824
		},
		{
			"buffer":0,
			"byteLength":32,
			"byteOffset":200848
		},
		{
			"buffer":0,
			"byteLength":24,
			"byteOffset":200880
		},
		{
			"buffer":0,
			"byteLength":24,
			"byteOffset":200904
		},
		{
			"buffer":0,
			"byteLength":32,
			"byteOffset":200928
		},
		{
			"buffer":0,
			"byteLength":24,
			"byteOffset":200960
		},
		{
			"buffer":0,
			"byteLength":24,
			"byteOffset":200984
		},
		{
			"buffer":0,
			"byteLength":32,
			"byteOffset":201008
		},
		{
			"buffer":0,
			"byteLength":24,
			"byteOffset":201040
		},
		{
			"buffer":0,
			"byteLength":24,
			"byteOffset":201064
		},
		{
			"buffer":0,
			"byteLength":32,
			"byteOffset":201088
		},
		{
			"buffer":0,
			"byteLength":24,
			"byteOffset":201120
		},
		{
			"buffer":0,
			"byteLength":24,
			"byteOffset":201144
		},
		{
			"buffer":0,
			"byteLength":32,
			"byteOffset":201168
		},
		{
			"buffer":0,
			"byteLength":24,
			"byteOffset":201200
		},
		{
			"buffer":0,
			"byteLength":24,
			"byteOffset":201224
		},
		{
			"buffer":0,
			"byteLength":32,
			"byteOffset":201248
		},
		{
			"buffer":0,
			"byteLength":24,
			"byteOffset":201280
		},
		{
			"buffer":0,
			"byteLength":24,
			"byteOffset":201304
		},
		{
			"buffer":0,
			"byteLength":32,
			"byteOffset":201328
		},
		{
			"buffer":0,
			"byteLength":24,
			"byteOffset":201360
		},
		{
			"buffer":0,
			"byteLength":24,
			"byteOffset":201384
		},
		{
			"buffer":0,
			"byteLength":32,
			"byteOffset":201408
		},
		{
			"buffer":0,
			"byteLength":24,
			"byteOffset":201440
		},
		{
			"buffer":0,
			"byteLength":720,
			"byteOffset":201464
		},
		{
			"buffer":0,
			"byteLength":960,
			"byteOffset":202184
		},
		{
			"buffer":0,
			"byteLength":24,
			"byteOffset":203144
		},
		{
			"buffer":0,
			"byteLength":8,
			"byteOffset":203168
		},
		{
			"buffer":0,
			"byteLength":24,
			"byteOffset":203176
		},
		{
			"buffer":0,
			"byteLength":32,
			"byteOffset":203200
		},
		{
			"buffer":0,
			"byteLength":24,
			"byteOffset":203232
		},
		{
			"buffer":0,
			"byteLength":24,
			"byteOffset":203256
		},
		{
			"buffer":0,
			"byteLength":32,
			"byteOffset":203280
		},
		{
			"buffer":0,
			"byteLength":24,
			"byteOffset":203312
		},
		{
			"buffer":0,
			"byteLength":24,
			"byteOffset":203336
		},
		{
			"buffer":0,
			"byteLength":32,
			"byteOffset":203360
		},
		{
			"buffer":0,
			"byteLength":24,
			"byteOffset":203392
		},
		{
			"buffer":0,
			"byteLength":24,
			"byteOffset":203416
		},
		{
			"buffer":0,
			"byteLength":32,
			"byteOffset":203440
		},
		{
			"buffer":0,
			"byteLength":24,
			"byteOffset":203472
		},
		{
			"buffer":0,
			"byteLength":24,
			"byteOffset":203496
		},
		{
			"buffer":0,
			"byteLength":32,
			"byteOffset":203520
		},
		{
			"buffer":0,
			"byteLength":24,
			"byteOffset":203552
		},
		{
			"buffer":0,
			"byteLength":24,
			"byteOffset":203576
		},
		{
			"buffer":0,
			"byteLength":32,
			"byteOffset":203600
		},
		{
			"buffer":0,
			"byteLength":24,
			"byteOffset":203632
		},
		{
			"buffer":0,
			"byteLength":24,
			"byteOffset":203656
		},
		{
			"buffer":0,
			"byteLength":32,
			"byteOffset":203680
		},
		{
			"buffer":0,
			"byteLength":24,
			"byteOffset":203712
		},
		{
			"buffer":0,
			"byteLength":24,
			"byteOffset":203736
		},
		{
			"buffer":0,
			"byteLength":32,
			"byteOffset":203760
		},
		{
			"buffer":0,
			"byteLength":24,
			"byteOffset":203792
		},
		{
			"buffer":0,
			"byteLength":24,
			"byteOffset":203816
		},
		{
			"buffer":0,
			"byteLength":32,
			"byteOffset":203840
		},
		{
			"buffer":0,
			"byteLength":24,
			"byteOffset":203872
		},
		{
			"buffer":0,
			"byteLength":24,
			"byteOffset":203896
		},
		{
			"buffer":0,
			"byteLength":32,
			"byteOffset":203920
		},
		{
			"buffer":0,
			"byteLength":24,
			"byteOffset":203952
		},
		{
			"buffer":0,
			"byteLength":24,
			"byteOffset":203976
		},
		{
			"buffer":0,
			"byteLength":32,
			"byteOffset":204000
		},
		{
			"buffer":0,
			"byteLength":24,
			"byteOffset":204032
		},
		{
			"buffer":0,
			"byteLength":24,
			"byteOffset":204056
		},
		{
			"buffer":0,
			"byteLength":32,
			"byteOffset":204080
		},
		{
			"buffer":0,
			"byteLength":24,
			"byteOffset":204112
		},
		{
			"buffer":0,
			"byteLength":24,
			"byteOffset":204136
		},
		{
			"buffer":0,
			"byteLength":32,
			"byteOffset":204160
		},
		{
			"buffer":0,
			"byteLength":24,
			"byteOffset":204192
		},
		{
			"buffer":0,
			"byteLength":24,
			"byteOffset":204216
		},
		{
			"buffer":0,
			"byteLength":32,
			"byteOffset":204240
		},
		{
			"buffer":0,
			"byteLength":24,
			"byteOffset":204272
		},
		{
			"buffer":0,
			"byteLength":24,
			"byteOffset":204296
		},
		{
			"buffer":0,
			"byteLength":32,
			"byteOffset":204320
		},
		{
			"buffer":0,
			"byteLength":24,
			"byteOffset":204352
		},
		{
			"buffer":0,
			"byteLength":24,
			"byteOffset":204376
		},
		{
			"buffer":0,
			"byteLength":32,
			"byteOffset":204400
		},
		{
			"buffer":0,
			"byteLength":24,
			"byteOffset":204432
		},
		{
			"buffer":0,
			"byteLength":24,
			"byteOffset":204456
		},
		{
			"buffer":0,
			"byteLength":32,
			"byteOffset":204480
		},
		{
			"buffer":0,
			"byteLength":24,
			"byteOffset":204512
		},
		{
			"buffer":0,
			"byteLength":24,
			"byteOffset":204536
		},
		{
			"buffer":0,
			"byteLength":32,
			"byteOffset":204560
		},
		{
			"buffer":0,
			"byteLength":24,
			"byteOffset":204592
		},
		{
			"buffer":0,
			"byteLength":24,
			"byteOffset":204616
		},
		{
			"buffer":0,
			"byteLength":32,
			"byteOffset":204640
		},
		{
			"buffer":0,
			"byteLength":24,
			"byteOffset":204672
		},
		{
			"buffer":0,
			"byteLength":24,
			"byteOffset":204696
		},
		{
			"buffer":0,
			"byteLength":32,
			"byteOffset":204720
		},
		{
			"buffer":0,
			"byteLength":24,
			"byteOffset":204752
		},
		{
			"buffer":0,
			"byteLength":24,
			"byteOffset":204776
		},
		{
			"buffer":0,
			"byteLength":32,
			"byteOffset":204800
		},
		{
			"buffer":0,
			"byteLength":24,
			"byteOffset":204832
		},
		{
			"buffer":0,
			"byteLength":200,
			"byteOffset":204856
		},
		{
			"buffer":0,
			"byteLength":600,
			"byteOffset":205056
		},
		{
			"buffer":0,
			"byteLength":800,
			"byteOffset":205656
		},
		{
			"buffer":0,
			"byteLength":24,
			"byteOffset":206456
		}
	],
	"samplers":[
		{
			"magFilter":9729,
			"minFilter":9987
		}
	],
	"buffers":[
		{
			"byteLength":206480,
			"uri":"newBossModel.bin"
		}
	]
}
