# Blender 5.0.0
# www.blender.org
mtllib player.mtl
o Dummy
v 0.000000 1.667189 0.000000
v 0.000000 1.614720 -0.172968
v 0.000000 1.528823 -0.258864
v 0.000000 1.416594 -0.305351
v 0.000000 1.355856 -0.311334
v 0.000000 1.295117 -0.305351
v 0.000000 1.182888 -0.258864
v 0.000000 1.044522 0.000000
v 0.011849 1.661207 -0.059571
v 0.023243 1.643490 -0.116853
v 0.033744 1.614720 -0.169644
v 0.042948 1.576002 -0.215916
v 0.050502 1.528823 -0.253890
v 0.056115 1.474998 -0.282108
v 0.059571 1.416594 -0.299484
v 0.060738 1.355856 -0.305351
v 0.059571 1.295117 -0.299484
v 0.056115 1.236713 -0.282108
v 0.050502 1.182888 -0.253890
v 0.042948 1.135709 -0.215916
v 0.033744 1.096991 -0.169644
v 0.023243 1.068221 -0.116853
v 0.011849 1.050504 -0.059571
v 0.023243 1.661207 -0.056115
v 0.045594 1.643490 -0.110073
v 0.066192 1.614720 -0.159801
v 0.084246 1.576002 -0.203388
v 0.099063 1.528823 -0.239160
v 0.110073 1.474998 -0.265740
v 0.116853 1.416594 -0.282108
v 0.119142 1.355856 -0.287635
v 0.116853 1.295117 -0.282108
v 0.110073 1.236713 -0.265740
v 0.099063 1.182888 -0.239160
v 0.084246 1.135709 -0.203388
v 0.066192 1.096991 -0.159801
v 0.045594 1.068221 -0.110073
v 0.023243 1.050504 -0.056115
v 0.033744 1.661207 -0.050502
v 0.066192 1.643490 -0.099063
v 0.096096 1.614720 -0.143817
v 0.122307 1.576002 -0.183045
v 0.143817 1.528823 -0.215238
v 0.159801 1.474998 -0.239160
v 0.169644 1.416594 -0.253890
v 0.172968 1.355856 -0.258864
v 0.169644 1.295117 -0.253890
v 0.159801 1.236713 -0.239160
v 0.143817 1.182888 -0.215238
v 0.122307 1.135709 -0.183045
v 0.096096 1.096991 -0.143817
v 0.066192 1.068221 -0.099063
v 0.033744 1.050504 -0.050502
v 0.042948 1.661207 -0.042948
v 0.084246 1.643490 -0.084246
v 0.122307 1.614720 -0.122307
v 0.155667 1.576002 -0.155667
v 0.183045 1.528823 -0.183045
v 0.203388 1.474998 -0.203388
v 0.215916 1.416594 -0.215916
v 0.220146 1.355856 -0.220146
v 0.215916 1.295117 -0.215916
v 0.203388 1.236713 -0.203388
v 0.183045 1.182888 -0.183045
v 0.155667 1.135709 -0.155667
v 0.122307 1.096991 -0.122307
v 0.084246 1.068221 -0.084246
v 0.042948 1.050504 -0.042948
v 0.050502 1.661207 -0.033744
v 0.099063 1.643490 -0.066192
v 0.143817 1.614720 -0.096096
v 0.183045 1.576002 -0.122307
v 0.215238 1.528823 -0.143817
v 0.239160 1.474998 -0.159801
v 0.253890 1.416594 -0.169644
v 0.258864 1.355856 -0.172968
v 0.253890 1.295117 -0.169644
v 0.239160 1.236713 -0.159801
v 0.215238 1.182888 -0.143817
v 0.183045 1.135709 -0.122307
v 0.143817 1.096991 -0.096096
v 0.099063 1.068221 -0.066192
v 0.050502 1.050504 -0.033744
v 0.056115 1.661207 -0.023243
v 0.110073 1.643490 -0.045594
v 0.159801 1.614720 -0.066192
v 0.203388 1.576002 -0.084246
v 0.239160 1.528823 -0.099063
v 0.265740 1.474998 -0.110073
v 0.282108 1.416594 -0.116853
v 0.287635 1.355856 -0.119142
v 0.282108 1.295117 -0.116853
v 0.265740 1.236713 -0.110073
v 0.239160 1.182888 -0.099063
v 0.203388 1.135709 -0.084246
v 0.159801 1.096991 -0.066192
v 0.110073 1.068221 -0.045594
v 0.056115 1.050504 -0.023243
v 0.059571 1.661207 -0.011849
v 0.116853 1.643490 -0.023243
v 0.169644 1.614720 -0.033744
v 0.215916 1.576002 -0.042948
v 0.253890 1.528823 -0.050502
v 0.282108 1.474998 -0.056115
v 0.299484 1.416594 -0.059571
v 0.305351 1.355856 -0.060738
v 0.299484 1.295117 -0.059571
v 0.282108 1.236713 -0.056115
v 0.253890 1.182888 -0.050502
v 0.215916 1.135709 -0.042948
v 0.169644 1.096991 -0.033744
v 0.116853 1.068221 -0.023243
v 0.059571 1.050504 -0.011849
v 0.060738 1.661207 0.000000
v 0.119142 1.643490 0.000000
v 0.172968 1.614720 0.000000
v 0.220146 1.576002 -0.000000
v 0.258864 1.528823 0.000000
v 0.287635 1.474998 -0.000000
v 0.305351 1.416594 0.000000
v 0.311334 1.355856 0.000000
v 0.305351 1.295117 0.000000
v 0.287635 1.236713 -0.000000
v 0.258864 1.182888 0.000000
v 0.220146 1.135709 -0.000000
v 0.172968 1.096991 0.000000
v 0.119142 1.068221 0.000000
v 0.060738 1.050504 0.000000
v 0.059571 1.661207 0.011849
v 0.116853 1.643490 0.023244
v 0.169644 1.614720 0.033744
v 0.215916 1.576002 0.042948
v 0.253890 1.528823 0.050502
v 0.282108 1.474998 0.056115
v 0.299484 1.416594 0.059571
v 0.305351 1.355856 0.060738
v 0.299484 1.295117 0.059571
v 0.282108 1.236713 0.056115
v 0.253890 1.182888 0.050502
v 0.215916 1.135709 0.042948
v 0.169644 1.096991 0.033744
v 0.116853 1.068221 0.023244
v 0.059571 1.050504 0.011849
v 0.056115 1.661207 0.023243
v 0.110073 1.643490 0.045594
v 0.159801 1.614720 0.066192
v 0.203388 1.576002 0.084246
v 0.239160 1.528823 0.099063
v 0.265740 1.474998 0.110073
v 0.282108 1.416594 0.116853
v 0.287635 1.355856 0.119142
v 0.282108 1.295117 0.116853
v 0.265740 1.236713 0.110073
v 0.239160 1.182888 0.099063
v 0.203388 1.135709 0.084246
v 0.159801 1.096991 0.066192
v 0.110073 1.068221 0.045594
v 0.056115 1.050504 0.023243
v 0.050502 1.661207 0.033744
v 0.099063 1.643490 0.066192
v 0.143817 1.614720 0.096096
v 0.183045 1.576002 0.122307
v 0.215238 1.528823 0.143817
v 0.239160 1.474998 0.159801
v 0.253890 1.416594 0.169644
v 0.258864 1.355856 0.172968
v 0.253890 1.295117 0.169644
v 0.239160 1.236713 0.159801
v 0.215238 1.182888 0.143817
v 0.183045 1.135709 0.122307
v 0.143817 1.096991 0.096096
v 0.099063 1.068221 0.066192
v 0.050502 1.050504 0.033744
v 0.042948 1.661207 0.042948
v 0.084246 1.643490 0.084246
v 0.122307 1.614720 0.122307
v 0.155667 1.576002 0.155667
v 0.183045 1.528823 0.183045
v 0.203388 1.474998 0.203388
v 0.215916 1.416594 0.215916
v 0.220146 1.355856 0.220146
v 0.215916 1.295117 0.215916
v 0.203388 1.236713 0.203388
v 0.183045 1.182888 0.183045
v 0.155667 1.135709 0.155667
v 0.122307 1.096991 0.122307
v 0.084246 1.068221 0.084246
v 0.042948 1.050504 0.042948
v 0.033744 1.661207 0.050502
v 0.066192 1.643490 0.099063
v 0.096096 1.614720 0.143817
v 0.122307 1.576002 0.183045
v 0.143817 1.528823 0.215238
v 0.159801 1.474998 0.239160
v 0.169644 1.416594 0.253890
v 0.172968 1.355856 0.258864
v 0.169644 1.295117 0.253890
v 0.159801 1.236713 0.239160
v 0.143817 1.182888 0.215238
v 0.122307 1.135709 0.183045
v 0.096096 1.096991 0.143817
v 0.066192 1.068221 0.099063
v 0.033744 1.050504 0.050502
v 0.023243 1.661207 0.056115
v 0.045594 1.643490 0.110073
v 0.066192 1.614720 0.159801
v 0.084246 1.576002 0.203388
v 0.099063 1.528823 0.239160
v 0.110073 1.474998 0.265740
v 0.116853 1.416594 0.282108
v 0.119142 1.355856 0.287635
v 0.116853 1.295117 0.282108
v 0.110073 1.236713 0.265740
v 0.099063 1.182888 0.239160
v 0.084246 1.135709 0.203388
v 0.066192 1.096991 0.159801
v 0.045594 1.068221 0.110073
v 0.023243 1.050504 0.056115
v 0.011849 1.661207 0.059571
v 0.023243 1.643490 0.116853
v 0.033744 1.614720 0.169644
v 0.042948 1.576002 0.215916
v 0.050502 1.528823 0.253890
v 0.056115 1.474998 0.282108
v 0.059571 1.416594 0.299484
v 0.060738 1.355856 0.305351
v 0.059571 1.295117 0.299484
v 0.056115 1.236713 0.282108
v 0.050502 1.182888 0.253890
v 0.042948 1.135709 0.215916
v 0.033744 1.096991 0.169644
v 0.023243 1.068221 0.116853
v 0.011849 1.050504 0.059571
v -0.000000 1.661207 0.060738
v -0.000000 1.643490 0.119142
v -0.000000 1.614720 0.172968
v -0.000000 1.576002 0.220146
v -0.000000 1.528823 0.258864
v 0.000000 1.474998 0.287635
v -0.000000 1.416594 0.305351
v -0.000000 1.355856 0.311333
v -0.000000 1.295117 0.305351
v 0.000000 1.236713 0.287635
v -0.000000 1.182888 0.258864
v -0.000000 1.135709 0.220146
v -0.000000 1.096991 0.172968
v -0.000000 1.068221 0.119142
v -0.000000 1.050504 0.060738
v -0.011849 1.661207 0.059571
v -0.023244 1.643490 0.116853
v -0.033744 1.614720 0.169644
v -0.042948 1.576002 0.215916
v -0.050502 1.528823 0.253890
v -0.056115 1.474998 0.282108
v -0.059571 1.416594 0.299484
v -0.060738 1.355856 0.305351
v -0.059571 1.295117 0.299484
v -0.056115 1.236713 0.282108
v -0.050502 1.182888 0.253890
v -0.042948 1.135709 0.215916
v -0.033744 1.096991 0.169644
v -0.023244 1.068221 0.116853
v -0.011849 1.050504 0.059571
v -0.023243 1.661207 0.056115
v -0.045594 1.643490 0.110073
v -0.066192 1.614720 0.159801
v -0.084246 1.576002 0.203388
v -0.099063 1.528823 0.239159
v -0.110073 1.474998 0.265740
v -0.116853 1.416594 0.282108
v -0.119142 1.355856 0.287635
v -0.116853 1.295117 0.282108
v -0.110073 1.236713 0.265740
v -0.099063 1.182888 0.239159
v -0.084246 1.135709 0.203388
v -0.066192 1.096991 0.159801
v -0.045594 1.068221 0.110073
v -0.023243 1.050504 0.056115
v -0.033744 1.661207 0.050502
v -0.066192 1.643490 0.099063
v -0.096096 1.614720 0.143817
v -0.122307 1.576002 0.183045
v -0.143817 1.528823 0.215238
v -0.159801 1.474998 0.239160
v -0.169644 1.416594 0.253890
v -0.172968 1.355856 0.258864
v -0.169644 1.295117 0.253890
v -0.159801 1.236713 0.239160
v -0.143817 1.182888 0.215238
v -0.122307 1.135709 0.183045
v -0.096096 1.096991 0.143817
v -0.066192 1.068221 0.099063
v -0.033744 1.050504 0.050502
v -0.042948 1.661207 0.042948
v -0.084246 1.643490 0.084246
v -0.122307 1.614720 0.122307
v -0.155667 1.576002 0.155667
v -0.183045 1.528823 0.183045
v -0.203388 1.474998 0.203388
v -0.215916 1.416594 0.215916
v -0.220146 1.355856 0.220146
v -0.215916 1.295117 0.215916
v -0.203388 1.236713 0.203388
v -0.183045 1.182888 0.183045
v -0.155667 1.135709 0.155667
v -0.122307 1.096991 0.122307
v -0.084246 1.068221 0.084246
v -0.042948 1.050504 0.042948
v -0.050502 1.661207 0.033744
v -0.099063 1.643490 0.066192
v -0.143817 1.614720 0.096096
v -0.183045 1.576002 0.122307
v -0.215238 1.528823 0.143817
v -0.239159 1.474998 0.159801
v -0.253890 1.416594 0.169644
v -0.258864 1.355856 0.172967
v -0.253890 1.295117 0.169644
v -0.239159 1.236713 0.159801
v -0.215238 1.182888 0.143817
v -0.183045 1.135709 0.122307
v -0.143817 1.096991 0.096096
v -0.099063 1.068221 0.066192
v -0.050502 1.050504 0.033744
v -0.056115 1.661207 0.023243
v -0.110073 1.643490 0.045594
v -0.159801 1.614720 0.066192
v -0.203388 1.576002 0.084246
v -0.239159 1.528823 0.099063
v -0.265740 1.474998 0.110073
v -0.282108 1.416594 0.116853
v -0.287635 1.355856 0.119142
v -0.282108 1.295117 0.116853
v -0.265740 1.236713 0.110073
v -0.239159 1.182888 0.099063
v -0.203388 1.135709 0.084246
v -0.159801 1.096991 0.066192
v -0.110073 1.068221 0.045594
v -0.056115 1.050504 0.023243
v -0.059571 1.661207 0.011849
v -0.116853 1.643490 0.023243
v -0.169644 1.614720 0.033744
v -0.215916 1.576002 0.042948
v -0.253890 1.528823 0.050502
v -0.282108 1.474998 0.056115
v -0.299484 1.416594 0.059571
v -0.305351 1.355856 0.060738
v -0.299484 1.295117 0.059571
v -0.282108 1.236713 0.056115
v -0.253890 1.182888 0.050502
v -0.215916 1.135709 0.042948
v -0.169644 1.096991 0.033744
v -0.116853 1.068221 0.023243
v -0.059571 1.050504 0.011849
v -0.060738 1.661207 -0.000000
v -0.119142 1.643490 -0.000000
v -0.172968 1.614720 -0.000000
v -0.220146 1.576002 -0.000000
v -0.258864 1.528823 -0.000000
v -0.287635 1.474998 -0.000000
v -0.305351 1.416594 -0.000000
v -0.311333 1.355856 -0.000000
v -0.305351 1.295117 -0.000000
v -0.287635 1.236713 -0.000000
v -0.258864 1.182888 -0.000000
v -0.220146 1.135709 -0.000000
v -0.172968 1.096991 -0.000000
v -0.119142 1.068221 -0.000000
v -0.060738 1.050504 -0.000000
v -0.059571 1.661207 -0.011849
v -0.116853 1.643490 -0.023244
v -0.169644 1.614720 -0.033744
v -0.215916 1.576002 -0.042948
v -0.253890 1.528823 -0.050502
v -0.282108 1.474998 -0.056115
v -0.299484 1.416594 -0.059571
v -0.305351 1.355856 -0.060738
v -0.299484 1.295117 -0.059571
v -0.282108 1.236713 -0.056115
v -0.253890 1.182888 -0.050502
v -0.215916 1.135709 -0.042948
v -0.169644 1.096991 -0.033744
v -0.116853 1.068221 -0.023244
v -0.059571 1.050504 -0.011849
v -0.056115 1.661207 -0.023243
v -0.110073 1.643490 -0.045594
v -0.159801 1.614720 -0.066192
v -0.203388 1.576002 -0.084246
v -0.239159 1.528823 -0.099063
v -0.265740 1.474998 -0.110073
v -0.282108 1.416594 -0.116853
v -0.287634 1.355856 -0.119142
v -0.282108 1.295117 -0.116853
v -0.265740 1.236713 -0.110073
v -0.239159 1.182888 -0.099063
v -0.203388 1.135709 -0.084246
v -0.159801 1.096991 -0.066192
v -0.110073 1.068221 -0.045594
v -0.056115 1.050504 -0.023243
v -0.050502 1.661207 -0.033744
v -0.099063 1.643490 -0.066192
v -0.143817 1.614720 -0.096096
v -0.183045 1.576002 -0.122307
v -0.215238 1.528823 -0.143817
v -0.239159 1.474998 -0.159801
v -0.253890 1.416594 -0.169644
v -0.258864 1.355856 -0.172968
v -0.253890 1.295117 -0.169644
v -0.239159 1.236713 -0.159801
v -0.215238 1.182888 -0.143817
v -0.183045 1.135709 -0.122307
v -0.143817 1.096991 -0.096096
v -0.099063 1.068221 -0.066192
v -0.050502 1.050504 -0.033744
v -0.042948 1.661207 -0.042948
v -0.084246 1.643490 -0.084246
v -0.122306 1.614720 -0.122307
v -0.155667 1.576002 -0.155667
v -0.183045 1.528823 -0.183045
v -0.203388 1.474998 -0.203388
v -0.215916 1.416594 -0.215916
v -0.220146 1.355856 -0.220146
v -0.215916 1.295117 -0.215916
v -0.203388 1.236713 -0.203388
v -0.183045 1.182888 -0.183045
v -0.155667 1.135709 -0.155667
v -0.122306 1.096991 -0.122307
v -0.084246 1.068221 -0.084246
v -0.042948 1.050504 -0.042948
v -0.033744 1.661207 -0.050502
v -0.066192 1.643490 -0.099063
v -0.096096 1.614720 -0.143817
v -0.122307 1.576002 -0.183045
v -0.143817 1.528823 -0.215238
v -0.159801 1.474998 -0.239159
v -0.169644 1.416594 -0.253890
v -0.172967 1.355856 -0.258864
v -0.169644 1.295117 -0.253890
v -0.159801 1.236713 -0.239159
v -0.143817 1.182888 -0.215238
v -0.122307 1.135709 -0.183045
v -0.096096 1.096991 -0.143817
v -0.066192 1.068221 -0.099063
v -0.033744 1.050504 -0.050502
v -0.023243 1.661207 -0.056115
v -0.045594 1.643490 -0.110073
v -0.066192 1.614720 -0.159801
v -0.084246 1.576002 -0.203388
v -0.099063 1.528823 -0.239159
v -0.110073 1.474998 -0.265740
v -0.116853 1.416594 -0.282108
v -0.119142 1.355856 -0.287634
v -0.116853 1.295117 -0.282108
v -0.110073 1.236713 -0.265740
v -0.099063 1.182888 -0.239159
v -0.084246 1.135709 -0.203388
v -0.066192 1.096991 -0.159801
v -0.045594 1.068221 -0.110073
v -0.023243 1.050504 -0.056115
v -0.011849 1.661207 -0.059571
v -0.023243 1.643490 -0.116853
v -0.033744 1.614720 -0.169644
v -0.042948 1.576002 -0.215916
v -0.050502 1.528823 -0.253890
v -0.056115 1.474998 -0.282108
v -0.059571 1.416594 -0.299484
v -0.060738 1.355856 -0.305351
v -0.059571 1.295117 -0.299484
v -0.056115 1.236713 -0.282108
v -0.050502 1.182888 -0.253890
v -0.042948 1.135709 -0.215916
v -0.033744 1.096991 -0.169644
v -0.023243 1.068221 -0.116853
v -0.011849 1.050504 -0.059571
v 0.000000 1.661207 -0.060738
v 0.000000 1.643490 -0.119142
v 0.000000 1.576002 -0.220146
v 0.000000 1.474998 -0.287635
v 0.000000 1.236713 -0.287635
v 0.000000 1.135709 -0.220146
v 0.000000 1.096991 -0.172967
v 0.000000 1.068221 -0.119142
v 0.000000 1.050504 -0.060738
v 0.168823 1.055059 -0.168823
v 0.168823 0.015100 -0.168823
v 0.168823 1.055059 0.168823
v 0.168823 0.015100 0.168823
v -0.168823 1.055059 -0.168823
v -0.168823 0.015100 -0.168823
v -0.168823 1.055059 0.168823
v -0.168823 0.015100 0.168823
vn -0.0000 -0.3805 -0.9248
vn 0.1626 -0.5528 -0.8173
vn -0.0000 -0.5528 -0.8333
vn -0.0000 0.7041 -0.7101
vn 0.1092 0.8286 -0.5490
vn 0.1385 0.7041 -0.6965
vn -0.0000 -0.7041 -0.7101
vn 0.1385 -0.7041 -0.6965
vn 0.1626 0.5528 -0.8173
vn -0.0000 0.5528 -0.8333
vn 0.1092 -0.8286 -0.5490
vn -0.0000 -0.8286 -0.5598
vn -0.0000 0.3805 -0.9248
vn 0.1804 0.3805 -0.9070
vn 0.0757 -0.9217 -0.3804
vn -0.0000 -0.9217 -0.3879
vn -0.0000 0.1939 -0.9810
vn 0.1914 0.1939 -0.9622
vn 0.0392 -0.9796 -0.1971
vn -0.0000 -0.9796 -0.2010
vn 0.1951 -0.0000 -0.9808
vn -0.0000 -0.0000 -1.0000
vn -0.0000 0.9796 -0.2010
vn -0.0000 1.0000 -0.0000
vn 0.0392 0.9796 -0.1971
vn -0.0000 -1.0000 -0.0000
vn 0.1914 -0.1939 -0.9622
vn -0.0000 -0.1939 -0.9810
vn -0.0000 0.9217 -0.3879
vn 0.0757 0.9217 -0.3804
vn 0.1804 -0.3805 -0.9070
vn -0.0000 0.8286 -0.5598
vn 0.3539 -0.3805 -0.8544
vn 0.2142 0.8286 -0.5172
vn 0.3189 -0.5528 -0.7699
vn 0.2718 0.7041 -0.6561
vn 0.2718 -0.7041 -0.6561
vn 0.3189 0.5528 -0.7699
vn 0.2142 -0.8286 -0.5172
vn 0.3539 0.3805 -0.8544
vn 0.1484 -0.9217 -0.3584
vn 0.3754 0.1939 -0.9063
vn 0.0769 -0.9796 -0.1857
vn 0.3827 -0.0000 -0.9239
vn 0.0769 0.9796 -0.1857
vn 0.3754 -0.1939 -0.9063
vn 0.1484 0.9217 -0.3584
vn 0.3110 -0.8286 -0.4654
vn 0.2155 -0.9217 -0.3225
vn 0.5138 0.3805 -0.7689
vn 0.5450 0.1939 -0.8157
vn 0.1117 -0.9796 -0.1671
vn 0.5556 -0.0000 -0.8315
vn 0.1117 0.9796 -0.1671
vn 0.5450 -0.1939 -0.8157
vn 0.2155 0.9217 -0.3225
vn 0.5138 -0.3805 -0.7689
vn 0.3110 0.8286 -0.4654
vn 0.4630 -0.5528 -0.6929
vn 0.3945 0.7041 -0.5905
vn 0.3945 -0.7041 -0.5905
vn 0.4630 0.5528 -0.6929
vn 0.3958 0.8286 -0.3958
vn 0.6539 -0.3805 -0.6539
vn 0.5893 -0.5528 -0.5893
vn 0.5021 0.7041 -0.5021
vn 0.5021 -0.7041 -0.5021
vn 0.5893 0.5528 -0.5893
vn 0.3958 -0.8286 -0.3958
vn 0.6539 0.3805 -0.6539
vn 0.2743 -0.9217 -0.2743
vn 0.6937 0.1939 -0.6937
vn 0.1421 -0.9796 -0.1421
vn 0.7071 -0.0000 -0.7071
vn 0.1421 0.9796 -0.1421
vn 0.6937 -0.1939 -0.6937
vn 0.2743 0.9217 -0.2743
vn 0.7689 0.3805 -0.5138
vn 0.8157 0.1939 -0.5450
vn 0.1671 -0.9796 -0.1117
vn 0.8315 -0.0000 -0.5556
vn 0.1671 0.9796 -0.1117
vn 0.8157 -0.1939 -0.5450
vn 0.3225 0.9217 -0.2155
vn 0.7689 -0.3805 -0.5138
vn 0.4654 0.8286 -0.3110
vn 0.6929 -0.5528 -0.4630
vn 0.5905 0.7041 -0.3945
vn 0.5905 -0.7041 -0.3945
vn 0.6929 0.5528 -0.4630
vn 0.4654 -0.8286 -0.3110
vn 0.3225 -0.9217 -0.2155
vn 0.8544 -0.3805 -0.3539
vn 0.7699 -0.5528 -0.3189
vn 0.6561 0.7041 -0.2718
vn 0.6561 -0.7041 -0.2718
vn 0.7699 0.5528 -0.3189
vn 0.5172 -0.8286 -0.2142
vn 0.8544 0.3805 -0.3539
vn 0.3584 -0.9217 -0.1484
vn 0.9063 0.1939 -0.3754
vn 0.1857 -0.9796 -0.0769
vn 0.9239 -0.0000 -0.3827
vn 0.1857 0.9796 -0.0769
vn 0.9063 -0.1939 -0.3754
vn 0.3584 0.9217 -0.1484
vn 0.5172 0.8286 -0.2142
vn 0.1971 -0.9796 -0.0392
vn 0.9622 0.1939 -0.1914
vn 0.9808 -0.0000 -0.1951
vn 0.1971 0.9796 -0.0392
vn 0.9622 -0.1939 -0.1914
vn 0.3804 0.9217 -0.0757
vn 0.9070 -0.3805 -0.1804
vn 0.5490 0.8286 -0.1092
vn 0.8173 -0.5528 -0.1626
vn 0.6965 0.7041 -0.1385
vn 0.6965 -0.7041 -0.1385
vn 0.8173 0.5528 -0.1626
vn 0.5490 -0.8286 -0.1092
vn 0.9070 0.3805 -0.1804
vn 0.3804 -0.9217 -0.0757
vn 0.7101 -0.7041 -0.0000
vn 0.7101 0.7041 -0.0000
vn 0.8333 0.5528 -0.0000
vn 0.5598 -0.8286 -0.0000
vn 0.9248 0.3805 -0.0000
vn 0.3879 -0.9217 -0.0000
vn 0.9810 0.1939 -0.0000
vn 0.2010 -0.9796 -0.0000
vn 1.0000 -0.0000 -0.0000
vn 0.2010 0.9796 -0.0000
vn 0.9810 -0.1939 -0.0000
vn 0.3879 0.9217 -0.0000
vn 0.9248 -0.3805 -0.0000
vn 0.5598 0.8286 -0.0000
vn 0.8333 -0.5528 -0.0000
vn 0.1971 0.9796 0.0392
vn 0.1971 -0.9796 0.0392
vn 0.9622 -0.1939 0.1914
vn 0.3804 0.9217 0.0757
vn 0.9070 -0.3805 0.1804
vn 0.5490 0.8286 0.1092
vn 0.8173 -0.5528 0.1626
vn 0.6965 0.7041 0.1385
vn 0.6965 -0.7041 0.1385
vn 0.8173 0.5528 0.1626
vn 0.5490 -0.8286 0.1092
vn 0.9070 0.3805 0.1804
vn 0.3804 -0.9217 0.0757
vn 0.9622 0.1939 0.1914
vn 0.9808 -0.0000 0.1951
vn 0.6561 0.7041 0.2718
vn 0.7699 0.5528 0.3189
vn 0.6561 -0.7041 0.2718
vn 0.5172 -0.8286 0.2142
vn 0.8544 0.3805 0.3539
vn 0.3584 -0.9217 0.1484
vn 0.9063 0.1939 0.3754
vn 0.1857 -0.9796 0.0769
vn 0.9239 -0.0000 0.3827
vn 0.1857 0.9796 0.0769
vn 0.9063 -0.1939 0.3754
vn 0.3584 0.9217 0.1484
vn 0.8544 -0.3805 0.3539
vn 0.5172 0.8286 0.2142
vn 0.7699 -0.5528 0.3189
vn 0.8157 -0.1939 0.5450
vn 0.3225 0.9217 0.2155
vn 0.7689 -0.3805 0.5138
vn 0.4654 0.8286 0.3110
vn 0.6929 -0.5528 0.4630
vn 0.5905 0.7041 0.3945
vn 0.5905 -0.7041 0.3945
vn 0.6929 0.5528 0.4630
vn 0.4654 -0.8286 0.3110
vn 0.7689 0.3805 0.5138
vn 0.3225 -0.9217 0.2155
vn 0.8157 0.1939 0.5450
vn 0.1671 -0.9796 0.1117
vn 0.8315 -0.0000 0.5556
vn 0.1671 0.9796 0.1117
vn 0.5021 -0.7041 0.5021
vn 0.3958 -0.8286 0.3958
vn 0.6539 0.3805 0.6539
vn 0.2743 -0.9217 0.2743
vn 0.6937 0.1939 0.6937
vn 0.1421 -0.9796 0.1421
vn 0.7071 -0.0000 0.7071
vn 0.1421 0.9796 0.1421
vn 0.6937 -0.1939 0.6937
vn 0.2743 0.9217 0.2743
vn 0.6539 -0.3805 0.6539
vn 0.3958 0.8286 0.3958
vn 0.5893 -0.5528 0.5893
vn 0.5021 0.7041 0.5021
vn 0.5893 0.5528 0.5893
vn 0.1117 0.9796 0.1671
vn 0.2155 0.9217 0.3225
vn 0.5138 -0.3805 0.7689
vn 0.3110 0.8286 0.4654
vn 0.4630 -0.5528 0.6929
vn 0.3945 0.7041 0.5905
vn 0.3945 -0.7041 0.5905
vn 0.4630 0.5528 0.6929
vn 0.3110 -0.8286 0.4654
vn 0.5138 0.3805 0.7689
vn 0.2155 -0.9217 0.3225
vn 0.5450 0.1939 0.8157
vn 0.1117 -0.9796 0.1671
vn 0.5556 -0.0000 0.8315
vn 0.5450 -0.1939 0.8157
vn 0.3539 0.3805 0.8544
vn 0.2142 -0.8286 0.5172
vn 0.1484 -0.9217 0.3584
vn 0.3754 0.1939 0.9063
vn 0.0769 -0.9796 0.1857
vn 0.3827 -0.0000 0.9239
vn 0.0769 0.9796 0.1857
vn 0.3754 -0.1939 0.9063
vn 0.1484 0.9217 0.3584
vn 0.3539 -0.3805 0.8544
vn 0.2142 0.8286 0.5172
vn 0.3189 -0.5528 0.7699
vn 0.2718 0.7041 0.6561
vn 0.2718 -0.7041 0.6561
vn 0.3189 0.5528 0.7699
vn 0.1804 -0.3805 0.9070
vn 0.1092 0.8286 0.5490
vn 0.1626 -0.5528 0.8173
vn 0.1385 0.7041 0.6965
vn 0.1385 -0.7041 0.6965
vn 0.1626 0.5528 0.8173
vn 0.1092 -0.8286 0.5490
vn 0.1804 0.3805 0.9070
vn 0.0757 -0.9217 0.3804
vn 0.1914 0.1939 0.9622
vn 0.0392 -0.9796 0.1971
vn 0.1951 -0.0000 0.9808
vn 0.0392 0.9796 0.1971
vn 0.1914 -0.1939 0.9622
vn 0.0757 0.9217 0.3804
vn -0.0000 -0.8286 0.5598
vn -0.0000 -0.9217 0.3879
vn -0.0000 0.3805 0.9248
vn -0.0000 0.1939 0.9810
vn -0.0000 -0.9796 0.2010
vn -0.0000 -0.0000 1.0000
vn -0.0000 0.9796 0.2010
vn -0.0000 -0.1939 0.9810
vn -0.0000 0.9217 0.3879
vn -0.0000 -0.3805 0.9248
vn -0.0000 0.8286 0.5598
vn -0.0000 -0.5528 0.8333
vn -0.0000 0.7041 0.7101
vn -0.0000 -0.7041 0.7101
vn -0.0000 0.5528 0.8333
vn -0.1804 -0.3805 0.9070
vn -0.1626 -0.5528 0.8173
vn -0.1385 0.7041 0.6965
vn -0.1385 -0.7041 0.6965
vn -0.1626 0.5528 0.8173
vn -0.1092 -0.8286 0.5490
vn -0.1804 0.3805 0.9070
vn -0.0757 -0.9217 0.3804
vn -0.1914 0.1939 0.9622
vn -0.0392 -0.9796 0.1971
vn -0.1951 -0.0000 0.9808
vn -0.0392 0.9796 0.1971
vn -0.1914 -0.1939 0.9622
vn -0.0757 0.9217 0.3804
vn -0.1092 0.8286 0.5490
vn -0.0769 -0.9796 0.1857
vn -0.3754 0.1939 0.9063
vn -0.3827 -0.0000 0.9239
vn -0.0769 0.9796 0.1857
vn -0.3754 -0.1939 0.9063
vn -0.1484 0.9217 0.3584
vn -0.3539 -0.3805 0.8544
vn -0.2142 0.8286 0.5172
vn -0.3189 -0.5528 0.7699
vn -0.2718 0.7041 0.6561
vn -0.2718 -0.7041 0.6561
vn -0.3189 0.5528 0.7699
vn -0.2142 -0.8286 0.5172
vn -0.3539 0.3805 0.8544
vn -0.1484 -0.9217 0.3584
vn -0.3945 0.7041 0.5905
vn -0.3945 -0.7041 0.5905
vn -0.4630 0.5528 0.6929
vn -0.3110 -0.8286 0.4654
vn -0.5138 0.3805 0.7689
vn -0.2155 -0.9217 0.3225
vn -0.5450 0.1939 0.8157
vn -0.1117 -0.9796 0.1671
vn -0.5556 -0.0000 0.8315
vn -0.1117 0.9796 0.1671
vn -0.5450 -0.1939 0.8157
vn -0.2155 0.9217 0.3225
vn -0.5138 -0.3805 0.7689
vn -0.3110 0.8286 0.4654
vn -0.4630 -0.5528 0.6929
vn -0.6937 0.1939 0.6937
vn -0.7071 -0.0000 0.7071
vn -0.1421 0.9796 0.1421
vn -0.1421 -0.9796 0.1421
vn -0.6937 -0.1939 0.6937
vn -0.2743 0.9217 0.2743
vn -0.6539 -0.3805 0.6539
vn -0.3958 0.8286 0.3958
vn -0.5893 -0.5528 0.5893
vn -0.5021 0.7041 0.5021
vn -0.5021 -0.7041 0.5021
vn -0.5893 0.5528 0.5893
vn -0.3958 -0.8286 0.3958
vn -0.6539 0.3805 0.6539
vn -0.2743 -0.9217 0.2743
vn -0.5905 -0.7041 0.3945
vn -0.5905 0.7041 0.3945
vn -0.6929 0.5528 0.4630
vn -0.4654 -0.8286 0.3110
vn -0.7689 0.3805 0.5138
vn -0.3225 -0.9217 0.2155
vn -0.8157 0.1939 0.5450
vn -0.1671 -0.9796 0.1117
vn -0.8315 -0.0000 0.5556
vn -0.1671 0.9796 0.1117
vn -0.8157 -0.1939 0.5450
vn -0.3225 0.9217 0.2155
vn -0.7689 -0.3805 0.5138
vn -0.4654 0.8286 0.3110
vn -0.6929 -0.5528 0.4630
vn -0.1857 0.9796 0.0769
vn -0.1857 -0.9796 0.0769
vn -0.9063 -0.1939 0.3754
vn -0.3584 0.9217 0.1484
vn -0.8544 -0.3805 0.3539
vn -0.5172 0.8286 0.2142
vn -0.7699 -0.5528 0.3189
vn -0.6561 0.7041 0.2718
vn -0.6561 -0.7041 0.2718
vn -0.7699 0.5528 0.3189
vn -0.5172 -0.8286 0.2142
vn -0.8544 0.3805 0.3539
vn -0.3584 -0.9217 0.1484
vn -0.9063 0.1939 0.3754
vn -0.9239 -0.0000 0.3827
vn -0.6965 0.7041 0.1385
vn -0.8173 0.5528 0.1626
vn -0.6965 -0.7041 0.1385
vn -0.5490 -0.8286 0.1092
vn -0.9070 0.3805 0.1804
vn -0.3804 -0.9217 0.0757
vn -0.9622 0.1939 0.1914
vn -0.1971 -0.9796 0.0392
vn -0.9808 -0.0000 0.1951
vn -0.1971 0.9796 0.0392
vn -0.9622 -0.1939 0.1914
vn -0.3804 0.9217 0.0757
vn -0.9070 -0.3805 0.1804
vn -0.5490 0.8286 0.1092
vn -0.8173 -0.5528 0.1626
vn -0.9810 -0.1939 -0.0000
vn -0.3879 0.9217 -0.0000
vn -0.9248 -0.3805 -0.0000
vn -0.5598 0.8286 -0.0000
vn -0.8333 -0.5528 -0.0000
vn -0.7101 0.7041 -0.0000
vn -0.7101 -0.7041 -0.0000
vn -0.8333 0.5528 -0.0000
vn -0.5598 -0.8286 -0.0000
vn -0.9248 0.3805 -0.0000
vn -0.3879 -0.9217 -0.0000
vn -0.9810 0.1939 -0.0000
vn -0.2010 -0.9796 -0.0000
vn -1.0000 -0.0000 -0.0000
vn -0.2010 0.9796 -0.0000
vn -0.6965 -0.7041 -0.1385
vn -0.5490 -0.8286 -0.1092
vn -0.9070 0.3805 -0.1804
vn -0.3804 -0.9217 -0.0757
vn -0.9622 0.1939 -0.1914
vn -0.1971 -0.9796 -0.0392
vn -0.9808 -0.0000 -0.1951
vn -0.1971 0.9796 -0.0392
vn -0.9622 -0.1939 -0.1914
vn -0.3804 0.9217 -0.0757
vn -0.9070 -0.3805 -0.1804
vn -0.5490 0.8286 -0.1092
vn -0.8173 -0.5528 -0.1626
vn -0.6965 0.7041 -0.1385
vn -0.8173 0.5528 -0.1626
vn -0.8544 -0.3805 -0.3539
vn -0.3584 0.9217 -0.1484
vn -0.5172 0.8286 -0.2142
vn -0.7699 -0.5528 -0.3189
vn -0.6561 0.7041 -0.2718
vn -0.6561 -0.7041 -0.2718
vn -0.7699 0.5528 -0.3189
vn -0.5172 -0.8286 -0.2142
vn -0.8544 0.3805 -0.3539
vn -0.3584 -0.9217 -0.1484
vn -0.9063 0.1939 -0.3754
vn -0.1857 -0.9796 -0.0769
vn -0.9239 -0.0000 -0.3827
vn -0.1857 0.9796 -0.0769
vn -0.9063 -0.1939 -0.3754
vn -0.3225 -0.9217 -0.2155
vn -0.7689 0.3805 -0.5138
vn -0.8157 0.1939 -0.5450
vn -0.1671 -0.9796 -0.1117
vn -0.8315 -0.0000 -0.5556
vn -0.1671 0.9796 -0.1117
vn -0.8157 -0.1939 -0.5450
vn -0.3225 0.9217 -0.2155
vn -0.7689 -0.3805 -0.5138
vn -0.4654 0.8286 -0.3110
vn -0.6929 -0.5528 -0.4630
vn -0.5905 0.7041 -0.3945
vn -0.5905 -0.7041 -0.3945
vn -0.6929 0.5528 -0.4630
vn -0.4654 -0.8286 -0.3110
vn -0.2743 0.9217 -0.2743
vn -0.3958 0.8286 -0.3958
vn -0.6539 -0.3805 -0.6539
vn -0.5893 -0.5528 -0.5893
vn -0.5021 0.7041 -0.5021
vn -0.5021 -0.7041 -0.5021
vn -0.5893 0.5528 -0.5893
vn -0.3958 -0.8286 -0.3958
vn -0.6539 0.3805 -0.6539
vn -0.2743 -0.9217 -0.2743
vn -0.6937 0.1939 -0.6937
vn -0.1421 -0.9796 -0.1421
vn -0.7071 -0.0000 -0.7071
vn -0.1421 0.9796 -0.1421
vn -0.6937 -0.1939 -0.6937
vn -0.5138 0.3805 -0.7689
vn -0.5450 0.1939 -0.8157
vn -0.2155 -0.9217 -0.3225
vn -0.1117 -0.9796 -0.1671
vn -0.5556 -0.0000 -0.8315
vn -0.1117 0.9796 -0.1671
vn -0.5450 -0.1939 -0.8157
vn -0.2155 0.9217 -0.3225
vn -0.5138 -0.3805 -0.7689
vn -0.3110 0.8286 -0.4654
vn -0.4630 -0.5528 -0.6929
vn -0.3945 0.7041 -0.5905
vn -0.3945 -0.7041 -0.5905
vn -0.4630 0.5528 -0.6929
vn -0.3110 -0.8286 -0.4654
vn -0.3539 -0.3805 -0.8544
vn -0.3189 -0.5528 -0.7699
vn -0.2718 0.7041 -0.6561
vn -0.2718 -0.7041 -0.6561
vn -0.3189 0.5528 -0.7699
vn -0.2142 -0.8286 -0.5172
vn -0.3539 0.3805 -0.8544
vn -0.1484 -0.9217 -0.3584
vn -0.3754 0.1939 -0.9063
vn -0.0769 -0.9796 -0.1857
vn -0.3827 -0.0000 -0.9239
vn -0.0769 0.9796 -0.1857
vn -0.3754 -0.1939 -0.9063
vn -0.1484 0.9217 -0.3584
vn -0.2142 0.8286 -0.5172
vn -0.0757 -0.9217 -0.3804
vn -0.0392 -0.9796 -0.1971
vn -0.1914 0.1939 -0.9622
vn -0.1951 -0.0000 -0.9808
vn -0.0392 0.9796 -0.1971
vn -0.1914 -0.1939 -0.9622
vn -0.0757 0.9217 -0.3804
vn -0.1804 -0.3805 -0.9070
vn -0.1092 0.8286 -0.5490
vn -0.1626 -0.5528 -0.8173
vn -0.1385 0.7041 -0.6965
vn -0.1385 -0.7041 -0.6965
vn -0.1626 0.5528 -0.8173
vn -0.1092 -0.8286 -0.5490
vn -0.1804 0.3805 -0.9070
vt 0.750000 0.375000
vt 0.718750 0.312500
vt 0.750000 0.312500
vt 0.750000 0.750000
vt 0.718750 0.812500
vt 0.718750 0.750000
vt 0.750000 0.250000
vt 0.718750 0.250000
vt 0.718750 0.687500
vt 0.750000 0.687500
vt 0.718750 0.187500
vt 0.750000 0.187500
vt 0.750000 0.625000
vt 0.718750 0.625000
vt 0.718750 0.125000
vt 0.750000 0.125000
vt 0.750000 0.562500
vt 0.718750 0.562500
vt 0.718750 0.062500
vt 0.750000 0.062500
vt 0.718750 0.500000
vt 0.750000 0.500000
vt 0.750000 0.937500
vt 0.734375 1.000000
vt 0.718750 0.937500
vt 0.734375 0.000000
vt 0.718750 0.437500
vt 0.750000 0.437500
vt 0.750000 0.875000
vt 0.718750 0.875000
vt 0.718750 0.375000
vt 0.750000 0.812500
vt 0.687500 0.375000
vt 0.687500 0.812500
vt 0.687500 0.312500
vt 0.687500 0.750000
vt 0.687500 0.250000
vt 0.687500 0.687500
vt 0.687500 0.187500
vt 0.687500 0.625000
vt 0.687500 0.125000
vt 0.687500 0.562500
vt 0.687500 0.062500
vt 0.687500 0.500000
vt 0.703125 1.000000
vt 0.687500 0.937500
vt 0.703125 0.000000
vt 0.687500 0.437500
vt 0.687500 0.875000
vt 0.656250 0.187500
vt 0.656250 0.125000
vt 0.656250 0.625000
vt 0.656250 0.562500
vt 0.656250 0.062500
vt 0.656250 0.500000
vt 0.671875 1.000000
vt 0.656250 0.937500
vt 0.671875 0.000000
vt 0.656250 0.437500
vt 0.656250 0.875000
vt 0.656250 0.375000
vt 0.656250 0.812500
vt 0.656250 0.312500
vt 0.656250 0.750000
vt 0.656250 0.250000
vt 0.656250 0.687500
vt 0.625000 0.812500
vt 0.625000 0.375000
vt 0.625000 0.312500
vt 0.625000 0.750000
vt 0.625000 0.250000
vt 0.625000 0.687500
vt 0.625000 0.187500
vt 0.625000 0.625000
vt 0.625000 0.125000
vt 0.625000 0.562500
vt 0.625000 0.062500
vt 0.625000 0.500000
vt 0.640625 1.000000
vt 0.625000 0.937500
vt 0.640625 0.000000
vt 0.625000 0.437500
vt 0.625000 0.875000
vt 0.593750 0.625000
vt 0.593750 0.562500
vt 0.593750 0.062500
vt 0.593750 0.500000
vt 0.609375 1.000000
vt 0.593750 0.937500
vt 0.609375 0.000000
vt 0.593750 0.437500
vt 0.593750 0.875000
vt 0.593750 0.375000
vt 0.593750 0.812500
vt 0.593750 0.312500
vt 0.593750 0.750000
vt 0.593750 0.250000
vt 0.593750 0.687500
vt 0.593750 0.187500
vt 0.593750 0.125000
vt 0.562500 0.375000
vt 0.562500 0.312500
vt 0.562500 0.750000
vt 0.562500 0.250000
vt 0.562500 0.687500
vt 0.562500 0.187500
vt 0.562500 0.625000
vt 0.562500 0.125000
vt 0.562500 0.562500
vt 0.562500 0.062500
vt 0.562500 0.500000
vt 0.578125 1.000000
vt 0.562500 0.937500
vt 0.578125 0.000000
vt 0.562500 0.437500
vt 0.562500 0.875000
vt 0.562500 0.812500
vt 0.531250 0.062500
vt 0.531250 0.562500
vt 0.531250 0.500000
vt 0.546875 1.000000
vt 0.531250 0.937500
vt 0.546875 0.000000
vt 0.531250 0.437500
vt 0.531250 0.875000
vt 0.531250 0.375000
vt 0.531250 0.812500
vt 0.531250 0.312500
vt 0.531250 0.750000
vt 0.531250 0.250000
vt 0.531250 0.687500
vt 0.531250 0.187500
vt 0.531250 0.625000
vt 0.531250 0.125000
vt 0.500000 0.250000
vt 0.500000 0.750000
vt 0.500000 0.687500
vt 0.500000 0.187500
vt 0.500000 0.625000
vt 0.500000 0.125000
vt 0.500000 0.562500
vt 0.500000 0.062500
vt 0.500000 0.500000
vt 0.515625 1.000000
vt 0.500000 0.937500
vt 0.515625 0.000000
vt 0.500000 0.437500
vt 0.500000 0.875000
vt 0.500000 0.375000
vt 0.500000 0.812500
vt 0.500000 0.312500
vt 0.484375 1.000000
vt 0.468750 0.937500
vt 0.484375 0.000000
vt 0.468750 0.062500
vt 0.468750 0.437500
vt 0.468750 0.875000
vt 0.468750 0.375000
vt 0.468750 0.812500
vt 0.468750 0.312500
vt 0.468750 0.750000
vt 0.468750 0.250000
vt 0.468750 0.687500
vt 0.468750 0.187500
vt 0.468750 0.625000
vt 0.468750 0.125000
vt 0.468750 0.562500
vt 0.468750 0.500000
vt 0.437500 0.750000
vt 0.437500 0.687500
vt 0.437500 0.250000
vt 0.437500 0.187500
vt 0.437500 0.625000
vt 0.437500 0.125000
vt 0.437500 0.562500
vt 0.437500 0.062500
vt 0.437500 0.500000
vt 0.453125 1.000000
vt 0.437500 0.937500
vt 0.453125 0.000000
vt 0.437500 0.437500
vt 0.437500 0.875000
vt 0.437500 0.375000
vt 0.437500 0.812500
vt 0.437500 0.312500
vt 0.406250 0.437500
vt 0.406250 0.875000
vt 0.406250 0.375000
vt 0.406250 0.812500
vt 0.406250 0.312500
vt 0.406250 0.750000
vt 0.406250 0.250000
vt 0.406250 0.687500
vt 0.406250 0.187500
vt 0.406250 0.625000
vt 0.406250 0.125000
vt 0.406250 0.562500
vt 0.406250 0.062500
vt 0.406250 0.500000
vt 0.421875 1.000000
vt 0.406250 0.937500
vt 0.421875 0.000000
vt 0.375000 0.250000
vt 0.375000 0.187500
vt 0.375000 0.625000
vt 0.375000 0.125000
vt 0.375000 0.562500
vt 0.375000 0.062500
vt 0.375000 0.500000
vt 0.390625 1.000000
vt 0.375000 0.937500
vt 0.390625 0.000000
vt 0.375000 0.437500
vt 0.375000 0.875000
vt 0.375000 0.375000
vt 0.375000 0.812500
vt 0.375000 0.312500
vt 0.375000 0.750000
vt 0.375000 0.687500
vt 0.343750 0.937500
vt 0.343750 0.875000
vt 0.343750 0.375000
vt 0.343750 0.812500
vt 0.343750 0.312500
vt 0.343750 0.750000
vt 0.343750 0.250000
vt 0.343750 0.687500
vt 0.343750 0.187500
vt 0.343750 0.625000
vt 0.343750 0.125000
vt 0.343750 0.562500
vt 0.343750 0.062500
vt 0.343750 0.500000
vt 0.359375 1.000000
vt 0.359375 0.000000
vt 0.343750 0.437500
vt 0.312500 0.625000
vt 0.312500 0.187500
vt 0.312500 0.125000
vt 0.312500 0.562500
vt 0.312500 0.062500
vt 0.312500 0.500000
vt 0.328125 1.000000
vt 0.312500 0.937500
vt 0.328125 0.000000
vt 0.312500 0.437500
vt 0.312500 0.875000
vt 0.312500 0.375000
vt 0.312500 0.812500
vt 0.312500 0.312500
vt 0.312500 0.750000
vt 0.312500 0.250000
vt 0.312500 0.687500
vt 0.281250 0.375000
vt 0.281250 0.812500
vt 0.281250 0.312500
vt 0.281250 0.750000
vt 0.281250 0.250000
vt 0.281250 0.687500
vt 0.281250 0.187500
vt 0.281250 0.625000
vt 0.281250 0.125000
vt 0.281250 0.562500
vt 0.281250 0.062500
vt 0.281250 0.500000
vt 0.296875 1.000000
vt 0.281250 0.937500
vt 0.296875 0.000000
vt 0.281250 0.437500
vt 0.281250 0.875000
vt 0.250000 0.187500
vt 0.250000 0.125000
vt 0.250000 0.625000
vt 0.250000 0.562500
vt 0.250000 0.062500
vt 0.250000 0.500000
vt 0.265625 1.000000
vt 0.250000 0.937500
vt 0.265625 0.000000
vt 0.250000 0.437500
vt 0.250000 0.875000
vt 0.250000 0.375000
vt 0.250000 0.812500
vt 0.250000 0.312500
vt 0.250000 0.750000
vt 0.250000 0.250000
vt 0.250000 0.687500
vt 0.218750 0.375000
vt 0.218750 0.312500
vt 0.218750 0.750000
vt 0.218750 0.250000
vt 0.218750 0.687500
vt 0.218750 0.187500
vt 0.218750 0.625000
vt 0.218750 0.125000
vt 0.218750 0.562500
vt 0.218750 0.062500
vt 0.218750 0.500000
vt 0.234375 1.000000
vt 0.218750 0.937500
vt 0.234375 0.000000
vt 0.218750 0.437500
vt 0.218750 0.875000
vt 0.218750 0.812500
vt 0.187500 0.062500
vt 0.187500 0.562500
vt 0.187500 0.500000
vt 0.203125 1.000000
vt 0.187500 0.937500
vt 0.203125 0.000000
vt 0.187500 0.437500
vt 0.187500 0.875000
vt 0.187500 0.375000
vt 0.187500 0.812500
vt 0.187500 0.312500
vt 0.187500 0.750000
vt 0.187500 0.250000
vt 0.187500 0.687500
vt 0.187500 0.187500
vt 0.187500 0.625000
vt 0.187500 0.125000
vt 0.156250 0.750000
vt 0.156250 0.250000
vt 0.156250 0.687500
vt 0.156250 0.187500
vt 0.156250 0.625000
vt 0.156250 0.125000
vt 0.156250 0.562500
vt 0.156250 0.062500
vt 0.156250 0.500000
vt 0.171875 1.000000
vt 0.156250 0.937500
vt 0.171875 0.000000
vt 0.156250 0.437500
vt 0.156250 0.875000
vt 0.156250 0.375000
vt 0.156250 0.812500
vt 0.156250 0.312500
vt 0.125000 0.562500
vt 0.125000 0.500000
vt 0.140625 1.000000
vt 0.125000 0.937500
vt 0.140625 0.000000
vt 0.125000 0.062500
vt 0.125000 0.437500
vt 0.125000 0.875000
vt 0.125000 0.375000
vt 0.125000 0.812500
vt 0.125000 0.312500
vt 0.125000 0.750000
vt 0.125000 0.250000
vt 0.125000 0.687500
vt 0.125000 0.187500
vt 0.125000 0.625000
vt 0.125000 0.125000
vt 0.093750 0.250000
vt 0.093750 0.750000
vt 0.093750 0.687500
vt 0.093750 0.187500
vt 0.093750 0.625000
vt 0.093750 0.125000
vt 0.093750 0.562500
vt 0.093750 0.062500
vt 0.093750 0.500000
vt 0.109375 1.000000
vt 0.093750 0.937500
vt 0.109375 0.000000
vt 0.093750 0.437500
vt 0.093750 0.875000
vt 0.093750 0.375000
vt 0.093750 0.812500
vt 0.093750 0.312500
vt 0.078125 1.000000
vt 0.062500 0.937500
vt 0.078125 0.000000
vt 0.062500 0.062500
vt 0.062500 0.437500
vt 0.062500 0.875000
vt 0.062500 0.375000
vt 0.062500 0.812500
vt 0.062500 0.312500
vt 0.062500 0.750000
vt 0.062500 0.250000
vt 0.062500 0.687500
vt 0.062500 0.187500
vt 0.062500 0.625000
vt 0.062500 0.125000
vt 0.062500 0.562500
vt 0.062500 0.500000
vt 0.031250 0.750000
vt 0.031250 0.687500
vt 0.031250 0.250000
vt 0.031250 0.187500
vt 0.031250 0.625000
vt 0.031250 0.125000
vt 0.031250 0.562500
vt 0.031250 0.062500
vt 0.031250 0.500000
vt 0.046875 1.000000
vt 0.031250 0.937500
vt 0.046875 0.000000
vt 0.031250 0.437500
vt 0.031250 0.875000
vt 0.031250 0.375000
vt 0.031250 0.812500
vt 0.031250 0.312500
vt 0.000000 0.437500
vt 0.000000 0.875000
vt 0.000000 0.375000
vt 0.000000 0.812500
vt 0.000000 0.312500
vt 0.000000 0.750000
vt 0.000000 0.250000
vt 0.000000 0.687500
vt 0.000000 0.187500
vt 0.000000 0.625000
vt 0.000000 0.125000
vt 0.000000 0.562500
vt 0.000000 0.062500
vt 0.000000 0.500000
vt 0.015625 1.000000
vt 0.000000 0.937500
vt 0.015625 0.000000
vt 1.000000 0.187500
vt 0.968750 0.250000
vt 0.968750 0.187500
vt 1.000000 0.687500
vt 0.968750 0.625000
vt 1.000000 0.625000
vt 0.968750 0.125000
vt 1.000000 0.125000
vt 1.000000 0.562500
vt 0.968750 0.562500
vt 0.968750 0.062500
vt 1.000000 0.062500
vt 1.000000 0.500000
vt 0.968750 0.500000
vt 1.000000 0.937500
vt 0.984375 1.000000
vt 0.968750 0.937500
vt 0.984375 0.000000
vt 0.968750 0.437500
vt 1.000000 0.437500
vt 1.000000 0.875000
vt 0.968750 0.875000
vt 0.968750 0.375000
vt 1.000000 0.375000
vt 1.000000 0.812500
vt 0.968750 0.812500
vt 1.000000 0.312500
vt 0.968750 0.312500
vt 0.968750 0.750000
vt 1.000000 0.750000
vt 1.000000 0.250000
vt 0.968750 0.687500
vt 0.937500 0.375000
vt 0.937500 0.875000
vt 0.937500 0.812500
vt 0.937500 0.312500
vt 0.937500 0.750000
vt 0.937500 0.250000
vt 0.937500 0.687500
vt 0.937500 0.187500
vt 0.937500 0.625000
vt 0.937500 0.125000
vt 0.937500 0.562500
vt 0.937500 0.062500
vt 0.937500 0.500000
vt 0.953125 1.000000
vt 0.937500 0.937500
vt 0.953125 0.000000
vt 0.937500 0.437500
vt 0.906250 0.125000
vt 0.906250 0.625000
vt 0.906250 0.562500
vt 0.906250 0.062500
vt 0.906250 0.500000
vt 0.921875 1.000000
vt 0.906250 0.937500
vt 0.921875 0.000000
vt 0.906250 0.437500
vt 0.906250 0.875000
vt 0.906250 0.375000
vt 0.906250 0.812500
vt 0.906250 0.312500
vt 0.906250 0.750000
vt 0.906250 0.250000
vt 0.906250 0.687500
vt 0.906250 0.187500
vt 0.875000 0.875000
vt 0.875000 0.812500
vt 0.875000 0.375000
vt 0.875000 0.312500
vt 0.875000 0.750000
vt 0.875000 0.250000
vt 0.875000 0.687500
vt 0.875000 0.187500
vt 0.875000 0.625000
vt 0.875000 0.125000
vt 0.875000 0.562500
vt 0.875000 0.062500
vt 0.875000 0.500000
vt 0.890625 1.000000
vt 0.875000 0.937500
vt 0.890625 0.000000
vt 0.875000 0.437500
vt 0.843750 0.625000
vt 0.843750 0.562500
vt 0.843750 0.125000
vt 0.843750 0.062500
vt 0.843750 0.500000
vt 0.859375 1.000000
vt 0.843750 0.937500
vt 0.859375 0.000000
vt 0.843750 0.437500
vt 0.843750 0.875000
vt 0.843750 0.375000
vt 0.843750 0.812500
vt 0.843750 0.312500
vt 0.843750 0.750000
vt 0.843750 0.250000
vt 0.843750 0.687500
vt 0.843750 0.187500
vt 0.812500 0.375000
vt 0.812500 0.312500
vt 0.812500 0.750000
vt 0.812500 0.250000
vt 0.812500 0.687500
vt 0.812500 0.187500
vt 0.812500 0.625000
vt 0.812500 0.125000
vt 0.812500 0.562500
vt 0.812500 0.062500
vt 0.812500 0.500000
vt 0.828125 1.000000
vt 0.812500 0.937500
vt 0.828125 0.000000
vt 0.812500 0.437500
vt 0.812500 0.875000
vt 0.812500 0.812500
vt 0.781250 0.125000
vt 0.781250 0.062500
vt 0.781250 0.562500
vt 0.781250 0.500000
vt 0.796875 1.000000
vt 0.781250 0.937500
vt 0.796875 0.000000
vt 0.781250 0.437500
vt 0.781250 0.875000
vt 0.781250 0.375000
vt 0.781250 0.812500
vt 0.781250 0.312500
vt 0.781250 0.750000
vt 0.781250 0.250000
vt 0.781250 0.687500
vt 0.781250 0.187500
vt 0.781250 0.625000
vt 0.765625 1.000000
vt 0.765625 0.000000
vt 0.000000 0.000000
s 1
usemtl マテリアル
f 478/1/1 19/2/2 7/3/3
f 476/4/4 11/5/5 12/6/6
f 479/7/7 19/2/2 20/8/8
f 476/4/4 13/9/9 3/10/10
f 479/7/7 21/11/11 480/12/12
f 477/13/13 13/9/9 14/14/14
f 480/12/12 22/15/15 481/16/16
f 4/17/17 14/14/14 15/18/18
f 481/16/16 23/19/19 482/20/20
f 4/17/17 16/21/21 5/22/22
f 474/23/23 1/24/24 9/25/25
f 8/26/26 482/20/20 23/19/19
f 5/22/22 17/27/27 6/28/28
f 475/29/29 9/25/25 10/30/30
f 6/28/28 18/31/31 478/1/1
f 2/32/32 10/30/30 11/5/5
f 17/27/27 33/33/33 18/31/31
f 10/30/30 26/34/34 11/5/5
f 19/2/2 33/33/33 34/35/35
f 11/5/5 27/36/36 12/6/6
f 20/8/8 34/35/35 35/37/37
f 12/6/6 28/38/38 13/9/9
f 21/11/11 35/37/37 36/39/39
f 13/9/9 29/40/40 14/14/14
f 22/15/15 36/39/39 37/41/41
f 15/18/18 29/40/40 30/42/42
f 22/15/15 38/43/43 23/19/19
f 15/18/18 31/44/44 16/21/21
f 9/25/25 1/45/24 24/46/45
f 8/47/26 23/19/19 38/43/43
f 16/21/21 32/48/46 17/27/27
f 9/25/25 25/49/47 10/30/30
f 37/41/41 51/50/48 52/51/49
f 30/42/42 44/52/50 45/53/51
f 38/43/43 52/51/49 53/54/52
f 31/44/44 45/53/51 46/55/53
f 24/46/45 1/56/24 39/57/54
f 8/58/26 38/43/43 53/54/52
f 31/44/44 47/59/55 32/48/46
f 24/46/45 40/60/56 25/49/47
f 32/48/46 48/61/57 33/33/33
f 25/49/47 41/62/58 26/34/34
f 34/35/35 48/61/57 49/63/59
f 26/34/34 42/64/60 27/36/36
f 35/37/37 49/63/59 50/65/61
f 27/36/36 43/66/62 28/38/38
f 36/39/39 50/65/61 51/50/48
f 28/38/38 44/52/50 29/40/40
f 40/60/56 56/67/63 41/62/58
f 49/63/59 63/68/64 64/69/65
f 41/62/58 57/70/66 42/64/60
f 49/63/59 65/71/67 50/65/61
f 43/66/62 57/70/66 58/72/68
f 51/50/48 65/71/67 66/73/69
f 43/66/62 59/74/70 44/52/50
f 52/51/49 66/73/69 67/75/71
f 45/53/51 59/74/70 60/76/72
f 53/54/52 67/75/71 68/77/73
f 46/55/53 60/76/72 61/78/74
f 39/57/54 1/79/24 54/80/75
f 8/81/26 53/54/52 68/77/73
f 46/55/53 62/82/76 47/59/55
f 39/57/54 55/83/77 40/60/56
f 47/59/55 63/68/64 48/61/57
f 60/76/72 74/84/78 75/85/79
f 67/75/71 83/86/80 68/77/73
f 61/78/74 75/85/79 76/87/81
f 54/80/75 1/88/24 69/89/82
f 8/90/26 68/77/73 83/86/80
f 61/78/74 77/91/83 62/82/76
f 55/83/77 69/89/82 70/92/84
f 62/82/76 78/93/85 63/68/64
f 56/67/63 70/92/84 71/94/86
f 64/69/65 78/93/85 79/95/87
f 56/67/63 72/96/88 57/70/66
f 64/69/65 80/97/89 65/71/67
f 58/72/68 72/96/88 73/98/90
f 66/73/69 80/97/89 81/99/91
f 58/72/68 74/84/78 59/74/70
f 66/73/69 82/100/92 67/75/71
f 79/95/87 93/101/93 94/102/94
f 71/94/86 87/103/95 72/96/88
f 79/95/87 95/104/96 80/97/89
f 73/98/90 87/103/95 88/105/97
f 81/99/91 95/104/96 96/106/98
f 73/98/90 89/107/99 74/84/78
f 82/100/92 96/106/98 97/108/100
f 75/85/79 89/107/99 90/109/101
f 83/86/80 97/108/100 98/110/102
f 76/87/81 90/109/101 91/111/103
f 69/89/82 1/112/24 84/113/104
f 8/114/26 83/86/80 98/110/102
f 76/87/81 92/115/105 77/91/83
f 69/89/82 85/116/106 70/92/84
f 77/91/83 93/101/93 78/93/85
f 70/92/84 86/117/107 71/94/86
f 97/108/100 113/118/108 98/110/102
f 91/111/103 105/119/109 106/120/110
f 84/113/104 1/121/24 99/122/111
f 8/123/26 98/110/102 113/118/108
f 91/111/103 107/124/112 92/115/105
f 84/113/104 100/125/113 85/116/106
f 92/115/105 108/126/114 93/101/93
f 86/117/107 100/125/113 101/127/115
f 94/102/94 108/126/114 109/128/116
f 86/117/107 102/129/117 87/103/95
f 94/102/94 110/130/118 95/104/96
f 88/105/97 102/129/117 103/131/119
f 96/106/98 110/130/118 111/132/120
f 88/105/97 104/133/121 89/107/99
f 96/106/98 112/134/122 97/108/100
f 90/109/101 104/133/121 105/119/109
f 109/128/116 125/135/123 110/130/118
f 103/131/119 117/136/124 118/137/125
f 111/132/120 125/135/123 126/138/126
f 103/131/119 119/139/127 104/133/121
f 112/134/122 126/138/126 127/140/128
f 105/119/109 119/139/127 120/141/129
f 112/134/122 128/142/130 113/118/108
f 106/120/110 120/141/129 121/143/131
f 99/122/111 1/144/24 114/145/132
f 8/146/26 113/118/108 128/142/130
f 106/120/110 122/147/133 107/124/112
f 99/122/111 115/148/134 100/125/113
f 107/124/112 123/149/135 108/126/114
f 100/125/113 116/150/136 101/127/115
f 109/128/116 123/149/135 124/151/137
f 101/127/115 117/136/124 102/129/117
f 114/145/132 1/152/24 129/153/138
f 8/154/26 128/142/130 143/155/139
f 121/143/131 137/156/140 122/147/133
f 115/148/134 129/153/138 130/157/141
f 122/147/133 138/158/142 123/149/135
f 116/150/136 130/157/141 131/159/143
f 124/151/137 138/158/142 139/160/144
f 116/150/136 132/161/145 117/136/124
f 124/151/137 140/162/146 125/135/123
f 118/137/125 132/161/145 133/163/147
f 126/138/126 140/162/146 141/164/148
f 118/137/125 134/165/149 119/139/127
f 126/138/126 142/166/150 127/140/128
f 120/141/129 134/165/149 135/167/151
f 127/140/128 143/155/139 128/142/130
f 121/143/131 135/167/151 136/168/152
f 133/163/147 147/169/153 148/170/154
f 141/164/148 155/171/155 156/172/156
f 133/163/147 149/173/157 134/165/149
f 142/166/150 156/172/156 157/174/158
f 135/167/151 149/173/157 150/175/159
f 142/166/150 158/176/160 143/155/139
f 136/168/152 150/175/159 151/177/161
f 129/153/138 1/178/24 144/179/162
f 8/180/26 143/155/139 158/176/160
f 136/168/152 152/181/163 137/156/140
f 129/153/138 145/182/164 130/157/141
f 137/156/140 153/183/165 138/158/142
f 130/157/141 146/184/166 131/159/143
f 139/160/144 153/183/165 154/185/167
f 131/159/143 147/169/153 132/161/145
f 139/160/144 155/171/155 140/162/146
f 151/177/161 167/186/168 152/181/163
f 144/179/162 160/187/169 145/182/164
f 152/181/163 168/188/170 153/183/165
f 145/182/164 161/189/171 146/184/166
f 154/185/167 168/188/170 169/190/172
f 146/184/166 162/191/173 147/169/153
f 154/185/167 170/192/174 155/171/155
f 148/170/154 162/191/173 163/193/175
f 156/172/156 170/192/174 171/194/176
f 148/170/154 164/195/177 149/173/157
f 157/174/158 171/194/176 172/196/178
f 150/175/159 164/195/177 165/197/179
f 158/176/160 172/196/178 173/198/180
f 151/177/161 165/197/179 166/199/181
f 144/179/162 1/200/24 159/201/182
f 8/202/26 158/176/160 173/198/180
f 171/194/176 185/203/183 186/204/184
f 163/193/175 179/205/185 164/195/177
f 172/196/178 186/204/184 187/206/186
f 165/197/179 179/205/185 180/207/187
f 173/198/180 187/206/186 188/208/188
f 166/199/181 180/207/187 181/209/189
f 159/201/182 1/210/24 174/211/190
f 8/212/26 173/198/180 188/208/188
f 166/199/181 182/213/191 167/186/168
f 159/201/182 175/214/192 160/187/169
f 167/186/168 183/215/193 168/188/170
f 160/187/169 176/216/194 161/189/171
f 169/190/172 183/215/193 184/217/195
f 161/189/171 177/218/196 162/191/173
f 169/190/172 185/203/183 170/192/174
f 163/193/175 177/218/196 178/219/197
f 175/214/192 189/220/198 190/221/199
f 182/213/191 198/222/200 183/215/193
f 176/216/194 190/221/199 191/223/201
f 184/217/195 198/222/200 199/224/202
f 176/216/194 192/225/203 177/218/196
f 184/217/195 200/226/204 185/203/183
f 178/219/197 192/225/203 193/227/205
f 186/204/184 200/226/204 201/228/206
f 178/219/197 194/229/207 179/205/185
f 186/204/184 202/230/208 187/206/186
f 180/207/187 194/229/207 195/231/209
f 187/206/186 203/232/210 188/208/188
f 181/209/189 195/231/209 196/233/211
f 174/211/190 1/234/24 189/220/198
f 8/235/26 188/208/188 203/232/210
f 181/209/189 197/236/212 182/213/191
f 193/227/205 209/237/213 194/229/207
f 202/230/208 216/238/214 217/239/215
f 195/231/209 209/237/213 210/240/216
f 203/232/210 217/239/215 218/241/217
f 196/233/211 210/240/216 211/242/218
f 189/220/198 1/243/24 204/244/219
f 8/245/26 203/232/210 218/241/217
f 196/233/211 212/246/220 197/236/212
f 189/220/198 205/247/221 190/221/199
f 197/236/212 213/248/222 198/222/200
f 190/221/199 206/249/223 191/223/201
f 199/224/202 213/248/222 214/250/224
f 191/223/201 207/251/225 192/225/203
f 199/224/202 215/252/226 200/226/204
f 193/227/205 207/251/225 208/253/227
f 201/228/206 215/252/226 216/238/214
f 212/246/220 228/254/228 213/248/222
f 205/247/221 221/255/229 206/249/223
f 214/250/224 228/254/228 229/256/230
f 206/249/223 222/257/231 207/251/225
f 214/250/224 230/258/232 215/252/226
f 208/253/227 222/257/231 223/259/233
f 216/238/214 230/258/232 231/260/234
f 208/253/227 224/261/235 209/237/213
f 217/239/215 231/260/234 232/262/236
f 210/240/216 224/261/235 225/263/237
f 218/241/217 232/262/236 233/264/238
f 211/242/218 225/263/237 226/265/239
f 204/244/219 1/266/24 219/267/240
f 8/268/26 218/241/217 233/264/238
f 211/242/218 227/269/241 212/246/220
f 204/244/219 220/270/242 205/247/221
f 232/262/236 246/271/243 247/272/244
f 225/263/237 239/273/245 240/274/246
f 232/262/236 248/275/247 233/264/238
f 226/265/239 240/274/246 241/276/248
f 219/267/240 1/277/24 234/278/249
f 8/279/26 233/264/238 248/275/247
f 226/265/239 242/280/250 227/269/241
f 220/270/242 234/278/249 235/281/251
f 227/269/241 243/282/252 228/254/228
f 220/270/242 236/283/253 221/255/229
f 229/256/230 243/282/252 244/284/254
f 221/255/229 237/285/255 222/257/231
f 229/256/230 245/286/256 230/258/232
f 223/259/233 237/285/255 238/287/257
f 231/260/234 245/286/256 246/271/243
f 223/259/233 239/273/245 224/261/235
f 244/284/254 258/288/258 259/289/259
f 236/283/253 252/290/260 237/285/255
f 244/284/254 260/291/261 245/286/256
f 238/287/257 252/290/260 253/292/262
f 246/271/243 260/291/261 261/293/263
f 238/287/257 254/294/264 239/273/245
f 246/271/243 262/295/265 247/272/244
f 240/274/246 254/294/264 255/296/266
f 247/272/244 263/297/267 248/275/247
f 241/276/248 255/296/266 256/298/268
f 234/278/249 1/299/24 249/300/269
f 8/301/26 248/275/247 263/297/267
f 241/276/248 257/302/270 242/280/250
f 235/281/251 249/300/269 250/303/271
f 242/280/250 258/288/258 243/282/252
f 236/283/253 250/303/271 251/304/272
f 262/295/265 278/305/273 263/297/267
f 256/298/268 270/306/274 271/307/275
f 249/300/269 1/308/24 264/309/276
f 8/310/26 263/297/267 278/305/273
f 256/298/268 272/311/277 257/302/270
f 250/303/271 264/309/276 265/312/278
f 257/302/270 273/313/279 258/288/258
f 250/303/271 266/314/280 251/304/272
f 259/289/259 273/313/279 274/315/281
f 251/304/272 267/316/282 252/290/260
f 259/289/259 275/317/283 260/291/261
f 253/292/262 267/316/282 268/318/284
f 261/293/263 275/317/283 276/319/285
f 253/292/262 269/320/286 254/294/264
f 262/295/265 276/319/285 277/321/287
f 255/296/266 269/320/286 270/306/274
f 266/314/280 282/322/288 267/316/282
f 274/315/281 290/323/289 275/317/283
f 268/318/284 282/322/288 283/324/290
f 276/319/285 290/323/289 291/325/291
f 268/318/284 284/326/292 269/320/286
f 276/319/285 292/327/293 277/321/287
f 270/306/274 284/326/292 285/328/294
f 277/321/287 293/329/295 278/305/273
f 271/307/275 285/328/294 286/330/296
f 264/309/276 1/331/24 279/332/297
f 8/333/26 278/305/273 293/329/295
f 271/307/275 287/334/298 272/311/277
f 264/309/276 280/335/299 265/312/278
f 272/311/277 288/336/300 273/313/279
f 265/312/278 281/337/301 266/314/280
f 274/315/281 288/336/300 289/338/302
f 286/330/296 300/339/303 301/340/304
f 279/332/297 1/341/24 294/342/305
f 8/343/26 293/329/295 308/344/306
f 286/330/296 302/345/307 287/334/298
f 279/332/297 295/346/308 280/335/299
f 287/334/298 303/347/309 288/336/300
f 281/337/301 295/346/308 296/348/310
f 289/338/302 303/347/309 304/349/311
f 281/337/301 297/350/312 282/322/288
f 289/338/302 305/351/313 290/323/289
f 283/324/290 297/350/312 298/352/314
f 291/325/291 305/351/313 306/353/315
f 283/324/290 299/354/316 284/326/292
f 291/325/291 307/355/317 292/327/293
f 285/328/294 299/354/316 300/339/303
f 293/329/295 307/355/317 308/344/306
f 304/349/311 320/356/318 305/351/313
f 298/352/314 312/357/319 313/358/320
f 306/353/315 320/356/318 321/359/321
f 298/352/314 314/360/322 299/354/316
f 306/353/315 322/361/323 307/355/317
f 300/339/303 314/360/322 315/362/324
f 307/355/317 323/363/325 308/344/306
f 301/340/304 315/362/324 316/364/326
f 294/342/305 1/365/24 309/366/327
f 8/367/26 308/344/306 323/363/325
f 301/340/304 317/368/328 302/345/307
f 295/346/308 309/366/327 310/369/329
f 302/345/307 318/370/330 303/347/309
f 296/348/310 310/369/329 311/371/331
f 304/349/311 318/370/330 319/372/332
f 296/348/310 312/357/319 297/350/312
f 309/366/327 1/373/24 324/374/333
f 8/375/26 323/363/325 338/376/334
f 316/364/326 332/377/335 317/368/328
f 309/366/327 325/378/336 310/369/329
f 317/368/328 333/379/337 318/370/330
f 310/369/329 326/380/338 311/371/331
f 319/372/332 333/379/337 334/381/339
f 311/371/331 327/382/340 312/357/319
f 319/372/332 335/383/341 320/356/318
f 313/358/320 327/382/340 328/384/342
f 321/359/321 335/383/341 336/385/343
f 313/358/320 329/386/344 314/360/322
f 321/359/321 337/387/345 322/361/323
f 315/362/324 329/386/344 330/388/346
f 323/363/325 337/387/345 338/376/334
f 316/364/326 330/388/346 331/389/347
f 328/384/342 342/390/348 343/391/349
f 336/385/343 350/392/350 351/393/351
f 328/384/342 344/394/352 329/386/344
f 336/385/343 352/395/353 337/387/345
f 330/388/346 344/394/352 345/396/354
f 338/376/334 352/395/353 353/397/355
f 331/389/347 345/396/354 346/398/356
f 324/374/333 1/399/24 339/400/357
f 8/401/26 338/376/334 353/397/355
f 331/389/347 347/402/358 332/377/335
f 324/374/333 340/403/359 325/378/336
f 332/377/335 348/404/360 333/379/337
f 326/380/338 340/403/359 341/405/361
f 334/381/339 348/404/360 349/406/362
f 326/380/338 342/390/348 327/382/340
f 334/381/339 350/392/350 335/383/341
f 346/398/356 362/407/363 347/402/358
f 339/400/357 355/408/364 340/403/359
f 347/402/358 363/409/365 348/404/360
f 341/405/361 355/408/364 356/410/366
f 349/406/362 363/409/365 364/411/367
f 341/405/361 357/412/368 342/390/348
f 349/406/362 365/413/369 350/392/350
f 343/391/349 357/412/368 358/414/370
f 351/393/351 365/413/369 366/415/371
f 343/391/349 359/416/372 344/394/352
f 351/393/351 367/417/373 352/395/353
f 345/396/354 359/416/372 360/418/374
f 353/397/355 367/417/373 368/419/375
f 346/398/356 360/418/374 361/420/376
f 339/400/357 1/421/24 354/422/377
f 8/423/26 353/397/355 368/419/375
f 366/424/371 380/425/378 381/426/379
f 358/427/370 374/428/380 359/429/372
f 366/424/371 382/430/381 367/431/373
f 360/432/374 374/428/380 375/433/382
f 367/431/373 383/434/383 368/435/375
f 361/436/376 375/433/382 376/437/384
f 354/438/377 1/439/24 369/440/385
f 8/441/26 368/435/375 383/434/383
f 361/436/376 377/442/386 362/443/363
f 355/444/364 369/440/385 370/445/387
f 362/443/363 378/446/388 363/447/365
f 356/448/366 370/445/387 371/449/389
f 364/450/367 378/446/388 379/451/390
f 356/448/366 372/452/391 357/453/368
f 364/450/367 380/425/378 365/454/369
f 358/427/370 372/452/391 373/455/392
f 377/442/386 393/456/393 378/446/388
f 371/449/389 385/457/394 386/458/395
f 379/451/390 393/456/393 394/459/396
f 371/449/389 387/460/397 372/452/391
f 379/451/390 395/461/398 380/425/378
f 373/455/392 387/460/397 388/462/399
f 381/426/379 395/461/398 396/463/400
f 373/455/392 389/464/401 374/428/380
f 381/426/379 397/465/402 382/430/381
f 375/433/382 389/464/401 390/466/403
f 382/430/381 398/467/404 383/434/383
f 376/437/384 390/466/403 391/468/405
f 369/440/385 1/469/24 384/470/406
f 8/471/26 383/434/383 398/467/404
f 376/437/384 392/472/407 377/442/386
f 370/445/387 384/470/406 385/457/394
f 396/463/400 412/473/408 397/465/402
f 390/466/403 404/474/409 405/475/410
f 398/467/404 412/473/408 413/476/411
f 391/468/405 405/475/410 406/477/412
f 384/470/406 1/478/24 399/479/413
f 8/480/26 398/467/404 413/476/411
f 391/468/405 407/481/414 392/472/407
f 384/470/406 400/482/415 385/457/394
f 392/472/407 408/483/416 393/456/393
f 386/458/395 400/482/415 401/484/417
f 394/459/396 408/483/416 409/485/418
f 386/458/395 402/486/419 387/460/397
f 394/459/396 410/487/420 395/461/398
f 388/462/399 402/486/419 403/488/421
f 396/463/400 410/487/420 411/489/422
f 388/462/399 404/474/409 389/464/401
f 401/484/417 415/490/423 416/491/424
f 409/485/418 423/492/425 424/493/426
f 401/484/417 417/494/427 402/486/419
f 409/485/418 425/495/428 410/487/420
f 403/488/421 417/494/427 418/496/429
f 411/489/422 425/495/428 426/497/430
f 403/488/421 419/498/431 404/474/409
f 411/489/422 427/499/432 412/473/408
f 405/475/410 419/498/431 420/500/433
f 412/473/408 428/501/434 413/476/411
f 406/477/412 420/500/433 421/502/435
f 399/479/413 1/503/24 414/504/436
f 8/505/26 413/476/411 428/501/434
f 406/477/412 422/506/437 407/481/414
f 399/479/413 415/490/423 400/482/415
f 407/481/414 423/492/425 408/483/416
f 420/500/433 434/507/438 435/508/439
f 428/501/434 442/509/440 443/510/441
f 421/502/435 435/508/439 436/511/442
f 414/504/436 1/512/24 429/513/443
f 8/514/26 428/501/434 443/510/441
f 421/502/435 437/515/444 422/506/437
f 414/504/436 430/516/445 415/490/423
f 422/506/437 438/517/446 423/492/425
f 416/491/424 430/516/445 431/518/447
f 424/493/426 438/517/446 439/519/448
f 416/491/424 432/520/449 417/494/427
f 424/493/426 440/521/450 425/495/428
f 418/496/429 432/520/449 433/522/451
f 426/497/430 440/521/450 441/523/452
f 418/496/429 434/507/438 419/498/431
f 426/497/430 442/509/440 427/499/432
f 439/519/448 453/524/453 454/525/454
f 431/518/447 447/526/455 432/520/449
f 439/519/448 455/527/456 440/521/450
f 433/522/451 447/526/455 448/528/457
f 441/523/452 455/527/456 456/529/458
f 433/522/451 449/530/459 434/507/438
f 441/523/452 457/531/460 442/509/440
f 435/508/439 449/530/459 450/532/461
f 442/509/440 458/533/462 443/510/441
f 436/511/442 450/532/461 451/534/463
f 429/513/443 1/535/24 444/536/464
f 8/537/26 443/510/441 458/533/462
f 436/511/442 452/538/465 437/515/444
f 430/516/445 444/536/464 445/539/466
f 437/515/444 453/524/453 438/517/446
f 431/518/447 445/539/466 446/540/467
f 458/533/462 472/541/468 473/542/469
f 451/534/463 465/543/470 466/544/471
f 444/536/464 1/545/24 459/546/472
f 8/547/26 458/533/462 473/542/469
f 451/534/463 467/548/473 452/538/465
f 444/536/464 460/549/474 445/539/466
f 452/538/465 468/550/475 453/524/453
f 446/540/467 460/549/474 461/551/476
f 454/525/454 468/550/475 469/552/477
f 446/540/467 462/553/478 447/526/455
f 454/525/454 470/554/479 455/527/456
f 448/528/457 462/553/478 463/555/480
f 456/529/458 470/554/479 471/556/481
f 448/528/457 464/557/482 449/530/459
f 456/529/458 472/541/468 457/531/460
f 450/532/461 464/557/482 465/543/470
f 462/553/478 2/32/32 476/4/4
f 469/552/477 479/7/7 470/554/479
f 463/555/480 476/4/4 3/10/10
f 471/556/481 479/7/7 480/12/12
f 464/557/482 3/10/10 477/13/13
f 471/556/481 481/16/16 472/541/468
f 465/543/470 477/13/13 4/17/17
f 472/541/468 482/20/20 473/542/469
f 466/544/471 4/17/17 5/22/22
f 459/546/472 1/558/24 474/23/23
f 8/559/26 473/542/469 482/20/20
f 466/544/471 6/28/28 467/548/473
f 459/546/472 475/29/29 460/549/474
f 467/548/473 478/1/1 468/550/475
f 461/551/476 475/29/29 2/32/32
f 468/550/475 7/3/3 469/552/477
f 478/1/1 18/31/31 19/2/2
f 476/4/4 2/32/32 11/5/5
f 479/7/7 7/3/3 19/2/2
f 476/4/4 12/6/6 13/9/9
f 479/7/7 20/8/8 21/11/11
f 477/13/13 3/10/10 13/9/9
f 480/12/12 21/11/11 22/15/15
f 4/17/17 477/13/13 14/14/14
f 481/16/16 22/15/15 23/19/19
f 4/17/17 15/18/18 16/21/21
f 5/22/22 16/21/21 17/27/27
f 475/29/29 474/23/23 9/25/25
f 6/28/28 17/27/27 18/31/31
f 2/32/32 475/29/29 10/30/30
f 17/27/27 32/48/46 33/33/33
f 10/30/30 25/49/47 26/34/34
f 19/2/2 18/31/31 33/33/33
f 11/5/5 26/34/34 27/36/36
f 20/8/8 19/2/2 34/35/35
f 12/6/6 27/36/36 28/38/38
f 21/11/11 20/8/8 35/37/37
f 13/9/9 28/38/38 29/40/40
f 22/15/15 21/11/11 36/39/39
f 15/18/18 14/14/14 29/40/40
f 22/15/15 37/41/41 38/43/43
f 15/18/18 30/42/42 31/44/44
f 16/21/21 31/44/44 32/48/46
f 9/25/25 24/46/45 25/49/47
f 37/41/41 36/39/39 51/50/48
f 30/42/42 29/40/40 44/52/50
f 38/43/43 37/41/41 52/51/49
f 31/44/44 30/42/42 45/53/51
f 31/44/44 46/55/53 47/59/55
f 24/46/45 39/57/54 40/60/56
f 32/48/46 47/59/55 48/61/57
f 25/49/47 40/60/56 41/62/58
f 34/35/35 33/33/33 48/61/57
f 26/34/34 41/62/58 42/64/60
f 35/37/37 34/35/35 49/63/59
f 27/36/36 42/64/60 43/66/62
f 36/39/39 35/37/37 50/65/61
f 28/38/38 43/66/62 44/52/50
f 40/60/56 55/83/77 56/67/63
f 49/63/59 48/61/57 63/68/64
f 41/62/58 56/67/63 57/70/66
f 49/63/59 64/69/65 65/71/67
f 43/66/62 42/64/60 57/70/66
f 51/50/48 50/65/61 65/71/67
f 43/66/62 58/72/68 59/74/70
f 52/51/49 51/50/48 66/73/69
f 45/53/51 44/52/50 59/74/70
f 53/54/52 52/51/49 67/75/71
f 46/55/53 45/53/51 60/76/72
f 46/55/53 61/78/74 62/82/76
f 39/57/54 54/80/75 55/83/77
f 47/59/55 62/82/76 63/68/64
f 60/76/72 59/74/70 74/84/78
f 67/75/71 82/100/92 83/86/80
f 61/78/74 60/76/72 75/85/79
f 61/78/74 76/87/81 77/91/83
f 55/83/77 54/80/75 69/89/82
f 62/82/76 77/91/83 78/93/85
f 56/67/63 55/83/77 70/92/84
f 64/69/65 63/68/64 78/93/85
f 56/67/63 71/94/86 72/96/88
f 64/69/65 79/95/87 80/97/89
f 58/72/68 57/70/66 72/96/88
f 66/73/69 65/71/67 80/97/89
f 58/72/68 73/98/90 74/84/78
f 66/73/69 81/99/91 82/100/92
f 79/95/87 78/93/85 93/101/93
f 71/94/86 86/117/107 87/103/95
f 79/95/87 94/102/94 95/104/96
f 73/98/90 72/96/88 87/103/95
f 81/99/91 80/97/89 95/104/96
f 73/98/90 88/105/97 89/107/99
f 82/100/92 81/99/91 96/106/98
f 75/85/79 74/84/78 89/107/99
f 83/86/80 82/100/92 97/108/100
f 76/87/81 75/85/79 90/109/101
f 76/87/81 91/111/103 92/115/105
f 69/89/82 84/113/104 85/116/106
f 77/91/83 92/115/105 93/101/93
f 70/92/84 85/116/106 86/117/107
f 97/108/100 112/134/122 113/118/108
f 91/111/103 90/109/101 105/119/109
f 91/111/103 106/120/110 107/124/112
f 84/113/104 99/122/111 100/125/113
f 92/115/105 107/124/112 108/126/114
f 86/117/107 85/116/106 100/125/113
f 94/102/94 93/101/93 108/126/114
f 86/117/107 101/127/115 102/129/117
f 94/102/94 109/128/116 110/130/118
f 88/105/97 87/103/95 102/129/117
f 96/106/98 95/104/96 110/130/118
f 88/105/97 103/131/119 104/133/121
f 96/106/98 111/132/120 112/134/122
f 90/109/101 89/107/99 104/133/121
f 109/128/116 124/151/137 125/135/123
f 103/131/119 102/129/117 117/136/124
f 111/132/120 110/130/118 125/135/123
f 103/131/119 118/137/125 119/139/127
f 112/134/122 111/132/120 126/138/126
f 105/119/109 104/133/121 119/139/127
f 112/134/122 127/140/128 128/142/130
f 106/120/110 105/119/109 120/141/129
f 106/120/110 121/143/131 122/147/133
f 99/122/111 114/145/132 115/148/134
f 107/124/112 122/147/133 123/149/135
f 100/125/113 115/148/134 116/150/136
f 109/128/116 108/126/114 123/149/135
f 101/127/115 116/150/136 117/136/124
f 121/143/131 136/168/152 137/156/140
f 115/148/134 114/145/132 129/153/138
f 122/147/133 137/156/140 138/158/142
f 116/150/136 115/148/134 130/157/141
f 124/151/137 123/149/135 138/158/142
f 116/150/136 131/159/143 132/161/145
f 124/151/137 139/160/144 140/162/146
f 118/137/125 117/136/124 132/161/145
f 126/138/126 125/135/123 140/162/146
f 118/137/125 133/163/147 134/165/149
f 126/138/126 141/164/148 142/166/150
f 120/141/129 119/139/127 134/165/149
f 127/140/128 142/166/150 143/155/139
f 121/143/131 120/141/129 135/167/151
f 133/163/147 132/161/145 147/169/153
f 141/164/148 140/162/146 155/171/155
f 133/163/147 148/170/154 149/173/157
f 142/166/150 141/164/148 156/172/156
f 135/167/151 134/165/149 149/173/157
f 142/166/150 157/174/158 158/176/160
f 136/168/152 135/167/151 150/175/159
f 136/168/152 151/177/161 152/181/163
f 129/153/138 144/179/162 145/182/164
f 137/156/140 152/181/163 153/183/165
f 130/157/141 145/182/164 146/184/166
f 139/160/144 138/158/142 153/183/165
f 131/159/143 146/184/166 147/169/153
f 139/160/144 154/185/167 155/171/155
f 151/177/161 166/199/181 167/186/168
f 144/179/162 159/201/182 160/187/169
f 152/181/163 167/186/168 168/188/170
f 145/182/164 160/187/169 161/189/171
f 154/185/167 153/183/165 168/188/170
f 146/184/166 161/189/171 162/191/173
f 154/185/167 169/190/172 170/192/174
f 148/170/154 147/169/153 162/191/173
f 156/172/156 155/171/155 170/192/174
f 148/170/154 163/193/175 164/195/177
f 157/174/158 156/172/156 171/194/176
f 150/175/159 149/173/157 164/195/177
f 158/176/160 157/174/158 172/196/178
f 151/177/161 150/175/159 165/197/179
f 171/194/176 170/192/174 185/203/183
f 163/193/175 178/219/197 179/205/185
f 172/196/178 171/194/176 186/204/184
f 165/197/179 164/195/177 179/205/185
f 173/198/180 172/196/178 187/206/186
f 166/199/181 165/197/179 180/207/187
f 166/199/181 181/209/189 182/213/191
f 159/201/182 174/211/190 175/214/192
f 167/186/168 182/213/191 183/215/193
f 160/187/169 175/214/192 176/216/194
f 169/190/172 168/188/170 183/215/193
f 161/189/171 176/216/194 177/218/196
f 169/190/172 184/217/195 185/203/183
f 163/193/175 162/191/173 177/218/196
f 175/214/192 174/211/190 189/220/198
f 182/213/191 197/236/212 198/222/200
f 176/216/194 175/214/192 190/221/199
f 184/217/195 183/215/193 198/222/200
f 176/216/194 191/223/201 192/225/203
f 184/217/195 199/224/202 200/226/204
f 178/219/197 177/218/196 192/225/203
f 186/204/184 185/203/183 200/226/204
f 178/219/197 193/227/205 194/229/207
f 186/204/184 201/228/206 202/230/208
f 180/207/187 179/205/185 194/229/207
f 187/206/186 202/230/208 203/232/210
f 181/209/189 180/207/187 195/231/209
f 181/209/189 196/233/211 197/236/212
f 193/227/205 208/253/227 209/237/213
f 202/230/208 201/228/206 216/238/214
f 195/231/209 194/229/207 209/237/213
f 203/232/210 202/230/208 217/239/215
f 196/233/211 195/231/209 210/240/216
f 196/233/211 211/242/218 212/246/220
f 189/220/198 204/244/219 205/247/221
f 197/236/212 212/246/220 213/248/222
f 190/221/199 205/247/221 206/249/223
f 199/224/202 198/222/200 213/248/222
f 191/223/201 206/249/223 207/251/225
f 199/224/202 214/250/224 215/252/226
f 193/227/205 192/225/203 207/251/225
f 201/228/206 200/226/204 215/252/226
f 212/246/220 227/269/241 228/254/228
f 205/247/221 220/270/242 221/255/229
f 214/250/224 213/248/222 228/254/228
f 206/249/223 221/255/229 222/257/231
f 214/250/224 229/256/230 230/258/232
f 208/253/227 207/251/225 222/257/231
f 216/238/214 215/252/226 230/258/232
f 208/253/227 223/259/233 224/261/235
f 217/239/215 216/238/214 231/260/234
f 210/240/216 209/237/213 224/261/235
f 218/241/217 217/239/215 232/262/236
f 211/242/218 210/240/216 225/263/237
f 211/242/218 226/265/239 227/269/241
f 204/244/219 219/267/240 220/270/242
f 232/262/236 231/260/234 246/271/243
f 225/263/237 224/261/235 239/273/245
f 232/262/236 247/272/244 248/275/247
f 226/265/239 225/263/237 240/274/246
f 226/265/239 241/276/248 242/280/250
f 220/270/242 219/267/240 234/278/249
f 227/269/241 242/280/250 243/282/252
f 220/270/242 235/281/251 236/283/253
f 229/256/230 228/254/228 243/282/252
f 221/255/229 236/283/253 237/285/255
f 229/256/230 244/284/254 245/286/256
f 223/259/233 222/257/231 237/285/255
f 231/260/234 230/258/232 245/286/256
f 223/259/233 238/287/257 239/273/245
f 244/284/254 243/282/252 258/288/258
f 236/283/253 251/304/272 252/290/260
f 244/284/254 259/289/259 260/291/261
f 238/287/257 237/285/255 252/290/260
f 246/271/243 245/286/256 260/291/261
f 238/287/257 253/292/262 254/294/264
f 246/271/243 261/293/263 262/295/265
f 240/274/246 239/273/245 254/294/264
f 247/272/244 262/295/265 263/297/267
f 241/276/248 240/274/246 255/296/266
f 241/276/248 256/298/268 257/302/270
f 235/281/251 234/278/249 249/300/269
f 242/280/250 257/302/270 258/288/258
f 236/283/253 235/281/251 250/303/271
f 262/295/265 277/321/287 278/305/273
f 256/298/268 255/296/266 270/306/274
f 256/298/268 271/307/275 272/311/277
f 250/303/271 249/300/269 264/309/276
f 257/302/270 272/311/277 273/313/279
f 250/303/271 265/312/278 266/314/280
f 259/289/259 258/288/258 273/313/279
f 251/304/272 266/314/280 267/316/282
f 259/289/259 274/315/281 275/317/283
f 253/292/262 252/290/260 267/316/282
f 261/293/263 260/291/261 275/317/283
f 253/292/262 268/318/284 269/320/286
f 262/295/265 261/293/263 276/319/285
f 255/296/266 254/294/264 269/320/286
f 266/314/280 281/337/301 282/322/288
f 274/315/281 289/338/302 290/323/289
f 268/318/284 267/316/282 282/322/288
f 276/319/285 275/317/283 290/323/289
f 268/318/284 283/324/290 284/326/292
f 276/319/285 291/325/291 292/327/293
f 270/306/274 269/320/286 284/326/292
f 277/321/287 292/327/293 293/329/295
f 271/307/275 270/306/274 285/328/294
f 271/307/275 286/330/296 287/334/298
f 264/309/276 279/332/297 280/335/299
f 272/311/277 287/334/298 288/336/300
f 265/312/278 280/335/299 281/337/301
f 274/315/281 273/313/279 288/336/300
f 286/330/296 285/328/294 300/339/303
f 286/330/296 301/340/304 302/345/307
f 279/332/297 294/342/305 295/346/308
f 287/334/298 302/345/307 303/347/309
f 281/337/301 280/335/299 295/346/308
f 289/338/302 288/336/300 303/347/309
f 281/337/301 296/348/310 297/350/312
f 289/338/302 304/349/311 305/351/313
f 283/324/290 282/322/288 297/350/312
f 291/325/291 290/323/289 305/351/313
f 283/324/290 298/352/314 299/354/316
f 291/325/291 306/353/315 307/355/317
f 285/328/294 284/326/292 299/354/316
f 293/329/295 292/327/293 307/355/317
f 304/349/311 319/372/332 320/356/318
f 298/352/314 297/350/312 312/357/319
f 306/353/315 305/351/313 320/356/318
f 298/352/314 313/358/320 314/360/322
f 306/353/315 321/359/321 322/361/323
f 300/339/303 299/354/316 314/360/322
f 307/355/317 322/361/323 323/363/325
f 301/340/304 300/339/303 315/362/324
f 301/340/304 316/364/326 317/368/328
f 295/346/308 294/342/305 309/366/327
f 302/345/307 317/368/328 318/370/330
f 296/348/310 295/346/308 310/369/329
f 304/349/311 303/347/309 318/370/330
f 296/348/310 311/371/331 312/357/319
f 316/364/326 331/389/347 332/377/335
f 309/366/327 324/374/333 325/378/336
f 317/368/328 332/377/335 333/379/337
f 310/369/329 325/378/336 326/380/338
f 319/372/332 318/370/330 333/379/337
f 311/371/331 326/380/338 327/382/340
f 319/372/332 334/381/339 335/383/341
f 313/358/320 312/357/319 327/382/340
f 321/359/321 320/356/318 335/383/341
f 313/358/320 328/384/342 329/386/344
f 321/359/321 336/385/343 337/387/345
f 315/362/324 314/360/322 329/386/344
f 323/363/325 322/361/323 337/387/345
f 316/364/326 315/362/324 330/388/346
f 328/384/342 327/382/340 342/390/348
f 336/385/343 335/383/341 350/392/350
f 328/384/342 343/391/349 344/394/352
f 336/385/343 351/393/351 352/395/353
f 330/388/346 329/386/344 344/394/352
f 338/376/334 337/387/345 352/395/353
f 331/389/347 330/388/346 345/396/354
f 331/389/347 346/398/356 347/402/358
f 324/374/333 339/400/357 340/403/359
f 332/377/335 347/402/358 348/404/360
f 326/380/338 325/378/336 340/403/359
f 334/381/339 333/379/337 348/404/360
f 326/380/338 341/405/361 342/390/348
f 334/381/339 349/406/362 350/392/350
f 346/398/356 361/420/376 362/407/363
f 339/400/357 354/422/377 355/408/364
f 347/402/358 362/407/363 363/409/365
f 341/405/361 340/403/359 355/408/364
f 349/406/362 348/404/360 363/409/365
f 341/405/361 356/410/366 357/412/368
f 349/406/362 364/411/367 365/413/369
f 343/391/349 342/390/348 357/412/368
f 351/393/351 350/392/350 365/413/369
f 343/391/349 358/414/370 359/416/372
f 351/393/351 366/415/371 367/417/373
f 345/396/354 344/394/352 359/416/372
f 353/397/355 352/395/353 367/417/373
f 346/398/356 345/396/354 360/418/374
f 366/424/371 365/454/369 380/425/378
f 358/427/370 373/455/392 374/428/380
f 366/424/371 381/426/379 382/430/381
f 360/432/374 359/429/372 374/428/380
f 367/431/373 382/430/381 383/434/383
f 361/436/376 360/432/374 375/433/382
f 361/436/376 376/437/384 377/442/386
f 355/444/364 354/438/377 369/440/385
f 362/443/363 377/442/386 378/446/388
f 356/448/366 355/444/364 370/445/387
f 364/450/367 363/447/365 378/446/388
f 356/448/366 371/449/389 372/452/391
f 364/450/367 379/451/390 380/425/378
f 358/427/370 357/453/368 372/452/391
f 377/442/386 392/472/407 393/456/393
f 371/449/389 370/445/387 385/457/394
f 379/451/390 378/446/388 393/456/393
f 371/449/389 386/458/395 387/460/397
f 379/451/390 394/459/396 395/461/398
f 373/455/392 372/452/391 387/460/397
f 381/426/379 380/425/378 395/461/398
f 373/455/392 388/462/399 389/464/401
f 381/426/379 396/463/400 397/465/402
f 375/433/382 374/428/380 389/464/401
f 382/430/381 397/465/402 398/467/404
f 376/437/384 375/433/382 390/466/403
f 376/437/384 391/468/405 392/472/407
f 370/445/387 369/440/385 384/470/406
f 396/463/400 411/489/422 412/473/408
f 390/466/403 389/464/401 404/474/409
f 398/467/404 397/465/402 412/473/408
f 391/468/405 390/466/403 405/475/410
f 391/468/405 406/477/412 407/481/414
f 384/470/406 399/479/413 400/482/415
f 392/472/407 407/481/414 408/483/416
f 386/458/395 385/457/394 400/482/415
f 394/459/396 393/456/393 408/483/416
f 386/458/395 401/484/417 402/486/419
f 394/459/396 409/485/418 410/487/420
f 388/462/399 387/460/397 402/486/419
f 396/463/400 395/461/398 410/487/420
f 388/462/399 403/488/421 404/474/409
f 401/484/417 400/482/415 415/490/423
f 409/485/418 408/483/416 423/492/425
f 401/484/417 416/491/424 417/494/427
f 409/485/418 424/493/426 425/495/428
f 403/488/421 402/486/419 417/494/427
f 411/489/422 410/487/420 425/495/428
f 403/488/421 418/496/429 419/498/431
f 411/489/422 426/497/430 427/499/432
f 405/475/410 404/474/409 419/498/431
f 412/473/408 427/499/432 428/501/434
f 406/477/412 405/475/410 420/500/433
f 406/477/412 421/502/435 422/506/437
f 399/479/413 414/504/436 415/490/423
f 407/481/414 422/506/437 423/492/425
f 420/500/433 419/498/431 434/507/438
f 428/501/434 427/499/432 442/509/440
f 421/502/435 420/500/433 435/508/439
f 421/502/435 436/511/442 437/515/444
f 414/504/436 429/513/443 430/516/445
f 422/506/437 437/515/444 438/517/446
f 416/491/424 415/490/423 430/516/445
f 424/493/426 423/492/425 438/517/446
f 416/491/424 431/518/447 432/520/449
f 424/493/426 439/519/448 440/521/450
f 418/496/429 417/494/427 432/520/449
f 426/497/430 425/495/428 440/521/450
f 418/496/429 433/522/451 434/507/438
f 426/497/430 441/523/452 442/509/440
f 439/519/448 438/517/446 453/524/453
f 431/518/447 446/540/467 447/526/455
f 439/519/448 454/525/454 455/527/456
f 433/522/451 432/520/449 447/526/455
f 441/523/452 440/521/450 455/527/456
f 433/522/451 448/528/457 449/530/459
f 441/523/452 456/529/458 457/531/460
f 435/508/439 434/507/438 449/530/459
f 442/509/440 457/531/460 458/533/462
f 436/511/442 435/508/439 450/532/461
f 436/511/442 451/534/463 452/538/465
f 430/516/445 429/513/443 444/536/464
f 437/515/444 452/538/465 453/524/453
f 431/518/447 430/516/445 445/539/466
f 458/533/462 457/531/460 472/541/468
f 451/534/463 450/532/461 465/543/470
f 451/534/463 466/544/471 467/548/473
f 444/536/464 459/546/472 460/549/474
f 452/538/465 467/548/473 468/550/475
f 446/540/467 445/539/466 460/549/474
f 454/525/454 453/524/453 468/550/475
f 446/540/467 461/551/476 462/553/478
f 454/525/454 469/552/477 470/554/479
f 448/528/457 447/526/455 462/553/478
f 456/529/458 455/527/456 470/554/479
f 448/528/457 463/555/480 464/557/482
f 456/529/458 471/556/481 472/541/468
f 450/532/461 449/530/459 464/557/482
f 462/553/478 461/551/476 2/32/32
f 469/552/477 7/3/3 479/7/7
f 463/555/480 462/553/478 476/4/4
f 471/556/481 470/554/479 479/7/7
f 464/557/482 463/555/480 3/10/10
f 471/556/481 480/12/12 481/16/16
f 465/543/470 464/557/482 477/13/13
f 472/541/468 481/16/16 482/20/20
f 466/544/471 465/543/470 4/17/17
f 466/544/471 5/22/22 6/28/28
f 459/546/472 474/23/23 475/29/29
f 467/548/473 6/28/28 478/1/1
f 461/551/476 460/549/474 475/29/29
f 468/550/475 478/1/1 7/3/3
s 0
f 487/560/24 485/560/24 483/560/24
f 485/560/248 490/560/248 486/560/248
f 489/560/376 488/560/376 490/560/376
f 484/560/26 490/560/26 488/560/26
f 483/560/131 486/560/131 484/560/131
f 487/560/22 484/560/22 488/560/22
f 487/560/24 489/560/24 485/560/24
f 485/560/248 489/560/248 490/560/248
f 489/560/376 487/560/376 488/560/376
f 484/560/26 486/560/26 490/560/26
f 483/560/131 485/560/131 486/560/131
f 487/560/22 483/560/22 484/560/22
