# Blender 5.0.0
# www.blender.org
mtllib sword.mtl
o Cube
v 0.070352 1.049089 -0.042464
v 0.070352 0.337091 -0.042464
v 0.070352 1.049089 0.042464
v 0.070352 0.337091 0.042464
v -0.070352 1.049089 -0.042464
v -0.070352 0.337091 -0.042464
v -0.070352 1.049089 0.042464
v -0.070352 0.337091 0.042464
v -0.045121 0.278548 -0.027235
v -0.045121 0.278548 0.027235
v 0.045121 0.278548 -0.027235
v 0.045121 0.278548 0.027235
v -0.186105 0.337091 0.042464
v -0.186105 0.337091 -0.042464
v -0.186105 0.278548 -0.042464
v -0.186105 0.278548 0.042464
v 0.186105 0.337091 -0.042464
v 0.186105 0.337091 0.042464
v 0.186105 0.278548 0.042464
v 0.186105 0.278548 -0.042464
v -0.070352 0.278548 -0.042464
v -0.070352 0.278548 0.042464
v 0.070352 0.278548 -0.042464
v 0.070352 0.278548 0.042464
v -0.045121 0.120279 -0.027235
v -0.045121 0.120279 0.027235
v 0.045121 0.120279 -0.027235
v 0.045121 0.120279 0.027235
vn -0.0000 1.0000 -0.0000
vn -0.0000 -0.0000 1.0000
vn -1.0000 -0.0000 -0.0000
vn 1.0000 -0.0000 -0.0000
vn -0.0000 -0.0000 -1.0000
vn -0.0000 -1.0000 -0.0000
vt 0.274323 1.000000
vt 0.000000 0.725677
vt 0.274323 0.725677
vt 0.000000 0.500000
vt 0.274323 0.225677
vt 0.274323 0.500000
vt 0.274323 1.000000
vt 0.548646 0.725677
vt 0.548646 1.000000
vt 0.548646 1.000000
vt 0.822969 0.725677
vt 0.822969 1.000000
vt 0.296879 0.500000
vt 0.571202 0.225677
vt 0.571202 0.500000
vt 0.868081 -0.000000
vt 0.929060 0.175938
vt 0.868081 0.175938
vt 0.593758 0.500000
vt 0.296879 0.500000
vt 0.929060 -0.000000
vt 0.951616 0.274323
vt 0.929060 0.274323
vt 0.571202 0.725677
vt 0.593758 0.725677
vt 0.593758 -0.000000
vt 0.868081 0.225677
vt 0.593758 0.225677
vt 0.274323 0.000000
vt 0.296879 0.225677
vt 0.951616 0.548646
vt 0.929060 0.548646
vt 0.296879 -0.000000
vt 0.296879 0.225677
vt 0.296879 0.725677
vt 0.868081 0.725677
vt 0.593758 0.500000
vt 0.868081 0.500000
vt 0.571202 0.000000
vt 0.593758 0.225677
vt 0.642951 0.274869
vt 0.818889 0.274869
vt 0.818889 0.450808
vt 0.642951 0.450808
vt 0.998908 0.901615
vt 0.822969 0.725677
vt 0.998908 0.725677
vt 0.929060 0.351877
vt 0.868081 0.351877
vt 0.868081 0.351877
vt 0.929060 0.527815
vt 0.868081 0.527815
vt 0.868081 0.527815
vt 0.929060 0.703754
vt 0.868081 0.703754
vt 0.000000 1.000000
vt 0.000000 0.225677
vt 0.274323 0.725677
vt 0.548646 0.725677
vt 0.929060 -0.000000
vt 0.951616 -0.000000
vt 0.296879 0.725677
vt 0.868081 0.000000
vt 0.296879 0.000000
vt 0.274323 0.725677
vt 0.593758 0.000000
vt 0.822969 0.901615
vt 0.929060 0.175938
vt 0.929060 0.351877
s 0
usemtl Material
f 5/1/1 3/2/1 1/3/1
f 3/4/2 8/5/2 4/6/2
f 7/7/3 6/8/3 8/9/3
f 1/10/4 4/11/4 2/12/4
f 5/13/5 2/14/5 6/15/5
f 10/16/2 28/17/2 12/18/2
f 2/14/5 21/19/5 6/15/5
f 8/5/2 24/20/2 4/6/2
f 14/21/3 16/22/3 13/23/3
f 14/24/1 8/13/1 6/15/1
f 15/25/5 6/15/5 21/19/5
f 16/26/6 21/27/6 22/28/6
f 13/29/2 22/30/2 8/5/2
f 18/23/4 20/31/4 17/32/4
f 18/33/1 2/14/1 4/34/1
f 19/35/2 4/6/2 24/20/2
f 20/36/6 24/37/6 23/38/6
f 17/39/5 23/40/5 2/14/5
f 10/41/6 21/27/6 9/42/6
f 9/42/6 23/38/6 11/43/6
f 12/44/6 22/28/6 10/41/6
f 11/43/6 24/37/6 12/44/6
f 27/45/6 26/46/6 25/47/6
f 9/18/3 26/48/3 10/49/3
f 12/50/4 27/51/4 11/52/4
f 11/53/5 25/54/5 9/55/5
f 5/1/1 7/56/1 3/2/1
f 3/4/2 7/57/2 8/5/2
f 7/7/3 5/58/3 6/8/3
f 1/10/4 3/59/4 4/11/4
f 5/13/5 1/34/5 2/14/5
f 10/16/2 26/60/2 28/17/2
f 2/14/5 23/40/5 21/19/5
f 8/5/2 22/30/2 24/20/2
f 14/21/3 15/61/3 16/22/3
f 14/24/1 13/62/1 8/13/1
f 15/25/5 14/24/5 6/15/5
f 16/26/6 15/63/6 21/27/6
f 13/29/2 16/64/2 22/30/2
f 18/23/4 19/22/4 20/31/4
f 18/33/1 17/39/1 2/14/1
f 19/35/2 18/65/2 4/6/2
f 20/36/6 19/25/6 24/37/6
f 17/39/5 20/66/5 23/40/5
f 10/41/6 22/28/6 21/27/6
f 9/42/6 21/27/6 23/38/6
f 12/44/6 24/37/6 22/28/6
f 11/43/6 23/38/6 24/37/6
f 27/45/6 28/67/6 26/46/6
f 9/18/3 25/68/3 26/48/3
f 12/50/4 28/69/4 27/51/4
f 11/53/5 27/51/5 25/54/5
